<?xml version="1.0" encoding="utf-8"?>
<!-- Generator: Adobe Illustrator 27.5.0, SVG Export Plug-In . SVG Version: 6.00 Build 0)  -->
<svg version="1.1" xmlns="http://www.w3.org/2000/svg" xmlns:xlink="http://www.w3.org/1999/xlink" x="0px" y="0px"
	 viewBox="0 0 500 500" style="enable-background:new 0 0 500 500;" xml:space="preserve">
<g id="Floor">
	<ellipse id="Floor_4_" style="fill:#FAFAFA;" cx="250" cy="351.425" rx="244.98" ry="141.439"/>
</g>
<g id="Shadows">
	<path id="Shadow_5_" style="fill:#E6E6E6;" d="M378.815,397.549l74.469-42.995c4.68-2.702,4.68-7.083,0-9.785l-46.646-26.931
		c-4.68-2.702-12.346-2.843-17.122-0.316l-78.095,41.331c-4.776,2.528-4.854,6.768-0.174,9.47l50.621,29.226
		C366.548,400.251,374.135,400.251,378.815,397.549z"/>
	<path id="Shadow_14_" style="fill:#E6E6E6;" d="M126.273,397.549l-74.469-42.995c-4.68-2.702-4.68-7.083,0-9.785l46.646-26.931
		c4.68-2.702,12.346-2.843,17.122-0.316l78.095,41.331c4.776,2.528,4.855,6.768,0.174,9.47l-50.621,29.226
		C138.541,400.251,130.953,400.251,126.273,397.549z"/>
	<ellipse id="Shadow_1_" style="fill:#E6E6E6;" cx="252.829" cy="413.755" rx="107.263" ry="61.928"/>
	<path id="Shadow_25_" style="fill:#E6E6E6;" d="M385.902,447.219l-29.608-17.061c-1.444-0.834-1.444-2.185,0-3.019l83.063-47.956
		c1.444-0.834,3.785-0.834,5.229,0l29.607,17.061c1.444,0.834,1.444,2.185,0,3.019l-83.062,47.956
		C389.687,448.053,387.346,448.053,385.902,447.219z"/>
	<path id="Shadow_23_" style="fill:#E6E6E6;" d="M120.509,447.219l29.608-17.061c1.444-0.834,1.444-2.185,0-3.019l-83.063-47.956
		c-1.444-0.834-3.785-0.834-5.229,0l-29.607,17.061c-1.444,0.834-1.444,2.185,0,3.019l83.062,47.956
		C116.725,448.053,119.066,448.053,120.509,447.219z"/>
</g>
<g id="Plants">
	<g id="Plants_2_">
		<g id="XMLID_557_">
			<path id="XMLID_560_" style="fill:#BA68C8;" d="M63.595,339.647c0,0,1.711-18.02-2.886-32.442
				c-4.597-14.422-13.384-25.006-23.286-28.512c-9.902-3.506-20.562,3.615-11.448,12.902c9.114,9.287,26.282,27.164,28.737,53.436
				L63.595,339.647z"/>
			<path id="XMLID_559_" style="opacity:0.65;fill:#FFFFFF;" d="M63.595,339.647c0,0,1.711-18.02-2.886-32.442
				c-4.597-14.422-13.384-25.006-23.286-28.512c-9.902-3.506-20.562,3.615-11.448,12.902c9.114,9.287,26.282,27.164,28.737,53.436
				L63.595,339.647z"/>
			<path id="XMLID_558_" style="fill:#FFFFFF;" d="M58.105,335.53c0.038,0.003,0.076,0.003,0.115-0.003
				c0.307-0.038,0.499-0.315,0.485-0.624c-1.282-30.231-18.131-48.032-26.817-52.639c-0.271-0.147-0.611-0.04-0.756,0.232
				c-0.145,0.273-0.041,0.612,0.232,0.756c8.507,4.513,24.658,22.229,26.231,51.79C57.611,335.311,57.847,335.509,58.105,335.53z"/>
		</g>
		<g id="XMLID_551_">
			<path id="XMLID_556_" style="fill:#BA68C8;" d="M8.912,309.245c0.258,1.759,1.74,3.051,3.152,4.136
				c1.405,1.076,2.945,2.253,3.392,3.973c0.898,3.473-3.117,6.885-2.071,10.315c0.44,1.438,1.711,2.486,3.066,3.139
				c1.123,0.552,2.33,0.887,3.504,1.323c0.581,0.149,1.166,0.266,1.745,0.343c1.715,0.22,3.526,0.642,4.801,1.907
				c2.004,1.998,1.897,5.203,2.695,7.919c0.958,3.253,2.442,6.154,5.407,7.753c4.299,2.317,8.934,1.43,8.934,1.43l11.174-6.451
				c3.728-1.128,3.891-4.653,3.994-8.5c0.097-3.594-1.557-7.388-3.937-10.024c-1.503-1.665-3.427-2.902-5.351-4.01
				c-1.027-0.591-2.22-1.049-2.923-2.042c-0.636-0.898-0.696-1.959-0.84-3.02c-0.166-1.22-0.147-2.428-0.542-3.605
				c-0.407-1.214-1.043-2.318-1.767-3.365c-0.818-1.184-1.81-2.011-3.176-2.542c-1.973-0.766-3.927-1.279-6.029-1.503
				c-2.622-0.28-5.467,0.446-8.017-0.394c-2.48-0.816-4.755-2.175-7.37-2.711c-2.735-0.561-5.789-0.187-7.962,1.689
				C9.571,306.059,8.679,307.649,8.912,309.245z"/>
			<path id="XMLID_552_" style="opacity:0.25;fill:#FFFFFF;" d="M8.912,309.245c0.258,1.759,1.74,3.051,3.152,4.136
				c1.405,1.076,2.945,2.253,3.392,3.973c0.898,3.473-3.117,6.885-2.071,10.315c0.44,1.438,1.711,2.486,3.066,3.139
				c1.123,0.552,2.33,0.887,3.504,1.323c0.581,0.149,1.166,0.266,1.745,0.343c1.715,0.22,3.526,0.642,4.801,1.907
				c2.004,1.998,1.897,5.203,2.695,7.919c0.958,3.253,2.442,6.154,5.407,7.753c4.299,2.317,8.934,1.43,8.934,1.43l11.174-6.451
				c3.728-1.128,3.891-4.653,3.994-8.5c0.097-3.594-1.557-7.388-3.937-10.024c-1.503-1.665-3.427-2.902-5.351-4.01
				c-1.027-0.591-2.22-1.049-2.923-2.042c-0.636-0.898-0.696-1.959-0.84-3.02c-0.166-1.22-0.147-2.428-0.542-3.605
				c-0.407-1.214-1.043-2.318-1.767-3.365c-0.818-1.184-1.81-2.011-3.176-2.542c-1.973-0.766-3.927-1.279-6.029-1.503
				c-2.622-0.28-5.467,0.446-8.017-0.394c-2.48-0.816-4.755-2.175-7.37-2.711c-2.735-0.561-5.789-0.187-7.962,1.689
				C9.571,306.059,8.679,307.649,8.912,309.245z"/>
			<path style="fill:#FFFFFF;" d="M41.058,325.462c-0.051-0.1-0.13-0.188-0.208-0.304c-7.356-10.912-19.498-15.878-23.482-16.685
				c-0.214-0.041-0.427,0.096-0.472,0.313c-0.044,0.216,0.096,0.428,0.313,0.472c3.778,0.765,15.059,5.346,22.301,15.35
				c-9.775-3.684-17.435,0.576-17.515,0.622c-0.192,0.11-0.258,0.354-0.149,0.546c0.068,0.118,0.186,0.189,0.312,0.2
				c0.078,0.007,0.16-0.009,0.234-0.051c0.079-0.045,8.012-4.436,17.942-0.116c3.359,5.07,5.662,11.431,5.572,19.278
				c-0.003,0.21,0.157,0.384,0.363,0.403c0.011,0.001,0.022,0.001,0.033,0.001c0.22,0.003,0.402-0.174,0.404-0.396
				C46.796,337.111,44.466,330.632,41.058,325.462z"/>
		</g>
	</g>
	<g id="Plants_5_">
		<g id="XMLID_2636_">
			<path id="XMLID_2639_" style="fill:#BA68C8;" d="M439.922,342.99c0,0-2.367-25.801,11.372-50.838
				c7.68-13.995,19.373-19.784,26.157-19.852c7.604-0.077,14.52,6.751,6.776,15.75c-7.359,8.551-20.026,11.204-29.861,34.307
				c-4.194,9.852-5.854,17.681-6.504,21.982c-0.239,1.586-2.355,2.355-3.819,1.384L439.922,342.99z"/>
			<path id="XMLID_2638_" style="opacity:0.5;fill:#FFFFFF;" d="M439.922,342.99c0,0-2.367-25.801,11.372-50.838
				c7.68-13.995,19.373-19.784,26.157-19.852c7.604-0.077,14.52,6.751,6.776,15.75c-7.359,8.551-20.026,11.204-29.861,34.307
				c-4.194,9.852-5.854,17.681-6.504,21.982c-0.239,1.586-2.355,2.355-3.819,1.384L439.922,342.99z"/>
			<g id="XMLID_2637_">
				<path style="fill:#FFFFFF;" d="M445.194,337.822c0.262,0,0.472-0.183,0.472-0.41c0-29.278,18.801-52.168,32.15-59.072
					c0.224-0.117,0.298-0.368,0.164-0.563c-0.135-0.196-0.424-0.259-0.648-0.143c-13.541,7.003-32.611,30.179-32.611,59.778
					C444.722,337.639,444.932,337.822,445.194,337.822z"/>
			</g>
		</g>
		<g id="XMLID_2521_">
			<path id="XMLID_2635_" style="fill:#BA68C8;" d="M444.727,346.147c1.277,0.861,3.141,0.394,3.699-0.924
				c2.389-5.633,7.298-11.209,15.832-16.782c9.927-6.482,23.199-12.043,22.11-18.659c-1.089-6.615-11.143-6.155-18.508-3.231
				c-7.364,2.924-24.519,14.991-24.169,38.897L444.727,346.147z"/>
			<path id="XMLID_2633_" style="opacity:0.25;fill:#FFFFFF;" d="M444.727,346.147c1.277,0.861,3.141,0.394,3.699-0.924
				c2.389-5.633,7.298-11.209,15.832-16.782c9.927-6.482,23.199-12.043,22.11-18.659c-1.089-6.615-11.143-6.155-18.508-3.231
				c-7.364,2.924-24.519,14.991-24.169,38.897L444.727,346.147z"/>
			<g id="XMLID_2563_">
				<path style="fill:#FFFFFF;" d="M445.304,346.675c0.224,0,0.445-0.136,0.464-0.336c1.603-17.753,21.122-35.776,33.745-38.225
					c0.255-0.049,0.408-0.277,0.344-0.497c-0.061-0.221-0.31-0.331-0.572-0.299c-12.406,1.527-33.772,20.962-34.446,38.874
					c-0.009,0.227,0.123,0.437,0.38,0.477C445.247,346.673,445.275,346.675,445.304,346.675z"/>
			</g>
		</g>
	</g>
</g>
<g id="Character_2">
	<g id="Character_1_">
		<g id="Chair_19_">
			<g>
				<g>
					<path style="fill:#263238;" d="M313.313,363.063l8.568-92.695l7.951-0.403l-12.515,93.086h-0.009
						c-0.038,0.252-0.208,0.504-0.53,0.712c-0.759,0.491-2.028,0.556-2.834,0.143c-0.428-0.219-0.632-0.528-0.622-0.845H313.313z"/>
					<path style="fill:#263238;" d="M321.88,270.369l7.951-0.403l-2.339,15.396c-1.908-0.717-2.653-1.063-4.708-2.166
						c-1.093-0.587-2.014-1.4-2.101-1.797L321.88,270.369z"/>
				</g>
				<g>
					<path style="fill:#37474F;" d="M427.538,258.462h7.961l12.745,88.17l-0.009,0c0.026,0.315-0.162,0.634-0.579,0.875
						c-0.783,0.452-2.054,0.452-2.837,0c-0.332-0.192-0.515-0.434-0.565-0.684l-0.009,0.001L427.538,258.462z"/>
					<path style="fill:#263238;" d="M435.499,258.462l3.095,21.41c-1.443,1.25-4.484,3.016-6.281,3.844l-4.775-25.254H435.499z"/>
				</g>
				<g>
					<path style="fill:#37474F;" d="M366.505,390.282l6.322-94.062l7.951-0.403l-10.269,94.453H370.5
						c-0.038,0.252-0.208,0.504-0.53,0.712c-0.76,0.491-2.029,0.556-2.834,0.144c-0.428-0.219-0.632-0.529-0.622-0.844H366.505z"/>
					<path style="fill:#263238;" d="M372.028,308.118l0.8-11.898l7.951-0.403l-1.396,12.837
						C377.61,309.194,374.343,308.864,372.028,308.118z"/>
				</g>
				<g>
					<path style="fill:#263238;" d="M384.087,233.199h7.961l12.745,89.899l-0.009,0c0.026,0.315-0.162,0.634-0.578,0.875
						c-0.784,0.452-2.054,0.452-2.837,0c-0.332-0.191-0.515-0.434-0.565-0.685l-0.009,0.001L384.087,233.199z"/>
				</g>
			</g>
			<g id="Chair_20_">
				<path style="fill:#BA68C8;" d="M450.457,170.525c1.594,3.719,2.693,8.275,3.179,13.975c0.909,10.715-2.717,45.412-4.896,60.927
					l0.009-0.009c-3.151,25.924-7.015,25.969-12.633,30.309c-9.662,7.465-37.45,22.097-46.625,25.708
					c-16.632,6.546-30.228-3.548-40.367-8.554c-10.13-4.998-22.583-12.805-26.852-15.902c-2.53-1.846-3.845-3.71-3.818-5.673
					c0.009-0.774-0.009-3.962-0.009-4.781c0.009-2.504,2.206-5.187,6.861-8.203c8.59-5.574,39.638-23.682,51.668-30.345
					c0.018-0.09,0.099-0.099,0.099-0.099c9.257-5.619,14.828-43.818,21.24-64.141c0.135-0.432,0.27-0.855,0.414-1.26
					c0.108-0.324,0.225-0.64,0.333-0.946c0.405-1.107,0.819-2.116,1.261-3.043"/>
				<path style="fill:#BA68C8;" d="M318.444,266.524c0.009-2.503,2.206-5.186,6.862-8.203c8.59-5.574,39.638-23.682,51.667-30.345
					c0.018-0.09,0.099-0.099,0.099-0.099c9.257-5.619,14.828-43.818,21.239-64.141c0.06-0.191,0.512-1.752,1.342-3.739
					c0.038-0.093,0.078-0.179,0.117-0.27c0.115-0.27,0.237-0.546,0.366-0.827c0.062-0.135,0.12-0.281,0.183-0.413l0.008,0.002
					c1.037-2.187,2.465-4.581,4.278-6.179c0.153-0.135,0.876-0.844,2.097-1.475c1.041-0.588,3.227-1.804,3.773-2.124
					c6.289-3.763,14.536,0.753,24.815,6.381c6.392,3.505,11.845,7.67,15.165,15.433l0.001,0c1.594,3.719,2.692,8.275,3.179,13.975
					c0.91,10.715-2.717,45.412-4.896,60.927l0.009-0.009c-3.151,25.924-7.015,25.969-12.633,30.309
					c-9.662,7.465-37.45,22.097-46.625,25.708c-16.632,6.546-30.228-3.548-40.367-8.554c-10.13-4.998-22.583-12.805-26.852-15.902
					c-2.53-1.846-3.845-3.71-3.818-5.673C318.462,270.531,318.444,267.344,318.444,266.524z"/>
				<path style="opacity:0.25;fill:#FFFFFF;" d="M318.444,266.524c0.009-2.503,2.206-5.186,6.862-8.203
					c8.59-5.574,39.638-23.682,51.667-30.345c0.018-0.09,0.099-0.099,0.099-0.099c9.257-5.619,14.828-43.818,21.239-64.141
					c0.06-0.191,0.512-1.752,1.342-3.739c0.038-0.093,0.078-0.179,0.117-0.27c0.115-0.27,0.237-0.546,0.366-0.827
					c0.062-0.135,0.12-0.281,0.183-0.413l0.008,0.002c1.037-2.187,2.465-4.581,4.278-6.179c0.153-0.135,0.876-0.844,2.097-1.475
					c1.041-0.588,3.227-1.804,3.773-2.124c6.289-3.763,14.536,0.753,24.815,6.381c6.392,3.505,11.845,7.67,15.165,15.433l0.001,0
					c1.594,3.719,2.692,8.275,3.179,13.975c0.91,10.715-2.717,45.412-4.896,60.927l0.009-0.009
					c-3.151,25.924-7.015,25.969-12.633,30.309c-9.662,7.465-37.45,22.097-46.625,25.708c-16.632,6.546-30.228-3.548-40.367-8.554
					c-10.13-4.998-22.583-12.805-26.852-15.902c-2.53-1.846-3.845-3.71-3.818-5.673
					C318.462,270.531,318.444,267.344,318.444,266.524z"/>
				<g id="XMLID_525_">
					<path id="XMLID_531_" style="fill:#BA68C8;" d="M349.127,288.061c-10.133-5.005-22.588-12.811-26.853-15.908
						c-5.766-4.187-5.235-8.47,3.028-13.83c11.479-7.447,58.274-34,58.274-34s59.16,34.912,56.615,41.359
						c-2.545,6.447-39.162,26.392-50.698,30.93C372.855,303.157,359.26,293.066,349.127,288.061z"/>
					<path id="XMLID_527_" style="opacity:0.6;fill:#FFFFFF;" d="M349.127,288.061c-10.133-5.005-22.588-12.811-26.853-15.908
						c-5.766-4.187-5.235-8.47,3.028-13.83c11.479-7.447,58.274-34,58.274-34s59.16,34.912,56.615,41.359
						c-2.545,6.447-39.162,26.392-50.698,30.93C372.855,303.157,359.26,293.066,349.127,288.061z"/>
				</g>
				<path id="XMLID_445_" style="fill:#BA68C8;" d="M406.703,150.834c6.227-3.268,14.32,1.175,24.33,6.66
					c6.412,3.516,11.876,7.68,15.196,15.474l4.227-2.443c-3.32-7.763-8.773-11.928-15.165-15.433
					c-10.278-5.629-18.526-10.145-24.814-6.382C409.93,149.03,407.745,150.246,406.703,150.834z"/>
				<path id="XMLID_443_" style="opacity:0.5;fill:#FFFFFF;" d="M406.703,150.834c6.227-3.268,14.32,1.175,24.33,6.66
					c6.412,3.516,11.876,7.68,15.196,15.474l4.227-2.443c-3.32-7.763-8.773-11.928-15.165-15.433
					c-10.278-5.629-18.526-10.145-24.814-6.382C409.93,149.03,407.745,150.246,406.703,150.834z"/>
				<g id="XMLID_441_">
					<path style="fill:#BA68C8;" d="M377.073,227.877c0,0,6.033,1.981,27.554,12.552c8.833,4.331,14.641,8.708,22.917,13.912
						c12.174,7.663,11.246,13.354,11.246,13.354c6.051-5.015,12.082-63.187,10.596-80.791c-0.513-6.051-1.72-10.805-3.467-14.65
						c-0.162-0.342-0.324-0.684-0.495-1.026c-0.117-0.234-0.234-0.468-0.36-0.693c-0.054-0.108-0.117-0.216-0.18-0.324
						c-0.477-0.865-0.991-1.675-1.531-2.449c-0.135-0.198-0.27-0.387-0.405-0.567c-0.144-0.189-0.279-0.378-0.424-0.558
						c-0.135-0.18-0.288-0.36-0.432-0.54c-0.117-0.144-0.243-0.288-0.369-0.432c-0.693-0.81-1.423-1.567-2.188-2.269
						c-0.189-0.189-0.378-0.36-0.576-0.531c-1.216-1.063-2.503-2.035-3.854-2.927c-0.207-0.144-0.414-0.279-0.621-0.405
						c-0.279-0.18-0.559-0.36-0.847-0.531c-0.234-0.144-0.468-0.288-0.711-0.423c-0.621-0.369-1.252-0.729-1.891-1.081
						c-7.654-4.187-14.182-7.78-19.621-7.78c-4.066,0-6.511,2.332-6.807,2.593c-4.017,3.538-6.159,10.995-6.294,11.427
						C391.901,184.059,386.329,222.258,377.073,227.877z"/>
					<path style="opacity:0.4;fill:#FFFFFF;" d="M377.073,227.877c0,0,6.033,1.981,27.554,12.552
						c8.833,4.331,14.641,8.708,22.917,13.912c12.174,7.663,11.246,13.354,11.246,13.354c6.051-5.015,12.082-63.187,10.596-80.791
						c-0.513-6.051-1.72-10.805-3.467-14.65c-0.162-0.342-0.324-0.684-0.495-1.026c-0.117-0.234-0.234-0.468-0.36-0.693
						c-0.054-0.108-0.117-0.216-0.18-0.324c-0.477-0.865-0.991-1.675-1.531-2.449c-0.135-0.198-0.27-0.387-0.405-0.567
						c-0.144-0.189-0.279-0.378-0.424-0.558c-0.135-0.18-0.288-0.36-0.432-0.54c-0.117-0.144-0.243-0.288-0.369-0.432
						c-0.693-0.81-1.423-1.567-2.188-2.269c-0.189-0.189-0.378-0.36-0.576-0.531c-1.216-1.063-2.503-2.035-3.854-2.927
						c-0.207-0.144-0.414-0.279-0.621-0.405c-0.279-0.18-0.559-0.36-0.847-0.531c-0.234-0.144-0.468-0.288-0.711-0.423
						c-0.621-0.369-1.252-0.729-1.891-1.081c-7.654-4.187-14.182-7.78-19.621-7.78c-4.066,0-6.511,2.332-6.807,2.593
						c-4.017,3.538-6.159,10.995-6.294,11.427C391.901,184.059,386.329,222.258,377.073,227.877z"/>
				</g>
			</g>
		</g>
		<g id="Bottom_5_">
			<g>
				<g>
					<g id="XMLID_5298_">
						<path id="XMLID_5300_" style="fill:#263238;" d="M354.614,311.231c5.69-0.784,10.583,3.758,11.053,5.214
							c0.635,1.967,0.434,5.956-1.872,10.881c-1.999,4.27-2.895,10.993-2.464,15.491c0.431,4.499,2.608,15.72-1.914,21.378
							c-4.521,5.659-14.596,10.606-18.204,2.891c-1.18-2.522,1.151-11.293,2.184-17.689c2.057-12.742,3.637-25.399,3.637-25.399
							L354.614,311.231z"/>
						<path id="XMLID_5299_" style="fill:#FFA8A7;" d="M356.43,321.39c-0.633,4.449-1.518,11.858-1.386,18.689
							c0.132,6.832-1.298,11.328-3.648,14.384c-2.591,3.372-9.093,5.272-8.345-1.768c0.522-4.901,3.981-28.696,3.981-28.696
							L356.43,321.39z"/>
						<path style="opacity:0.15;" d="M363.766,314.203c0.278,4.205-1.956,15.387-7.62,24.762
							c-5.552,9.192-13.7,20.011-15.237,26.564c-0.162-3.008,1.086-8.521,2.008-13.427c0.02-0.108,0.041-0.215,0.06-0.323
							c0.053-0.286,0.104-0.568,0.154-0.849c0.023-0.129,0.047-0.26,0.07-0.387c0.064-0.364,0.125-0.723,0.182-1.074
							c0.004-0.023,0.008-0.048,0.012-0.071c0.643-3.982,1.239-7.955,1.755-11.537c0.413-2.865,0.774-5.479,1.067-7.647
							c0.146-1.083,0.275-2.055,0.385-2.89c0.055-0.418,0.105-0.801,0.15-1.148c0.18-1.386,0.279-2.177,0.279-2.177l7.581-12.768
							c0.383-0.053,0.743-0.067,1.105-0.086C359.019,311.073,361.946,312.673,363.766,314.203z"/>
					</g>
					<path style="fill:#455A64;" d="M331.871,239.991c18.098-13.507,38.61-28.775,38.61-28.775l58.099,3.507l-57.241,42.814
						l-24.657,16.694c0,0-4.712-0.367-1.825,6.984c0.917,2.334,2.303,7.009,3.766,12.298l-11.447,31.535
						c0,0-7.232-10.521-15.131-30.908c-7.996-20.638-8.498-27.445-7.672-31.542C315.456,257.238,317.084,251.027,331.871,239.991z"
						/>
					<path style="fill:#37474F;" d="M342.528,240.635c-4.676,3.596-9.158,7.421-13.342,11.512c-2.075,2.053-4.089,4.188-5.778,6.49
						c-0.811,1.143-1.598,2.398-1.839,3.561c-0.28,1.415-0.477,2.827-0.548,4.248c-0.125,2.841,0.127,5.718,0.659,8.571
						c0.492,2.86,1.192,5.699,1.938,8.533c1.557,5.683,3.002,11.397,4.436,17.125c-2.15-5.502-4.081-11.082-5.872-16.701
						c-0.923-2.817-1.707-5.69-2.296-8.625c-0.565-2.931-0.931-5.962-0.729-9.011c0.094-1.521,0.323-3.033,0.632-4.505
						c0.428-1.731,1.354-2.975,2.25-4.208c1.852-2.416,3.998-4.492,6.204-6.481C332.684,247.198,337.477,243.692,342.528,240.635z"
						/>
				</g>
				<path style="fill:#37474F;" d="M377.073,245.337c-0.728,0.495-3.944,2.743-4.788,3.34c-11.392,8.06-30.634,23.672-32.787,30.511
					c-1.339,4.234-6.404,16.566-9.183,32.571c0,0,0.355-10.605,0.751-20.996c0.553-14.533,3.187-18.625,7.901-23.994
					c4.554-5.165,28.788-19.961,30.476-20.95c-4.186-3.309-6.241-10.135-6.234-13.581
					C363.208,232.236,369.351,242.67,377.073,245.337z"/>
			</g>
			<g id="XMLID_5275_">
				<g>
					<path id="XMLID_5296_" style="fill:#263238;" d="M343.343,362.906c1.482-0.097,1.579,2.435,2.479,5.646
						c0.583,2.081,1.692,5.557,0.48,9.623c-1.213,4.066-7.626,4.899-10.776,10.299c-3.151,5.401-7.665,15.08-19.016,18.325
						c-11.351,3.246-20.389,0.051-22.779-3.23c-2.39-3.28-0.687-6.663,6.388-11.384c7.511-5.013,9.636-6.482,9.636-6.482
						L343.343,362.906z"/>
					<path id="XMLID_5277_" style="fill:#FFA8A7;" d="M327.946,343.797c0,0-2.852,12.742-5.74,20.043
						c-2.888,7.301-7.767,14.367-13.263,21.023c-1.196,1.449-3.936,4.155-4.915,5.327c-0.872,1.044-0.99,2.23,0.313,3.419
						c2.566,2.344,13.224,2.669,19.086-1.94s11.077-14.259,14.551-17.94c1.306-1.383,2.533-2.795,3.695-4.289
						c1.122-1.441,1.816-3.214,1.714-4.799c-0.199-3.069-0.232-4.175,0.291-6.874c0.73-3.763,1.513-5.236,2.602-8.91
						L327.946,343.797z"/>
				</g>
				<path id="XMLID_5276_" style="fill:#455A64;" d="M427.538,214.66c6.359,19.406,4.973,29.825,1.468,38.153
					c-2.921,6.94-8.41,14.143-24.213,21.763c-14.976,7.221-29.022,14.874-32.732,16.62c-3.71,1.746-4.932,5.877-6.66,13.233
					c-1.64,6.985-3.694,18.277-11.299,33.108c-8.033,15.665-10.209,20.294-10.209,20.294s-10.895,3.386-18.741-3.946
					c0,0,7.149-59.969,8.915-69.682c1.184-6.514,2.923-10.112,8.136-14.797c12.112-10.884,34.497-23.992,34.497-23.992
					s-1.672-19.788,2.198-30.693L427.538,214.66z"/>
				<path style="fill:#37474F;" d="M331.507,341.661c0.784-8.729,1.748-17.438,2.907-26.122c1.16-8.688,2.402-17.354,4.133-25.991
					c0.225-1.079,0.488-2.158,0.746-3.24l0.478-1.635l0.592-1.599c0.865-2.104,2.016-4.086,3.393-5.871
					c2.761-3.575,6.159-6.506,9.701-9.124c3.534-2.642,7.257-4.985,10.946-7.332c3.715-2.321,7.397-4.69,11.144-6.964
					c-3.517,2.614-7.098,5.135-10.647,7.703c-3.576,2.536-7.152,5.042-10.555,7.747c-3.382,2.714-6.638,5.611-9.161,9.038
					c-1.253,1.713-2.329,3.542-3.109,5.498l-0.538,1.483l-0.433,1.519c-0.241,1.049-0.49,2.1-0.705,3.164
					c-0.895,4.254-1.63,8.568-2.359,12.877l-2.161,12.943C334.476,324.395,333.023,333.03,331.507,341.661z"/>
			</g>
		</g>
		<g id="Top_8_">
			<g>
				<g>
					<path style="fill:#FFA8A7;" d="M280.463,122.164c1.181-0.317,2.451-0.138,3.6,0.281c1.869,0.681,3.419,1.94,5.15,2.882
						c2.636,1.434,6.876,3.785,9.928,3.65c0.622-0.028,1.902-0.276,1.058-1.048c-1.101-1.007-2.295-1.933-3.208-3.113
						c-0.913-1.18-1.53-2.693-1.253-4.159c0.083-0.442,0.264-0.891,0.625-1.16c0.512-0.38,0.864-0.139,1.266,0.164
						c0.423,0.319,0.902,0.565,1.366,0.828c0.958,0.542,1.915,1.087,2.865,1.643c5.545,3.246,11.091,7.042,14.369,12.729
						c0.476,0.826,3.341,7.322,5.189,10.988c1.508,3.341,12.911,24.276,12.911,24.276l20.334-19.821
						c4.551-4.551,9.098-8.771,13.135-10.321c2.896-1.112,6.896-2.596,6.896-2.596l-7.424,34.822c0,0-21.481,16.159-24.547,18.377
						c-4.553,3.295-13.643,8.631-18.156,3.056c-6.119-7.559-9.102-18.465-11.963-26.787c-2.861-8.322-4.388-13.373-6.027-16.243
						c-1.639-2.869-4.331-3.066-6.219-3.657c-3.452-1.08-4.31-1.487-7.462-3.258c-2.076-1.166-4.033-2.564-5.734-4.234
						c-0.713-0.7-1.906-1.684-2.217-2.659c-0.291-0.911-0.129-1.912-0.534-2.834c-0.455-1.035-1.385-1.827-1.723-2.906
						c-0.266-0.847-0.132-1.761-0.173-2.648c-0.065-1.411-0.929-2.228-1.909-3.128c-0.476-0.437-1.009-0.86-1.238-1.464
						C278.999,122.852,279.662,122.38,280.463,122.164z"/>
					<path style="fill:#BA68C8;" d="M325.648,153.381l-2.831-4.729c0,0-1.189,3.718-5.771,6.77
						c-4.582,3.051-7.676,1.941-7.676,1.941l1.668,5.692c0,0,3.458,1.286,8.934-2.329
						C325.449,157.11,325.648,153.381,325.648,153.381z"/>
					<path style="fill:#263238;" d="M378.825,134.938c-8.351,0.561-13.89,4.03-18.648,8.011
						c-4.749,3.973-25.602,23.536-25.602,23.536l-9.839-15.143c0,0-0.564,4.182-6.289,7.501c-6.037,3.499-8.217,2.31-8.217,2.31
						s4.483,17.997,9.413,26.851c4.93,8.854,7.743,11.735,15.796,8.103c8.053-3.632,35.534-24.127,35.534-24.127L378.825,134.938z"
						/>
					<path style="fill:#F28F8F;" d="M302.618,131.626c1.274,3.481,4.78,7.426,6.816,8.57c0,0-3.333-0.34-5.07-2.589
						C302.46,135.142,302.437,133.031,302.618,131.626z"/>
				</g>
				<path d="M334.576,166.485c3.446,5.968,4.519,13.636,3.805,17.558c2.5-6.316,2.677-12.951-1.576-19.646L334.576,166.485z"/>
			</g>
			<g id="Top_14_">
				<g>
					<path style="fill:#263238;" d="M402.222,73.501c5.11-2.727,11.519-2.756,15.935-0.609c6.93,3.368,8.321,7.169,9.182,15.211
						c1.293,12.074,2.237,15.706,3.758,18.413c1.652,2.941,4.052,4.259,6.148,4.894c-1.301,0.888-3.932,1.828-6.848,0.507
						c1.407,5.779,3.262,10.617,1.954,16.817c-0.881,4.177-2.895,8.942-5.988,12.016c-2.635,2.619-6.5,3.518-9.723,5.054
						c2.052-4.806,3.092-9.313,1.395-14.584c-1.872-5.815-5.97-10.685-7.908-16.544c-2.682-8.105-5.728-16.49-6.688-25.006
						C402.626,82.468,402.327,78.442,402.222,73.501z"/>
					<path style="fill:#BA68C8;" d="M401.086,73.002c0.73-1.265,5.439-2.009,9.147,0.424c3.708,2.433,6.766,6.678,4.214,10.213
						C412.052,86.956,396.161,77.927,401.086,73.002z"/>
				</g>
				<g>
					<g>
						<path style="fill:#37474F;" d="M415.903,137.832c7.005,2.751,7.732,2.978,7.732,2.978c1.452,3.817,7.932,14.324,6.224,24.582
							c-1.708,10.258-6.966,31.99-5.847,36.273c1.118,4.282,7.061,16.176,9.168,28.973c0,0-4.202,2.516-7.966,4.2
							c0,0-2.37-14.851-6.301-20.114c0.513,11.45,0,19.149,0,19.149s-16.372,6.515-36.049,0.866
							c-20.496-5.884-22.011-16.352-22.011-16.352s3.556-13.224,3.557-19.958c0-6.734-1.224-17.633-1.224-17.633
							s-8.805-8.632-5.841-18.28c2.805-9.133,18.232-24.436,21.483-27.577c5.752,0,9.055-0.723,9.055-0.723L415.903,137.832z"/>
						<path style="fill:#BA68C8;" d="M408.819,137.223c-1,5-3,6.223-8.667,12.445c-5.667,6.222-23.416,23.176-25.043,30.533
							c-1.069-6.31-2.514-14.764-0.847-22.148c1.667-7.385,5.705-17.189,12.069-22.182l21.929-0.932L408.819,137.223z"/>
					</g>
					<g id="Head_7_">
						<g id="Head_1_">
							<path style="fill:#263238;" d="M370.17,99.365c-5.297-19.534,12.708-29.524,30.627-26.374
								c5.901,1.037,13.519,4.412,14.335,12.823c7.795,2.445,11.546,12.88,6.731,24.02c-3.493,8.082-10.47,12.11-13.634,17.072
								L370.17,99.365z"/>
							<path style="fill:#FFA8A7;" d="M415.489,102.159c-5.009-2.187-7.531,3.057-7.531,3.057c-3.257,2.031-5.133-4.501-5.848-6.469
								c-1.248-3.438-2.429-8.334-6.237-9.759c-2.83-1.059-6.027-0.007-8.619,1.545c-1.579,0.946-3.408,1.173-5.183,0.689
								c-1.548-0.422-2.038-2.847-3.451-3.606c-4.071-2.185-7.229,4.512-7.788,7.725c-0.842,4.843-1.022,8.962-0.94,12.983
								c0.297,14.555,5.178,20.473,7.646,21.806c2.468,1.333,5.52,1.693,10.388,1.292l-0.071,4.297c0,0-2.966,5.742-3.494,14.977
								c10.72-3.533,17.195-8.377,23.902-14.774l-0.029-19.526c0.918,1.906,5.234,2.811,7.905-0.609
								C419.599,111.356,420.292,104.256,415.489,102.159z"/>
							<g id="XMLID_302_">
								<path id="XMLID_305_" style="fill:#B16668;" d="M389.755,117.835l-6.798,2.103c0.546,1.944,2.51,3.05,4.386,2.47
									C389.222,121.827,390.301,119.781,389.755,117.835z"/>
								<path style="fill:#F28F8F;" d="M389.31,119.399c-1.897-0.063-3.523,1.235-3.94,3.016c0.624,0.185,1.303,0.2,1.974-0.007
									c1.348-0.416,2.271-1.591,2.491-2.939C389.662,119.44,389.491,119.405,389.31,119.399z"/>
							</g>
							<g id="XMLID_293_">
								<path id="XMLID_5320_" style="fill:#F28F8F;" d="M387.925,131.423c4.715-0.725,13.327-3.027,14.758-6.906
									c0,0,0.215,3.152-3.433,5.93c-3.046,2.319-11.37,3.769-11.37,3.769L387.925,131.423z"/>
							</g>
						</g>
						<g>
							<path id="XMLID_5362_" style="fill:#263238;" d="M372.613,96.134l4.848,1.445c0.453-1.334-0.266-2.739-1.605-3.138
								C374.518,94.043,373.066,94.801,372.613,96.134z"/>
							<path id="XMLID_5360_" style="fill:#263238;" d="M394.419,98.985l-4.439-2.425c0.629-1.261,2.132-1.74,3.358-1.07
								C394.563,96.159,395.048,97.724,394.419,98.985z"/>
							<path id="XMLID_5358_" style="fill:#263238;" d="M373.477,104.877c-0.093,1.175,0.75,2.197,1.882,2.284
								c1.132,0.085,2.123-0.798,2.215-1.973c0.093-1.176-0.749-2.198-1.88-2.283C374.562,102.819,373.569,103.702,373.477,104.877z
								"/>
							<path id="XMLID_5356_" style="fill:#263238;" d="M388.983,106.035c-0.093,1.175,0.75,2.197,1.881,2.284
								c1.132,0.085,2.123-0.798,2.215-1.973c0.093-1.176-0.75-2.198-1.881-2.283C390.067,103.977,389.075,104.86,388.983,106.035z"
								/>
						</g>
						<g>
							<path style="fill:#37474F;" d="M364.48,100.002c0.081,0.915,0.676,1.794,0.98,2.165c0.161,0.196,0.309,0.45,0.392,0.774
								c0.373,1.461,0.714,4.21,1.423,5.782c0.711,1.571,2.183,4.08,6.216,4.391c0.785,0.062,1.478,0.036,2.091-0.063
								c0.053-0.007,0.107-0.017,0.157-0.026c0.65-0.116,1.208-0.316,1.692-0.577c0.034-0.019,0.068-0.037,0.1-0.058
								c0.05-0.026,0.097-0.053,0.144-0.084c0.042-0.025,0.084-0.052,0.181-0.116c0.058-0.038,0.112-0.076,0.167-0.118
								c0.063-0.045,0.123-0.092,0.182-0.141c0.06-0.047,0.117-0.094,0.174-0.147c0.114-0.1,0.22-0.205,0.323-0.316
								c0.586-0.614,1.005-1.35,1.333-2.096c0.856-1.948,0.582-4.754,2.037-4.997c0.054-0.009,0.114-0.015,0.175-0.016
								c0.06-0.004,0.123-0.001,0.189,0.003c1.986,0.136,1.813,3.167,2.957,5.398c1.142,2.235,3.012,4.455,7.318,4.749
								c0.192,0.014,0.379,0.02,0.557,0.026c0.152,0.001,0.301,0.001,0.443-0.006c0.37-0.007,0.716-0.04,1.034-0.091
								c0.111-0.019,0.219-0.036,0.325-0.058c0.105-0.021,0.21-0.048,0.31-0.072c0.065-0.014,0.131-0.033,0.196-0.052
								c0.437-0.129,0.818-0.291,1.158-0.484c0.135-0.078,0.261-0.158,0.387-0.242c0.243-0.168,0.457-0.348,0.665-0.554
								c0.635-0.636,1.014-1.357,1.273-1.947c0.645-1.471,0.778-4.194,1.088-5.598c0.083-0.373,0.196-0.629,0.316-0.805
								c0.272-0.397,0.926-1.076,0.938-1.988c0.011-0.911-0.644-1.741-1.227-1.857c-0.338-0.067-0.693-0.133-1.058-0.198
								c-3.404-0.595-7.838-1.017-10.477-0.443c-3.309,0.728-4.445,1.728-6.298,1.602c-1.734-0.135-2.875-1.299-6.04-2.497
								c-2.524-0.952-6.665-1.152-9.824-1.035c-0.338,0.012-0.665,0.029-0.978,0.049C364.961,98.298,364.4,99.087,364.48,100.002z
								 M386.373,103.264c0.172-0.249,0.498-0.497,0.934-0.72c0.054-0.032,0.11-0.059,0.169-0.086
								c0.031-0.016,0.062-0.03,0.093-0.044c0.147-0.068,0.301-0.135,0.466-0.196c0.136-0.053,0.28-0.104,0.43-0.154
								c0.433-0.145,0.913-0.27,1.411-0.369c0.185-0.037,0.373-0.071,0.563-0.101c0.479-0.078,0.967-0.127,1.456-0.15
								c0.118-0.006,0.232-0.012,0.341-0.009c3.196-0.087,5.204,0.775,5.941,1.47c0.763,0.721,0.469,3.655,0.188,5.138
								c-0.007,0.037-0.014,0.073-0.021,0.11c-0.007,0.037-0.014,0.076-0.021,0.115c-0.034,0.179-0.075,0.383-0.127,0.598
								c-0.03,0.119-0.063,0.243-0.098,0.37c-0.003,0.006-0.002,0.011-0.005,0.015c-0.055,0.199-0.123,0.404-0.204,0.615l0,0.003
								c-0.026,0.068-0.055,0.14-0.085,0.209c-0.015,0.041-0.034,0.082-0.055,0.125c-0.018,0.047-0.04,0.092-0.064,0.139
								c-0.026,0.058-0.056,0.117-0.085,0.174c-0.032,0.065-0.067,0.129-0.105,0.193c-0.038,0.068-0.078,0.135-0.124,0.204
								c-0.041,0.067-0.087,0.136-0.136,0.205c-0.776,1.104-2.105,1.998-4.439,1.864c-2.31-0.13-3.794-1.003-4.753-2.055
								l-0.003-0.001c-0.95-1.048-1.384-2.271-1.596-3.113C386.021,106.11,385.763,104.142,386.373,103.264z M367.529,100.679
								c0.173-0.159,0.431-0.317,0.774-0.452c0.021-0.01,0.04-0.016,0.061-0.023c0.106-0.043,0.219-0.081,0.344-0.117
								c0.066-0.019,0.138-0.04,0.21-0.056c0.056-0.013,0.117-0.03,0.175-0.04c0.04-0.011,0.08-0.017,0.117-0.024
								c0.016-0.005,0.032-0.008,0.045-0.009c0.056-0.011,0.115-0.021,0.173-0.031c0.227-0.038,0.472-0.065,0.734-0.081
								c0.128-0.01,0.262-0.017,0.399-0.017c0.078-0.004,0.158-0.003,0.241-0.004c0.062-0.001,0.123,0.001,0.185,0.002
								c0.164,0.005,0.335,0.01,0.51,0.023c0.062,0.004,0.124,0.008,0.188,0.013c0.057,0.004,0.115,0.009,0.175,0.014
								c0.457,0.043,0.95,0.114,1.478,0.219c2.287,0.453,4.686,1.639,5.322,2.609c0.636,0.97,0.527,2.909,0.255,4.562
								c-0.055,0.326-0.138,0.705-0.271,1.102c-0.007,0.027-0.019,0.056-0.029,0.086c-0.012,0.036-0.024,0.073-0.039,0.111
								c-0.01,0.025-0.017,0.049-0.027,0.074c-0.017,0.044-0.034,0.088-0.054,0.131c-0.037,0.092-0.076,0.18-0.119,0.27
								c-0.035,0.076-0.075,0.154-0.115,0.229c-0.015,0.028-0.03,0.055-0.045,0.081c-0.028,0.049-0.058,0.102-0.091,0.154
								c-0.025,0.043-0.053,0.087-0.084,0.132c-0.002,0.006-0.008,0.014-0.012,0.021c-0.775,1.172-2.176,2.143-4.717,1.91
								c-0.957-0.083-1.752-0.34-2.403-0.704c-2.285-1.274-2.905-3.852-3.192-5.046
								C367.352,104.287,366.862,101.294,367.529,100.679z"/>
							<path style="fill:#37474F;" d="M400.344,101.053l9.705,1.654c-0.62,0.497-1.371,1.273-1.887,2.139l-7.867-1.34
								L400.344,101.053z"/>
						</g>
						<g id="XMLID_5351_">
							<path id="XMLID_5352_" style="fill:#F28F8F;" d="M383.257,104.649l-1.291,11.852l-6.972-2.449l7.571-9.675
								C382.838,104.429,383.087,104.511,383.257,104.649z"/>
						</g>
						<path style="fill:#FAFAFA;" d="M410.218,114.018c0,1.02,0.827,1.847,1.847,1.847c1.02,0,1.846-0.827,1.846-1.847
							c0-1.02-0.827-1.847-1.846-1.847C411.044,112.171,410.218,112.998,410.218,114.018z"/>
					</g>
					<g>
						<path style="fill:#263238;" d="M408.257,132.704l0.004,2.234c0,0-5.687,8.129-12.978,16.167
							c-8.607,9.488-15.949,16.709-18.591,23.286c-2.642,6.577-3.668,14.749-3.668,14.749s2.293-10.488,12.762-18.876
							c6.235-4.995,16.305-8.826,18.207-12.006c1.787-2.988-1.813-7.153-1.813-7.153s6.13-1.959,9.886-4.672
							c3.755-2.714,3.839-8.6,3.839-8.6L408.257,132.704z"/>
						<path style="fill:#263238;" d="M387.854,135.72c-3.494,3.328-8.979,11.104-10.571,19.552
							c-1.591,8.448-2.289,27.671-2.289,27.671s-2.241-12.978-3.466-18.488c-1.224-5.51-1.848-9.76,4.163-15.427
							c-1.481-2.565-1.742-3.532,1.394-7.276c3.136-3.744,5.852-5.445,5.852-5.445l4.916-3.146V135.72z"/>
					</g>
				</g>
			</g>
			<g>
				<path id="XMLID_312_" style="fill:#FFA8A7;" d="M375.373,208.194c-3.357-0.344-6.582-3.436-10.893-5.078
					c-4.336-1.652-8.006-1.685-10.961-2.89c-1.223,0.698-0.59,3.27,0.866,4.385c2.251,1.725,5.694,2.81,4.877,3.725
					c-1.215,1.361-5.862,0.427-7.274,0.135c-4.346-0.9-8.961-3.508-13.498-2.546c-0.473,0.1-0.974,0.272-1.241,0.675
					c-0.374,0.565-0.119,1.359,0.35,1.848c0.469,0.489,1.107,0.772,1.671,1.147c0.565,0.374,1.098,0.914,1.15,1.589
					c0.047,0.617-0.32,1.217-0.242,1.831c0.05,0.395,0.278,0.743,0.526,1.054c0.457,0.574,1.003,1.077,1.613,1.487
					c0.501,0.336,1.048,0.612,1.491,1.022c0.78,0.72,2.083,1.694,2.637,2.599c2.375,3.876,7.479,5.041,11.615,5.759
					c8.846,1.535,12.913-0.326,18.134-0.226c5.221,0.1,27.435-0.577,38.844-1.395c11.956-0.857,13.403-3.078,16.772-14.486
					c3.822-12.941,7.72-31.337,8.953-40.712c1.884-14.322-4.665-22.089-15.132-26.189c-2.479,2.191-7.941,12.519-10.337,31.5
					l-5.116,28.628C410.178,202.054,378.73,208.539,375.373,208.194z"/>
				<path style="fill:#BA68C8;" d="M383.804,206.767l-5.535,1.208c0,0,0.884,3.72,1.004,8.603c0.12,4.882-0.803,8.138-0.803,8.138
					l6.744,0.192C385.214,224.907,389.016,214.407,383.804,206.767z"/>
				<path style="fill:#263238;" d="M423.635,140.81c6.434,2.269,11.162,4.723,14.442,9.886c3.28,5.163,3.891,11.578,2.538,22.272
					s-7.969,36.684-9.832,42.622c-1.863,5.939-2.961,7.28-9.303,8.378c-6.342,1.098-38.786,1.401-38.786,1.401
					s1.22-3.475,0.732-9.695c-0.488-6.22-1.691-8.909-1.691-8.909l28.049-5.094c0,0,4.445-26.762,6.036-35.164
					C417.411,158.106,418.806,150.697,423.635,140.81z"/>
				<path d="M409.783,201.672c3.87-0.422,10.362,2.175,12.279,5.762c-0.804-3.772-4.806-7.919-11.884-7.891L409.783,201.672z"/>
			</g>
		</g>
	</g>
</g>
<g id="Character_1">
	<g id="Character_24_">
		<g id="Chair_2_">
			<g>
				<g>
					<path style="fill:#263238;" d="M191.977,362.659l-8.635-93.416l-8.012-0.406l12.612,93.81h0.009
						c0.038,0.254,0.21,0.508,0.534,0.718c0.765,0.495,2.044,0.56,2.856,0.145c0.431-0.221,0.637-0.533,0.627-0.851H191.977z"/>
					<path style="fill:#263238;" d="M183.342,269.243l-8.012-0.406l2.357,15.515c1.923-0.723,2.674-1.071,4.744-2.183
						c1.102-0.591,2.03-1.411,2.118-1.811L183.342,269.243z"/>
				</g>
				<g>
					<path style="fill:#37474F;" d="M76.863,257.244H68.84L55.996,346.1l0.009,0.001c-0.026,0.317,0.163,0.639,0.583,0.882
						c0.789,0.456,2.07,0.456,2.859,0c0.334-0.193,0.518-0.438,0.57-0.69l0.009,0.001L76.863,257.244z"/>
					<path style="fill:#263238;" d="M68.84,257.244l-3.119,21.577c1.454,1.26,4.519,3.039,6.33,3.874l4.812-25.451H68.84z"/>
				</g>
				<g>
					<path style="fill:#37474F;" d="M138.37,390.089l-6.371-94.794l-8.013-0.406l10.349,95.188h0.009
						c0.038,0.254,0.209,0.508,0.534,0.718c0.766,0.495,2.044,0.56,2.856,0.145c0.431-0.221,0.637-0.533,0.627-0.851H138.37z"/>
					<path style="fill:#263238;" d="M132.805,307.286l-0.806-11.991l-8.013-0.406l1.406,12.937
						C127.179,308.37,130.471,308.038,132.805,307.286z"/>
				</g>
				<g>
					<path style="fill:#263238;" d="M120.652,231.783h-8.023l-12.844,90.598l0.009,0c-0.026,0.317,0.163,0.639,0.583,0.882
						c0.79,0.456,2.07,0.456,2.86,0c0.335-0.193,0.519-0.438,0.57-0.69l0.009,0.001L120.652,231.783z"/>
				</g>
			</g>
			<g id="Chair_3_">
				<path style="fill:#BA68C8;" d="M53.765,168.622c-1.606,3.748-2.713,8.339-3.203,14.084c-0.916,10.799,2.738,45.766,4.935,61.401
					l-0.009-0.009c3.176,26.126,7.069,26.171,12.732,30.545c9.737,7.523,37.741,22.269,46.988,25.908
					c16.761,6.597,30.463-3.575,40.681-8.621c10.209-5.037,22.759-12.904,27.061-16.026c2.55-1.86,3.875-3.739,3.847-5.717
					c-0.009-0.78,0.009-3.993,0.009-4.818c-0.009-2.523-2.223-5.227-6.915-8.267c-8.657-5.617-39.946-23.866-52.07-30.581
					c-0.018-0.091-0.1-0.1-0.1-0.1c-9.329-5.662-14.944-44.159-21.405-64.64c-0.136-0.436-0.272-0.862-0.417-1.27
					c-0.109-0.327-0.227-0.645-0.336-0.953c-0.408-1.116-0.826-2.132-1.271-3.067"/>
				<path style="fill:#BA68C8;" d="M186.805,265.368c-0.009-2.522-2.223-5.227-6.915-8.267
					c-8.657-5.617-39.946-23.866-52.069-30.581c-0.018-0.091-0.1-0.1-0.1-0.1c-9.329-5.662-14.943-44.159-21.405-64.64
					c-0.06-0.192-0.516-1.765-1.353-3.768c-0.039-0.093-0.079-0.18-0.118-0.273c-0.116-0.272-0.239-0.55-0.369-0.834
					c-0.062-0.136-0.121-0.283-0.184-0.416l-0.008,0.002c-1.045-2.204-2.484-4.617-4.312-6.227c-0.154-0.136-0.883-0.85-2.113-1.486
					c-1.05-0.592-3.252-1.818-3.803-2.141c-6.338-3.792-14.649,0.758-25.008,6.431c-6.441,3.532-11.938,7.73-15.283,15.553l-0.001,0
					c-1.606,3.748-2.713,8.339-3.203,14.084c-0.917,10.799,2.738,45.766,4.935,61.401l-0.009-0.009
					c3.176,26.126,7.069,26.171,12.732,30.545c9.737,7.523,37.741,22.269,46.988,25.908c16.761,6.597,30.463-3.575,40.681-8.621
					c10.209-5.037,22.759-12.904,27.06-16.026c2.55-1.86,3.875-3.739,3.848-5.717C186.787,269.407,186.805,266.194,186.805,265.368z
					"/>
				<path style="opacity:0.25;fill:#FFFFFF;" d="M186.805,265.368c-0.009-2.522-2.223-5.227-6.915-8.267
					c-8.657-5.617-39.946-23.866-52.069-30.581c-0.018-0.091-0.1-0.1-0.1-0.1c-9.329-5.662-14.943-44.159-21.405-64.64
					c-0.06-0.192-0.516-1.765-1.353-3.768c-0.039-0.093-0.079-0.18-0.118-0.273c-0.116-0.272-0.239-0.55-0.369-0.834
					c-0.062-0.136-0.121-0.283-0.184-0.416l-0.008,0.002c-1.045-2.204-2.484-4.617-4.312-6.227c-0.154-0.136-0.883-0.85-2.113-1.486
					c-1.05-0.592-3.252-1.818-3.803-2.141c-6.338-3.792-14.649,0.758-25.008,6.431c-6.441,3.532-11.938,7.73-15.283,15.553l-0.001,0
					c-1.606,3.748-2.713,8.339-3.203,14.084c-0.917,10.799,2.738,45.766,4.935,61.401l-0.009-0.009
					c3.176,26.126,7.069,26.171,12.732,30.545c9.737,7.523,37.741,22.269,46.988,25.908c16.761,6.597,30.463-3.575,40.681-8.621
					c10.209-5.037,22.759-12.904,27.06-16.026c2.55-1.86,3.875-3.739,3.848-5.717C186.787,269.407,186.805,266.194,186.805,265.368z
					"/>
				<g id="XMLID_426_">
					<path id="XMLID_435_" style="fill:#BA68C8;" d="M155.884,287.073c10.212-5.043,22.764-12.911,27.062-16.032
						c5.81-4.219,5.276-8.536-3.052-13.938c-11.569-7.505-58.727-34.265-58.727-34.265s-59.62,35.184-57.055,41.681
						c2.565,6.497,39.467,26.598,51.092,31.171C131.971,302.286,145.672,292.116,155.884,287.073z"/>
					<path id="XMLID_430_" style="opacity:0.6;fill:#FFFFFF;" d="M155.884,287.073c10.212-5.043,22.764-12.911,27.062-16.032
						c5.81-4.219,5.276-8.536-3.052-13.938c-11.569-7.505-58.727-34.265-58.727-34.265s-59.62,35.184-57.055,41.681
						c2.565,6.497,39.467,26.598,51.092,31.171C131.971,302.286,145.672,292.116,155.884,287.073z"/>
				</g>
				<path id="XMLID_425_" style="fill:#BA68C8;" d="M97.86,148.779c-6.276-3.294-14.431,1.184-24.52,6.712
					c-6.462,3.543-11.969,7.74-15.314,15.595l-4.259-2.462c3.345-7.823,8.841-12.021,15.283-15.553
					c10.358-5.673,18.67-10.223,25.007-6.431C94.608,146.96,96.81,148.186,97.86,148.779z"/>
				<path id="XMLID_417_" style="opacity:0.5;fill:#FFFFFF;" d="M97.86,148.779c-6.276-3.294-14.431,1.184-24.52,6.712
					c-6.462,3.543-11.969,7.74-15.314,15.595l-4.259-2.462c3.345-7.823,8.841-12.021,15.283-15.553
					c10.358-5.673,18.67-10.223,25.007-6.431C94.608,146.96,96.81,148.186,97.86,148.779z"/>
				<g id="XMLID_414_">
					<path style="fill:#BA68C8;" d="M106.316,161.78c-0.136-0.436-2.295-7.95-6.343-11.516c-0.299-0.263-2.763-2.614-6.86-2.614
						c-5.481,0-12.06,3.621-19.773,7.84c-0.644,0.354-1.28,0.717-1.906,1.089c-0.245,0.136-0.481,0.281-0.717,0.426
						c-0.29,0.172-0.572,0.354-0.853,0.535c-0.209,0.127-0.417,0.263-0.626,0.408c-1.361,0.898-2.659,1.878-3.884,2.949
						c-0.2,0.172-0.39,0.345-0.581,0.535c-0.771,0.708-1.506,1.47-2.205,2.287c-0.127,0.145-0.254,0.29-0.372,0.436
						c-0.145,0.182-0.299,0.363-0.435,0.544c-0.145,0.182-0.282,0.372-0.427,0.563c-0.136,0.182-0.272,0.372-0.408,0.572
						c-0.545,0.78-1.062,1.597-1.543,2.468c-0.063,0.109-0.127,0.218-0.181,0.326c-0.127,0.227-0.245,0.463-0.363,0.699
						c-0.172,0.345-0.336,0.69-0.499,1.034c-1.76,3.875-2.977,8.666-3.494,14.764c-1.498,17.741,4.58,76.365,10.678,81.42
						c0,0-0.934-5.735,11.334-13.458c8.34-5.245,14.193-9.655,23.095-14.02c21.688-10.653,27.768-12.65,27.768-12.65
						C118.392,220.758,112.777,182.261,106.316,161.78z"/>
					<path style="opacity:0.4;fill:#FFFFFF;" d="M106.316,161.78c-0.136-0.436-2.295-7.95-6.343-11.516
						c-0.299-0.263-2.763-2.614-6.86-2.614c-5.481,0-12.06,3.621-19.773,7.84c-0.644,0.354-1.28,0.717-1.906,1.089
						c-0.245,0.136-0.481,0.281-0.717,0.426c-0.29,0.172-0.572,0.354-0.853,0.535c-0.209,0.127-0.417,0.263-0.626,0.408
						c-1.361,0.898-2.659,1.878-3.884,2.949c-0.2,0.172-0.39,0.345-0.581,0.535c-0.771,0.708-1.506,1.47-2.205,2.287
						c-0.127,0.145-0.254,0.29-0.372,0.436c-0.145,0.182-0.299,0.363-0.435,0.544c-0.145,0.182-0.282,0.372-0.427,0.563
						c-0.136,0.182-0.272,0.372-0.408,0.572c-0.545,0.78-1.062,1.597-1.543,2.468c-0.063,0.109-0.127,0.218-0.181,0.326
						c-0.127,0.227-0.245,0.463-0.363,0.699c-0.172,0.345-0.336,0.69-0.499,1.034c-1.76,3.875-2.977,8.666-3.494,14.764
						c-1.498,17.741,4.58,76.365,10.678,81.42c0,0-0.934-5.735,11.334-13.458c8.34-5.245,14.193-9.655,23.095-14.02
						c21.688-10.653,27.768-12.65,27.768-12.65C118.392,220.758,112.777,182.261,106.316,161.78z"/>
				</g>
			</g>
		</g>
		<g id="Bottom_12_">
			<g>
				<polygon points="141.734,347.584 149.11,349.026 149.653,343.767 143.854,344.921 				"/>
				<path style="fill:#263238;" d="M142.209,332.966c0,0-2.642,3.75-3.454,4.945c-0.811,1.195,2.068,8.241,2.979,9.673l2.119-2.664
					c0.424,1.815,0.217,3.657,0.129,6.502c-0.074,2.372-0.832,6.477,0.545,10.443c2.045,5.888,7.404,11.543,13.795,15.815
					c6.391,4.271,11.125,4.975,13.858,4.704c2.733-0.271,4.346-1.566,4.906-3.513C177.648,376.924,142.209,332.966,142.209,332.966z
					"/>
				<g id="XMLID_530_">
					<path id="XMLID_538_" style="fill:#37474F;" d="M167.903,330.457l1.475-2.213c1.227,0.708-0.648,4.072-0.663,8.03
						c-0.02,5.322,0.472,12.308,1.942,17.443c2.902,10.131,6.477,17.575,7.757,22.121c1.714,6.081-8.809,7.574-19.111,0.393
						c-5.113-3.565-12.879-12.032-13.591-16.794c-0.712-4.761,0.673-10.641-0.041-14.221c-0.714-3.58-3.845-8.675-3.461-12.249
						c0.211-1.963,2.776-5.266,5.065-8.007c2.101-2.514,4.793-6.695,6.137-5.392l-0.766,1.488c-0.109,1.6,0.135,4.501,3.961,7.856
						C158.518,330.587,164.76,334.702,167.903,330.457z"/>
					<path style="opacity:0.15;" d="M159.967,331.139c2.146,1.082,4.757,1.76,6.745,0.45c0.024-0.016,0.05-0.021,0.073-0.037
						c0,0-1.835,1.786-1.305,5.196c0.53,3.41,2.87,26.591,2.87,26.591s-3.206-19.909-3.849-23.682
						c-0.951-5.579-1.7-6.624-4.549-8.52C159.958,331.138,159.962,331.139,159.967,331.139z"/>
				</g>
				<g>
					<path style="opacity:0.15;" d="M160.056,336.955c-0.261,0.334-0.743,0.393-1.076,0.132c-0.334-0.261-0.393-0.743-0.132-1.076
						c0.26-0.334,0.742-0.393,1.076-0.132C160.257,336.14,160.317,336.622,160.056,336.955z"/>
					<path style="opacity:0.15;" d="M161.057,342.379c-0.26,0.334-0.743,0.393-1.076,0.132c-0.334-0.261-0.393-0.743-0.132-1.076
						c0.261-0.334,0.742-0.393,1.076-0.132C161.259,341.564,161.318,342.046,161.057,342.379z"/>
					<path style="opacity:0.15;" d="M162.059,347.803c-0.26,0.334-0.742,0.393-1.076,0.132c-0.334-0.26-0.393-0.742-0.132-1.076
						c0.261-0.334,0.742-0.393,1.076-0.132C162.26,346.988,162.32,347.47,162.059,347.803z"/>
					<path style="opacity:0.15;" d="M163.06,353.228c-0.261,0.333-0.743,0.393-1.076,0.132c-0.333-0.26-0.393-0.742-0.132-1.076
						c0.261-0.333,0.743-0.393,1.077-0.132C163.262,352.412,163.321,352.893,163.06,353.228z"/>
					<path style="opacity:0.15;" d="M164.062,358.651c-0.261,0.334-0.743,0.393-1.076,0.132c-0.333-0.26-0.393-0.742-0.132-1.076
						c0.26-0.334,0.742-0.393,1.076-0.132C164.263,357.836,164.322,358.318,164.062,358.651z"/>
				</g>
				<g>
					<path style="fill:#263238;" d="M159.269,336.732c-0.058-0.043-0.102-0.106-0.118-0.181c-0.038-0.167,0.066-0.332,0.233-0.369
						c0.212-0.048,5.219-1.139,9.179,1.633c0.001,0,0.003,0.002,0.005,0.003c0.135,0.099,0.167,0.288,0.07,0.426
						c-0.098,0.139-0.29,0.173-0.43,0.075c-3.738-2.615-8.639-1.547-8.688-1.536C159.429,336.804,159.338,336.783,159.269,336.732z"
						/>
				</g>
				<g>
					<path style="fill:#263238;" d="M160.28,342.145c-0.058-0.043-0.102-0.106-0.118-0.181c-0.038-0.167,0.066-0.332,0.232-0.369
						c0.212-0.048,5.218-1.14,9.179,1.633c0.001,0.001,0.003,0.002,0.005,0.003c0.135,0.099,0.167,0.288,0.07,0.426
						c-0.097,0.139-0.29,0.173-0.43,0.075c-3.731-2.612-8.639-1.547-8.688-1.536C160.439,342.217,160.349,342.196,160.28,342.145z"
						/>
				</g>
				<g>
					<path style="fill:#263238;" d="M161.272,347.58c-0.058-0.043-0.101-0.106-0.118-0.181c-0.038-0.167,0.067-0.332,0.233-0.369
						c0.212-0.048,5.218-1.139,9.179,1.633c0.001,0,0.003,0.002,0.005,0.003c0.135,0.099,0.167,0.288,0.07,0.426
						c-0.097,0.139-0.289,0.174-0.43,0.075c-3.731-2.611-8.639-1.547-8.688-1.536C161.432,347.652,161.342,347.631,161.272,347.58z"
						/>
				</g>
				<g>
					<path style="fill:#263238;" d="M162.273,353.004c-0.058-0.043-0.102-0.106-0.119-0.181c-0.038-0.167,0.066-0.331,0.233-0.369
						c0.212-0.048,5.219-1.141,9.179,1.632c0.001,0,0.003,0.002,0.005,0.003c0.135,0.099,0.167,0.288,0.07,0.426
						c-0.098,0.139-0.29,0.173-0.43,0.075c-3.732-2.612-8.64-1.546-8.688-1.535C162.433,353.076,162.342,353.055,162.273,353.004z"
						/>
				</g>
				<g>
					<path style="fill:#263238;" d="M163.276,358.428c-0.058-0.043-0.102-0.106-0.118-0.181c-0.038-0.167,0.067-0.332,0.233-0.369
						c0.212-0.048,5.218-1.14,9.179,1.633c0.001,0.001,0.003,0.002,0.005,0.004c0.135,0.099,0.167,0.288,0.07,0.426
						c-0.098,0.139-0.29,0.173-0.43,0.075c-3.732-2.612-8.639-1.547-8.688-1.536C163.435,358.5,163.345,358.479,163.276,358.428z"/>
				</g>
			</g>
			<g>
				<g>
					<polygon points="177.46,399.659 184.559,396.424 181.842,391.654 177.641,396.13 					"/>
					<path style="fill:#263238;" d="M169.035,387.027c0,0,0.033,4.763,0.07,6.261c0.037,1.499,6.722,5.711,8.355,6.37l0.181-3.529
						c1.454,1.276,2.391,2.957,4.034,5.413c1.37,2.048,3.208,5.972,6.766,8.49c5.282,3.738,13.222,5.278,21.198,5.026
						c7.976-0.251,12.399-2.516,14.544-4.395c2.145-1.879,2.724-3.946,2.022-5.929C225.502,402.753,169.035,387.027,169.035,387.027
						z"/>
					<g id="XMLID_516_">
						<path id="XMLID_526_" style="fill:#37474F;" d="M189.218,369.395l-0.091-2.759c1.463-0.143,1.911,3.83,4.288,7.181
							c3.197,4.506,7.829,10.109,12.171,13.558c8.568,6.804,16.081,10.93,19.906,13.997c5.118,4.101-2.867,11.715-15.902,11.87
							c-6.47,0.076-18.14-2.386-21.616-5.977c-3.475-3.591-5.857-9.392-8.621-11.985c-2.764-2.592-8.485-5.004-10.319-8.254
							c-1.007-1.786-0.835-6.124-0.556-9.82c0.256-3.391,0.006-8.547,1.927-8.259l0.252,1.719c0.874,1.417,2.831,3.719,8.089,4.243
							C181.372,375.172,189.128,374.878,189.218,369.395z"/>
						<path style="fill:#263238;" d="M182.928,374.763c2.466-0.382,5.08-1.385,5.967-3.692c0.011-0.027,0.03-0.047,0.04-0.075
							c0,0-0.471,2.616,2.035,5.176c2.506,2.559,18.479,20.723,18.479,20.723s-14.727-14.877-17.548-17.676
							c-4.171-4.137-5.434-4.567-8.985-4.449C182.92,374.768,182.924,374.766,182.928,374.763z"/>
					</g>
					<g>
						<path style="opacity:0.15;" d="M186.515,379.621c-0.019,0.439-0.39,0.78-0.829,0.762c-0.439-0.019-0.78-0.39-0.761-0.829
							c0.019-0.439,0.39-0.78,0.829-0.762C186.193,378.811,186.534,379.182,186.515,379.621z"/>
						<path style="opacity:0.15;" d="M190.635,383.597c-0.018,0.439-0.39,0.78-0.829,0.761c-0.439-0.019-0.78-0.39-0.761-0.829
							c0.019-0.439,0.39-0.78,0.829-0.762C190.313,382.786,190.654,383.158,190.635,383.597z"/>
						<path style="opacity:0.15;" d="M194.756,387.573c-0.019,0.439-0.39,0.78-0.829,0.761c-0.439-0.019-0.78-0.39-0.761-0.829
							c0.019-0.439,0.39-0.78,0.829-0.761C194.434,386.762,194.775,387.133,194.756,387.573z"/>
						<path style="opacity:0.15;" d="M198.877,391.549c-0.019,0.439-0.39,0.78-0.829,0.761c-0.439-0.018-0.78-0.39-0.761-0.829
							c0.019-0.439,0.39-0.78,0.829-0.762C198.554,390.738,198.895,391.109,198.877,391.549z"/>
						<path style="opacity:0.15;" d="M202.997,395.524c-0.019,0.439-0.39,0.78-0.829,0.761c-0.439-0.019-0.78-0.39-0.761-0.829
							c0.019-0.439,0.39-0.78,0.829-0.761C202.674,394.714,203.016,395.085,202.997,395.524z"/>
					</g>
					<g>
						<path style="fill:#263238;" d="M185.716,379.908c-0.075-0.001-0.15-0.028-0.209-0.081c-0.133-0.118-0.144-0.321-0.026-0.452
							c0.149-0.169,3.72-4.112,8.737-4.163c0.001,0,0.004,0,0.006,0c0.174,0.002,0.315,0.142,0.317,0.318
							c0.002,0.176-0.14,0.321-0.318,0.323c-4.736,0.049-8.229,3.91-8.264,3.948C185.894,379.872,185.805,379.909,185.716,379.908z"
							/>
					</g>
					<g>
						<path style="fill:#263238;" d="M189.837,383.869c-0.075-0.001-0.15-0.028-0.209-0.081c-0.133-0.118-0.144-0.321-0.026-0.452
							c0.15-0.169,3.718-4.113,8.737-4.163c0.001,0,0.004,0,0.006,0c0.174,0.002,0.315,0.143,0.317,0.318
							c0.002,0.176-0.14,0.321-0.318,0.323c-4.728,0.047-8.229,3.91-8.264,3.948C190.016,383.833,189.926,383.87,189.837,383.869z"
							/>
					</g>
					<g>
						<path style="fill:#263238;" d="M193.957,387.859c-0.075-0.001-0.15-0.028-0.209-0.081c-0.132-0.118-0.144-0.32-0.026-0.452
							c0.15-0.169,3.718-4.113,8.737-4.163c0.001,0,0.004,0,0.006,0c0.174,0.002,0.315,0.142,0.317,0.318
							c0.002,0.177-0.14,0.321-0.318,0.323c-4.728,0.047-8.229,3.91-8.264,3.948C194.135,387.824,194.046,387.86,193.957,387.859z"
							/>
					</g>
					<g>
						<path style="fill:#263238;" d="M198.077,391.835c-0.075-0.001-0.15-0.028-0.209-0.081c-0.132-0.118-0.144-0.319-0.026-0.452
							c0.15-0.168,3.718-4.114,8.737-4.164c0.001,0,0.004,0,0.006,0c0.174,0.002,0.315,0.142,0.317,0.317
							c0.002,0.177-0.14,0.321-0.318,0.323c-4.728,0.048-8.23,3.911-8.264,3.95C198.255,391.8,198.166,391.836,198.077,391.835z"/>
					</g>
					<g>
						<path style="fill:#263238;" d="M202.198,395.81c-0.075-0.001-0.15-0.028-0.209-0.081c-0.133-0.118-0.144-0.321-0.026-0.452
							c0.15-0.168,3.718-4.113,8.737-4.163c0.001,0,0.004,0,0.006,0c0.174,0.002,0.315,0.142,0.317,0.318
							c0.002,0.177-0.14,0.321-0.318,0.323c-4.728,0.047-8.23,3.91-8.264,3.948C202.376,395.775,202.287,395.811,202.198,395.81z"/>
					</g>
				</g>
			</g>
			<g>
				<path style="fill:#455A64;" d="M182.154,327.997c2.415-8.305,6.086-21.014,8.423-29.509c3.73-13.555,6.288-27.653,5.046-34.252
					c-1.672-8.882-10.358-18.022-22.911-26.489c-13.709-9.246-31.758-21.325-31.758-21.325l-74.136,0.949
					c0.213,11.954-1.675,21.301,2.595,32.658c3.767,10.018,10.071,15.753,29.419,27.178c13.728,8.106,29.796,17.247,33.269,19.524
					c4.399,2.884,8.55,5.193,9.889,12.703c1.275,7.155,2.679,19.574,9.775,35.014c8.127,17.682,15.371,33.412,15.371,33.412
					s15.821,3.568,25.874-8.071C193.012,369.789,187.819,349.526,182.154,327.997z"/>
				<path style="fill:#37474F;" d="M181.898,326.058c-5.335-20.185-10.756-40.17-12.42-44.499
					c-3.546-9.188-39.695-36.845-40.817-37.74c-0.011-0.015,7.274-3.929,11.563-14.947c-0.338,8.999-4.344,13.043-5.648,15.261
					c5.47,4.518,17.849,14.108,23.398,18.96c6.973,6.105,14.303,13.365,16.639,22.835
					C176.337,292.955,180.081,315.07,181.898,326.058z"/>
			</g>
		</g>
		<g id="Top_15_">
			<g>
				<g>
					<path style="fill:#B16668;" d="M174.888,166.12c10.331-8.905,13.303-11.374,14.316-14.424c1.014-3.05,0.919-5.726,1.406-10.601
						c0.487-4.875,1.136-9.424,1.444-11.96c0.328-2.704,2.049-3.54,4.022-0.958c1.707,2.233,1.205,5.8,1.419,8.249
						c0.253,2.906,1.801,2.619,3.429,0.665c1.627-1.954,9.305-11.749,12.076-14.591c2.771-2.842,4.905-2.424,5.812-1.142
						c0.516,0.729-0.912,2.442-4.268,6.908c-3.356,4.466-5.177,6.636-4.858,6.876c0.319,0.239,2.239-2.059,6.233-6.108
						c3.673-3.724,4.73-4.838,6.68-5.767c2.31-1.1,3.571,1.23,2.403,2.739c-1.246,1.61-2.019,2.634-7.148,8.303
						c-3.563,3.938-3.794,4.491-3.508,4.778c0.286,0.286,1.951-1.168,5.858-4.508c4.15-3.548,6.284-4.691,7.732-3.61
						c0.373,0.279,0.576,1.125,0.25,1.686c-0.531,0.915-1.469,2.131-4.151,4.432c-2.595,2.226-3.427,3.075-4.738,4.215
						c-1.345,1.17-1.491,1.629-1.175,1.945c0.316,0.316,2.699-1.11,7.558-4.884c1.725-1.34,3.99,0.996,0.781,3.948
						c-1.723,1.585-9.115,9.092-13.273,12.922c-4.653,4.285-8.139,5.605-11.866,9.415c-3.328,3.402-16.311,17.32-16.311,17.32
						L174.888,166.12z"/>
					<path style="fill:#9A4A4D;" d="M199.622,141.699c2.294,4.55,1.847,11.693-0.958,15.655
						C203.199,154.913,204.52,146.501,199.622,141.699z"/>
				</g>
				<path style="fill:#F0F0F0;" d="M125.76,171.152l-4.612-40.741c9.984,1.398,14.252,3.933,21.507,13.972
					c4.049,5.603,13.176,17.797,21.703,28.867l20.44-17.579c0,0,10.121,7.347,12.698,15.586c0,0-23.792,25.024-29.145,29.496
					c-4.884,4.08-8.6,6.569-16.687-1.072C143.579,192.04,127.976,174.303,125.76,171.152z"/>
				<path style="fill:#E0E0E0;" d="M189.692,171.322c-1.212-1.478-2.52-2.884-3.896-4.21c-1.459-1.405-3.06-2.775-4.968-3.52
					c-0.418-0.163-0.652,0.289-0.294,0.559c3.038,2.285,5.761,4.849,8.168,7.8c1.077,1.32,2.072,2.714,2.934,4.185
					c0.153,0.261,0.294,0.528,0.436,0.794c0.286-0.298,0.567-0.59,0.836-0.871C192.008,174.368,190.905,172.802,189.692,171.322z"/>
				<path style="fill:#E0E0E0;" d="M164.359,173.25c-4.334,3.579-8.36,9.999-8.657,14.81c-0.342-7.505,2.202-12.686,7.044-16.907
					L164.359,173.25z"/>
			</g>
			<g id="Chest">
				<path id="XMLID_546_" style="fill:#FAFAFA;" d="M61.748,141.848c0,0-6.413,10.57-2.403,27.817
					c3.146,13.53,5.821,18.658,6.392,32.781c0.742,18.346,0.47,34.812,0.47,34.812c24.643,8.264,67.615-5.888,74.747-20.837
					c0,0-2.56-12.204-7.197-62.473c-1.105-11.981-8.182-20.225-12.609-23.537l-12.674-1.522l-17.751-0.218l-10.131,3.9
					L61.748,141.848z"/>
			</g>
			<g id="Head_3_">
				<g>
					<g id="XMLID_540_">
						<g id="XMLID_545_">
							<path style="fill:#263238;" d="M124.144,75.152c-3.796-6.379-10.185-10.148-21.115-9.581
								c-13.342,0.692-20.266,7.188-21.221,12.639l0.01,0.01c-1.339,0.499-3.439,1.732-5.022,4.764
								c-1.262,2.419-2.171,6.831,1.256,19.456c2.205,8.126,4.864,11.671,6.048,13.933c1.184,2.262,3.619,2.898,3.619,2.898
								l-0.237-9.7l-0.351-3.869c0,0,4.754-0.398,4.816-13.671c0.008-1.8,0.19-3.27,0.126-4.481l33.347,2.229
								C125.419,89.782,127.94,81.531,124.144,75.152z"/>
							<path style="fill:#B16668;" d="M78.611,112.4c3.795,1.962,7.322-1.522,7.322-1.522l0.724,20.004c0,0,0.389,3.856,6.535,7.25
								c8.716,4.814,14.228,5.48,17.967,10.62c2.819-8.619,4.231-12.952-1.343-19.489l-0.013-5.395c0,0,4.698,0.196,8.16-0.806
								c5.291-1.531,7.276-4.346,8.276-9.496c1.409-7.257,0.934-16.634-1.735-28.775c-0.515-2.344-1.758-4.524-3.673-5.97
								c-5.878-4.438-14.624-0.174-22.069,2.715c-3.083,1.197-9.184,1.444-11.154,0.516c2.593,2.869,3.191,9.997,1.697,17.187
								c-0.516,2.484-1.376,2.981-1.92,2.967c-2.157-0.054-2.957-2.717-4.323-4.15c-1.379-1.422-6.505-2.708-8.722,1.994
								C72.1,104.838,74.011,110.021,78.611,112.4z"/>
							<path style="fill:#9A4A4D;" d="M109.803,123.869c-7.256-0.41-12.397-1.673-15.182-3.819
								c-3.791-2.921-6.198-7.734-6.198-7.734s1.08,6.858,5.074,10.041c3.994,3.183,8.725,4.92,16.31,4.92L109.803,123.869z"/>
						</g>
						<g id="XMLID_541_">
							<path id="XMLID_544_" style="fill:#263238;" d="M105.371,90.797l-5.306,0.715c-0.158-1.506,0.904-2.887,2.368-3.084
								C103.899,88.231,105.214,89.291,105.371,90.797z"/>
							<path style="fill:#263238;" d="M101.669,96.864c0.041,1.204,1.051,2.147,2.255,2.106c1.204-0.041,2.147-1.051,2.106-2.255
								c-0.042-1.204-1.051-2.147-2.255-2.106C102.57,94.65,101.627,95.66,101.669,96.864z"/>
							<path id="XMLID_436_" style="fill:#263238;" d="M117.957,88.811l5.012,1.884c0.49-1.432-0.235-3.016-1.619-3.536
								C119.965,86.639,118.447,87.378,117.957,88.811z"/>
							<path style="fill:#263238;" d="M122.326,95.456c-0.041,1.204-1.051,2.147-2.255,2.106c-1.204-0.041-2.147-1.051-2.106-2.255
								c0.042-1.204,1.051-2.147,2.255-2.106C121.425,93.242,122.368,94.252,122.326,95.456z"/>
							<path id="XMLID_542_" style="fill:#9A4A4D;" d="M110.394,91.415l1.779,13.891l7.34-2.698
								C116.91,97.706,113.869,93.976,110.394,91.415z"/>
						</g>
					</g>
				</g>
				<path id="XMLID_539_" style="fill:#9A4A4D;" d="M106.721,109.028l7.394,1.341c-0.325,2.108-2.243,3.517-4.285,3.147
					C107.787,113.146,106.396,111.136,106.721,109.028z"/>
				<path style="fill:#F28F8F;" d="M107.646,110.197c-0.313-0.024-0.615-0.002-0.909,0.041c0.246,1.617,1.45,2.98,3.092,3.278
					c0.412,0.075,0.814,0.06,1.204-0.002C111.092,111.82,109.607,110.346,107.646,110.197z"/>
			</g>
			<g id="Tie">
				<g>
					<g>
						<path style="fill:#BA68C8;" d="M114.285,147.214c0,0,2.858-6.469,2.693-8.914l-4.253-3.829l-0.55,10.275L114.285,147.214z"/>
						<path style="opacity:0.2;" d="M114.285,147.214c0,0,2.858-6.469,2.693-8.914l-4.253-3.829l-0.55,10.275L114.285,147.214z"/>
					</g>
					<g>
						<polygon style="fill:#BA68C8;" points="108.705,145.383 101.625,141.237 96.235,145.415 106.991,150.025 						"/>
						<polygon style="opacity:0.2;" points="108.705,145.383 101.625,141.237 96.235,145.415 106.991,150.025 						"/>
					</g>
					<g>
						<path style="fill:#BA68C8;" d="M110.502,197.033c-0.933-21.845-0.099-38.518-0.858-43.794l3.681-0.612
							c2.998,6.191,12.511,24.547,13.337,39.63c0.534,5.239-1.982,17.356-5.514,17.72
							C117.615,210.342,110.639,200.237,110.502,197.033z"/>
						<path style="opacity:0.1;fill:#FFFFFF;" d="M110.502,197.033c-0.933-21.845-0.099-38.518-0.858-43.794l3.681-0.612
							c2.998,6.191,12.511,24.547,13.337,39.63c0.534,5.239-1.982,17.356-5.514,17.72
							C117.615,210.342,110.639,200.237,110.502,197.033z"/>
						<path style="opacity:0.2;" d="M113.707,153.412c-0.158-0.324-0.264-0.54-0.379-0.778c0,0,0,0-0.001,0
							c-0.001-0.002-0.002-0.004-0.003-0.006l-3.681,0.612c0,0,0,0,0,0c0.064,0.446,0.104,0.895,0.162,1.602
							C111.161,154.961,113.013,154.02,113.707,153.412z"/>
						<path style="fill:#BA68C8;" d="M108.576,144.877c1.582-0.404,3.491-0.383,3.491-0.383s1.367,1.012,2.218,2.72
							c0,0,0.157,3.267-0.96,5.414c0,0-1.369,1.127-3.681,0.612c0,0-2.183-1.353-2.908-3.384
							C106.519,148.082,107.785,145.442,108.576,144.877z"/>
						<path style="opacity:0.1;fill:#FFFFFF;" d="M108.576,144.877c1.582-0.404,3.491-0.383,3.491-0.383s1.367,1.012,2.218,2.72
							c0,0,0.157,3.267-0.96,5.414c0,0-1.369,1.127-3.681,0.612c0,0-2.183-1.353-2.908-3.384
							C106.519,148.082,107.785,145.442,108.576,144.877z"/>
					</g>
				</g>
				<g>
					<g>
						<path style="fill:#E6E6E6;" d="M108.651,144.858c-0.119,0.013-0.258,0.298-0.376,0.326c-2.668-1.234-3.108-1.681-3.781-1.444
							c-1.276,0.449-4.006,6.042-4.658,7.835c-0.669,1.779-0.52,1.763-3.001,0.324c-4.804-2.804-8.958-6.61-11.435-9.761
							c-3.467-4.408-4.808-9.568-4.808-9.568s2.082-2.669,2.792-4.15c1.372-2.864,1.45-4.163,3.039-4.018l0.07,1.931
							c0.418,2.399,4.266,4.548,7.821,7.26c3.557,2.727,9.181,5.156,10.546,6.322C105.857,140.76,107.341,142.795,108.651,144.858z"
							/>
						<path style="fill:#E6E6E6;" d="M121.043,146.164c-0.322,1.005-3.92-6.512-5.448-6.257c-0.739,0.105-2.278,2.298-3.528,4.588
							c0,0-0.892,0.029-1.051,0.033c0.792-2.373,1.144-4.407,1.236-5.971c0.155-2.643-2.435-9.293-2.435-9.293l-0.009-3.041
							c0.408-0.003,1.332-0.046,1.85-0.061c0.413,0.37,1.227,1.957,2.014,2.937c1.809,2.253,5.95,5.528,6.624,8.443
							C121.378,142.214,121.17,145.789,121.043,146.164z"/>
					</g>
				</g>
			</g>
			<g>
				<path style="fill:#F0F0F0;" d="M66.189,139.666c-9.519,3.283-17.113,7.462-19.399,16.712
					c-2.287,9.251-4.343,31.462-5.559,44.845c-1.042,11.469,0.344,21.628,3.766,26.023l22.001-13.487l5.885-36.528
					C72.882,177.232,76.033,149.673,66.189,139.666z"/>
				<path style="fill:#E0E0E0;" d="M66.569,196.463c-1.566,3.063-3.692,4.5-8.332,7.597c-4.325,2.887-9.409,5.769-11.448,11.252
					c0.105-4.801,2.314-7.5,7.621-11.641c5.307-4.141,13.224-9.294,13.224-9.294L66.569,196.463z"/>
				<path style="fill:#F0F0F0;" d="M66.569,196.463c-1.566,3.063-3.692,4.5-8.332,7.597c-4.325,2.887-9.409,5.769-11.448,11.252
					c-1.796,4.827-3.914,8.944-1.793,11.935c1.461,2.06,8.192,2.477,14.305,1.129c6.113-1.348,9.507-5.741,15.056-11.102
					c4.759-4.597,6.565-6.478,6.565-6.478L66.569,196.463z"/>
				<g>
					<path style="fill:#B16668;" d="M75.481,199.454c-2.611-1.717-3.463-3.839-7.048-5.001c-3.584-1.162-5.592-0.676-9.366-1.709
						c-3.774-1.032-6.723-1.349-9.126,0.021c-2.403,1.371-1.691,2.764,0.497,3.582c2.188,0.817,5.841,1.727,8.498,2.933
						c2.657,1.205,5.111,1.695,5.724,4.618c0.613,2.923,1.46,9.03,1.847,14.059c0.387,5.029,0.239,9.199,0.717,9.652
						c0.478,0.452,2.629,0.258,3.353-2.747c0.724-3.005,0.33-13.324,0.33-13.324s2.385,6.723,3.761,11.408
						c1.376,4.685,2.291,8.292,2.636,9.282c0.345,0.99,3.562-0.494,3.359-4.201c-0.203-3.706-3.12-14.22-3.12-14.22
						s3.814,4.269,6.273,7.039c2.459,2.771,5.583,6.591,6.538,7.495c0.956,0.905,2.709-1.413,1.601-4.164
						c-1.108-2.751-6.227-8.991-6.227-8.991s5.391,3.713,6.261,4.007c0.871,0.294,3.15-0.565,1.686-3.553
						c-0.979-1.997-2.604-3.063-7.008-6.394c-4.404-3.33-4.711-5.026-6.204-6.66C78.504,200.44,77.376,200.701,75.481,199.454z"/>
					<path style="fill:#9A4A4D;" d="M66.998,202.942c3.865,0.834,7.004-1.476,7.301-2.455
						C74.572,202.973,70.008,205.408,66.998,202.942z"/>
					<path style="fill:#9A4A4D;" d="M94.151,217.446c-0.237,0.516-1.21,0.869-2.257,0.309c-1.051-0.562-3.762-2.574-4.998-3.508
						c-1.235-0.934-5.501-4.269-5.501-4.269l4.334,5.209c0,0,5.391,3.713,6.261,4.007C92.651,219.416,94.117,218.974,94.151,217.446
						z"/>
				</g>
			</g>
		</g>
	</g>
</g>
<g id="Table">
	<g id="Table_4_">
		<g id="Table_5_">
			<g>
				<g>
					<path style="fill:#BA68C8;" d="M317.421,307.183l13.409,116.352h0.005c0.013,0.436,0.303,0.869,0.878,1.201
						c1.178,0.68,3.086,0.68,4.264,0c0.575-0.332,0.866-0.766,0.878-1.201h0.004l-10.911-116.351
						c0.001-0.631-0.415-1.262-1.249-1.743c-1.665-0.962-4.365-0.962-6.03,0C317.837,305.922,317.421,306.552,317.421,307.183z
						 M168.525,423.535h0.004c0.013,0.436,0.303,0.869,0.878,1.201c1.177,0.68,3.086,0.68,4.264,0
						c0.576-0.332,0.865-0.766,0.878-1.201h0.005l13.409-116.352c0-0.63-0.416-1.261-1.249-1.741c-1.665-0.962-4.365-0.962-6.03,0
						c-0.833,0.481-1.249,1.112-1.248,1.743L168.525,423.535z M248.068,325.107l1.371,125.99h0.005
						c0.014,0.478,0.332,0.954,0.964,1.318c1.292,0.746,3.387,0.746,4.679,0c0.632-0.365,0.95-0.84,0.964-1.318h0.005l1.371-125.991
						c0-0.691-0.457-1.383-1.37-1.911c-1.827-1.055-4.79-1.055-6.618,0C248.524,323.723,248.067,324.415,248.068,325.107z"/>
				</g>
				<g style="opacity:0.3;">
					<path d="M317.421,307.183l13.409,116.352h0.005c0.013,0.436,0.303,0.869,0.878,1.201c1.178,0.68,3.086,0.68,4.264,0
						c0.575-0.332,0.866-0.766,0.878-1.201h0.004l-10.911-116.351c0.001-0.631-0.415-1.262-1.249-1.743
						c-1.665-0.962-4.365-0.962-6.03,0C317.837,305.922,317.421,306.552,317.421,307.183z M168.525,423.535h0.004
						c0.013,0.436,0.303,0.869,0.878,1.201c1.177,0.68,3.086,0.68,4.264,0c0.576-0.332,0.865-0.766,0.878-1.201h0.005
						l13.409-116.352c0-0.63-0.416-1.261-1.249-1.741c-1.665-0.962-4.365-0.962-6.03,0c-0.833,0.481-1.249,1.112-1.248,1.743
						L168.525,423.535z M248.068,325.107l1.371,125.99h0.005c0.014,0.478,0.332,0.954,0.964,1.318c1.292,0.746,3.387,0.746,4.679,0
						c0.632-0.365,0.95-0.84,0.964-1.318h0.005l1.371-125.991c0-0.691-0.457-1.383-1.37-1.911c-1.827-1.055-4.79-1.055-6.618,0
						C248.524,323.723,248.067,324.415,248.068,325.107z"/>
				</g>
				<g style="opacity:0.15;">
					<g>
						<path d="M248.436,358.916l-0.368-33.809c-0.001-0.692,0.456-1.384,1.37-1.913c1.827-1.055,4.79-1.055,6.618,0
							c0.914,0.528,1.371,1.219,1.37,1.911l-0.368,33.808C254.2,358.985,251.295,358.985,248.436,358.916z"/>
					</g>
					<g>
						<path d="M179.436,307.184c-0.001-0.631,0.415-1.262,1.248-1.743c1.665-0.962,4.365-0.962,6.03,0
							c0.833,0.481,1.249,1.111,1.249,1.741l-4.133,35.855c-0.63-0.346-1.271-0.68-1.89-1.037c-1.894-1.094-3.735-2.296-5.446-3.452
							L179.436,307.184z"/>
					</g>
					<g>
						<path d="M318.67,305.441c1.665-0.962,4.365-0.962,6.03,0c0.833,0.481,1.249,1.112,1.249,1.743l2.944,31.394
							c-1.729,1.171-3.588,2.384-5.505,3.491c-0.598,0.345-1.219,0.669-1.828,1.003l-4.139-35.889
							C317.421,306.552,317.837,305.922,318.67,305.441z"/>
					</g>
				</g>
			</g>
			<g>
				<path style="fill:#BA68C8;" d="M323.635,251.707c-39.199-22.632-102.754-22.632-141.953,0
					c-19.6,11.316-29.384,26.147-29.377,40.979c0.001,3.046,0.002-0.165,0,2.88c-0.007,14.831,9.777,29.662,29.378,40.979
					c39.2,22.632,102.753,22.632,141.953,0c19.6-11.316,29.384-26.147,29.377-40.979c-0.001-3.045-0.001,0.165,0-2.881
					C353.019,277.854,343.235,263.024,323.635,251.707z"/>
				<path style="opacity:0.2;" d="M323.635,251.707c-39.199-22.632-102.754-22.632-141.953,0
					c-19.6,11.316-29.384,26.147-29.377,40.979c0.001,3.046,0.002-0.165,0,2.88c-0.007,14.831,9.777,29.662,29.378,40.979
					c39.2,22.632,102.753,22.632,141.953,0c19.6-11.316,29.384-26.147,29.377-40.979c-0.001-3.045-0.001,0.165,0-2.881
					C353.019,277.854,343.235,263.024,323.635,251.707z"/>
			</g>
			<g>
				<path style="fill:#BA68C8;" d="M323.723,244.186c-39.199-22.632-102.754-22.632-141.953,0
					c-19.6,11.316-29.383,26.147-29.377,40.978c0.001,3.046,0.001,1.896,0,4.942c-0.007,14.832,9.777,29.663,29.378,40.979
					c39.199,22.632,102.753,22.632,141.953,0c19.6-11.316,29.384-28.209,29.377-43.04c-0.001-3.046-0.001,0.165,0-2.881
					C353.107,270.332,343.324,255.502,323.723,244.186z"/>
				<path style="opacity:0.4;fill:#FFFFFF;" d="M323.723,244.186c-39.199-22.632-102.754-22.632-141.953,0
					c-19.6,11.316-29.383,26.147-29.377,40.978c0.001,3.046,0.001,1.896,0,4.942c-0.007,14.832,9.777,29.663,29.378,40.979
					c39.199,22.632,102.753,22.632,141.953,0c19.6-11.316,29.384-28.209,29.377-43.04c-0.001-3.046-0.001,0.165,0-2.881
					C353.107,270.332,343.324,255.502,323.723,244.186z"/>
				<path style="opacity:0.1;" d="M323.723,244.186c-39.199-22.632-102.754-22.632-141.953,0
					c-19.6,11.316-29.383,26.147-29.377,40.978c0.001,3.046,0.001,1.896,0,4.942c-0.007,14.832,9.777,29.663,29.378,40.979
					c39.199,22.632,102.753,22.632,141.953,0c19.6-11.316,29.384-28.209,29.377-43.04c-0.001-3.046-0.001,0.165,0-2.881
					C353.107,270.332,343.324,255.502,323.723,244.186z"/>
			</g>
			<g>
				<ellipse style="fill:#BA68C8;" cx="252.747" cy="285.164" rx="100.376" ry="57.952"/>
				<ellipse style="opacity:0.85;fill:#FFFFFF;" cx="252.747" cy="285.164" rx="100.376" ry="57.952"/>
			</g>
		</g>
		<g id="Laptop_3_">
			<g id="Laptop">
				<path id="XMLID_475_" style="opacity:0.2;fill:#BA68C8;" d="M224.764,266.958l43.024-24.838c0.765-0.441,1.708-0.441,2.473,0
					l74.64,43.099c0.366,0.212,0.366,0.741,0,0.952l-43.428,25.077L224.764,266.958z"/>
				<g id="XMLID_319_">
					<g id="XMLID_401_">
						<path id="XMLID_405_" style="fill:#37474F;" d="M227.976,261.726v0.967c0,1.417,0.755,2.728,1.986,3.443l69.526,40.139
							c0.609,0.357,1.304,0.526,1.979,0.526c0.689,0,1.377-0.172,2-0.53l37.898-21.809c1.218-0.702,1.982-2.026,1.982-3.443v-1.338
							h-0.008v0.013c0,0.172-0.08,0.331-0.252,0.437l-41.619,24.034L227.976,261.726z"/>
					</g>
					<g id="XMLID_388_">
						<path id="XMLID_393_" style="fill:#455A64;" d="M227.971,261.723l41.225-23.799c0.733-0.423,1.636-0.423,2.369,0
							l71.518,41.297c0.351,0.203,0.351,0.71,0,0.912l-41.611,24.028L227.971,261.723z"/>
					</g>
					<g id="XMLID_380_">
						<polygon id="XMLID_381_" style="fill:#37474F;" points="301.852,300.661 324.087,287.836 259.071,250.3 236.72,263.057 						
							"/>
					</g>
					<g id="XMLID_368_">
						<polygon id="XMLID_379_" style="fill:#263238;" points="236.721,263.056 237.57,263.545 259.073,251.276 323.234,288.327 
							324.083,287.839 259.073,250.299 						"/>
					</g>
					<g id="XMLID_360_">
						<polygon id="XMLID_365_" style="fill:#263238;" points="312.78,264.987 312.37,265.223 301.472,271.514 282.091,260.324 
							281.688,260.095 292.996,253.567 						"/>
					</g>
					<g id="XMLID_332_">
						<polygon id="XMLID_333_" style="fill:#37474F;" points="312.37,265.223 301.472,271.514 282.091,260.324 292.996,254.033 
													"/>
					</g>
					<g id="XMLID_328_">
						<path id="XMLID_329_" style="fill:#263238;" d="M301.472,304.159v2.644c-0.682,0-1.371-0.174-1.983-0.528l-69.527-40.14
							c-1.232-0.71-1.99-2.025-1.99-3.444v-0.967L301.472,304.159z"/>
					</g>
				</g>
			</g>
			<g>
				<g id="XMLID_316_">
					<path id="XMLID_318_" style="fill:#37474F;" d="M300.352,304.746c-1.316,0.508-2.811,0.411-4.057-0.314l-69.221-39.965
						c-1.218-0.703-2.053-1.907-2.29-3.291l-7.578-45.192c-0.042-0.257-0.063-0.515-0.063-0.772c0-1.259,0.501-2.463,1.392-3.347
						l71.935,41.538c0.898,0.522,1.517,1.413,1.691,2.436L300.352,304.746z"/>
				</g>
				<g id="XMLID_354_">
					<path id="XMLID_474_" style="fill:#455A64;" d="M301.472,304.161l-0.473,0.271c-0.209,0.118-0.424,0.223-0.647,0.314
						l-8.191-48.908c-0.174-1.023-0.793-1.913-1.691-2.436l-71.935-41.538c0.278-0.279,0.605-0.522,0.96-0.731l72.081,41.615
						c0.897,0.522,1.517,1.413,1.691,2.436L301.472,304.161z"/>
				</g>
				<path id="XMLID_351_" style="fill:#263238;" d="M291.493,254.324l1.115-0.644c0.33,0.439,0.565,0.948,0.659,1.504l8.205,48.977
					l-0.473,0.271c-0.209,0.118-0.424,0.223-0.647,0.313l-8.191-48.908C292.065,255.278,291.828,254.766,291.493,254.324z"/>
				<g id="XMLID_314_">
					<path id="XMLID_350_" style="fill:#BA68C8;" d="M261.366,263.028c-0.507-3.026-3.631-7.045-6.977-8.976
						c-3.346-1.931-5.647-1.044-5.14,1.981c0.508,3.026,3.632,7.045,6.977,8.976C259.572,266.94,261.873,266.053,261.366,263.028z"
						/>
				</g>
			</g>
		</g>
		<g id="Coffee">
			<path id="Shadow_17_" style="opacity:0.4;fill:#BA68C8;" d="M209.399,298.125c7.008,3.852,7.008,10.096,0,13.948
				c-7.009,3.851-18.372,3.851-25.38,0c-7.008-3.852-7.008-10.096,0-13.948C191.028,294.273,202.391,294.273,209.399,298.125z"/>
			<g id="Coffee_3_">
				<g id="XMLID_5438_">
					<path id="XMLID_5439_" style="fill:#263238;" d="M185.589,270.451c6.286-2.263,16.291-2.213,22.345,0.11
						c6.054,2.323,6.036,6.042-0.042,8.305c-6.078,2.263-16.081,2.213-22.344-0.111
						C179.285,276.431,179.304,272.713,185.589,270.451z"/>
				</g>
				<g id="XMLID_5436_">
					<path id="XMLID_5437_" style="fill:#FAFAFA;" d="M180.575,262.549l32.175,0.86l-2.743,42.659l-0.031-0.001
						c-0.188,1.366-1.512,2.686-3.998,3.669c-5.298,2.096-13.94,1.875-19.302-0.496c-2.515-1.112-3.814-2.498-3.936-3.872
						l-0.031-0.001L180.575,262.549z"/>
				</g>
				<g id="XMLID_5390_">
					<path id="XMLID_5435_" style="fill:#EBEBEB;" d="M212.75,263.409l-0.695,7.629c-0.752,0.49-1.647,0.951-2.725,1.362
						c-7.032,2.681-18.506,2.387-25.629-0.658c-0.308-0.132-0.564-0.273-0.842-0.411c-1.133-0.567-1.99-1.179-1.99-1.179
						l-0.294-7.603L212.75,263.409z"/>
				</g>
				<g id="XMLID_457_">
					<g id="XMLID_5388_">
						<path id="XMLID_5389_" style="fill:#37474F;" d="M178.512,263.609l0.15-5.752l3.75,0.096c0.507-0.249,1.06-0.487,1.668-0.71
							c7.271-2.675,18.746-2.381,25.629,0.657c0.573,0.253,1.079,0.52,1.556,0.793l3.643,0.093l-0.149,5.753l0,0
							c-0.049,1.874-1.837,3.704-5.353,5.044c-7.032,2.682-18.506,2.387-25.629-0.658
							C180.213,267.404,178.463,265.483,178.512,263.609z"/>
					</g>
					<g id="XMLID_5386_">
						<path id="XMLID_5387_" style="fill:#455A64;" d="M184.195,252.817c7.272-2.675,18.746-2.381,25.629,0.657
							c6.883,3.038,6.763,7.675-0.27,10.357c-7.032,2.681-18.506,2.387-25.629-0.657
							C176.803,260.129,176.923,255.492,184.195,252.817z"/>
					</g>
					<g id="XMLID_458_">
						<path style="fill:#37474F;" d="M182.029,256.559l-0.013,0l1.284-4.714l9.204,0.236c2.999-0.293,6.205-0.211,9.153,0.235
							l8.934,0.229l1.042,4.773l-0.015-0.001c0.533,1.738-0.89,3.508-4.285,4.747c-5.795,2.112-15.254,1.87-21.128-0.542
							C182.763,260.109,181.386,258.267,182.029,256.559z"/>
						<g id="XMLID_5384_">
							<path id="XMLID_5385_" style="fill:#455A64;" d="M187.389,248.917c5.5-1.827,14.188-1.604,19.405,0.497
								c5.216,2.102,5.133,5.291-0.186,7.122c-5.319,1.832-14.006,1.609-19.404-0.498
								C181.805,253.933,181.888,250.744,187.389,248.917z"/>
						</g>
						<g id="XMLID_5382_">
							<path id="XMLID_5383_" style="fill:#263238;" d="M185.099,252.427c0.007,0.075,0.142,0.332,0.585,0.689
								c0.416,0.329,1.113,0.75,2.205,1.181c2.382,0.923,5.698,1.514,9.092,1.601c3.394,0.087,6.679-0.325,9.012-1.127
								c1.095-0.375,1.784-0.769,2.189-1.077c0.452-0.344,0.581-0.603,0.583-0.669c0.003-0.131-0.446-0.976-2.678-1.876
								c-2.288-0.92-5.547-1.5-8.942-1.587c-3.394-0.087-6.736,0.324-9.163,1.132C185.7,251.45,185.112,252.259,185.099,252.427z"/>
						</g>
						<g id="XMLID_5374_">
							<path id="XMLID_5375_" style="fill:#37474F;" d="M185.684,253.116c0.416,0.329,1.113,0.75,2.205,1.181
								c2.382,0.923,5.698,1.514,9.092,1.601c3.394,0.087,6.679-0.325,9.012-1.127c1.095-0.375,1.784-0.769,2.189-1.077
								c-0.388-0.328-1.056-0.758-2.13-1.188c-2.288-0.92-5.547-1.5-8.942-1.587c-3.394-0.087-6.736,0.324-9.163,1.132
								C186.835,252.425,186.117,252.799,185.684,253.116z"/>
						</g>
						<g id="XMLID_476_" style="opacity:0.5;">
							<path id="XMLID_5373_" d="M191.141,253.378c-0.782-0.467-1.742-0.674-2.145-0.462c-0.403,0.211-0.095,0.766,0.687,1.238
								c0.782,0.473,1.742,0.68,2.145,0.463C192.231,254.4,191.923,253.845,191.141,253.378z"/>
						</g>
					</g>
				</g>
				<g id="XMLID_454_">
					<path id="XMLID_5357_" style="fill:#455A64;" d="M211.478,288.543c-0.007,1.416-1.443,2.825-4.306,3.891
						c-5.725,2.133-15.15,2.085-21.051-0.104c-2.945-1.093-4.416-2.513-4.414-3.927l-0.845-13.823
						c-0.007,1.503,1.554,3.014,4.685,4.176c6.263,2.324,16.266,2.374,22.344,0.111c3.039-1.132,4.563-2.627,4.57-4.13
						L211.478,288.543z"/>
				</g>
				<g id="XMLID_448_">
					<g id="XMLID_452_">
						<path id="XMLID_453_" style="fill:#263238;" d="M201.65,289.312c0.534-0.706,0.832-1.575,1.265-2.339
							c0.863-1.523,2.091-2.555,3.657-3.164c0.21-0.081,0.467,0.005,0.566,0.206c0.784,1.604,0.287,3.841-1.36,5.459
							c-1.63,1.602-3.866,2.089-5.471,1.329c-0.091-0.043-0.115-0.219-0.041-0.262C200.785,290.245,201.249,289.842,201.65,289.312z
							"/>
					</g>
					<g id="XMLID_450_">
						<path id="XMLID_5328_" style="fill:#263238;" d="M205.702,283.366c-0.846,0.316-1.637,0.815-2.303,1.391
							c-0.713,0.615-1.266,1.402-1.673,2.248c-0.618,1.286-1.205,2.08-2.104,2.739c-0.196,0.143-0.493,0.103-0.626-0.099
							c-1.062-1.612-0.625-4.074,1.149-5.817c1.682-1.652,4.006-2.117,5.619-1.253C206.089,282.747,206.047,283.238,205.702,283.366
							z"/>
					</g>
				</g>
			</g>
		</g>
	</g>
</g>
<g id="Briefcases">
	<g id="Briefcase_1_">
		<g>
			<path style="fill:#37474F;" d="M402.555,356.445h-3.623v-16.619c0-3.972,2.695-8.639,6.134-10.625l19.436-11.22
				c1.959-1.132,3.96-1.261,5.489-0.358c1.53,0.904,2.38,2.719,2.335,4.981l-0.342,16.886l-3.623-0.073l0.342-16.885
				c0.019-0.89-0.195-1.575-0.555-1.789c-0.36-0.213-1.064-0.068-1.835,0.376l-19.436,11.22c-2.343,1.354-4.323,4.782-4.323,7.488
				V356.445z"/>
		</g>
		<g>
			<path style="fill:#37474F;" d="M463.45,397.26l-3.886-71.591c-0.093-1.69-1.358-3.746-2.823-4.593l-2.235-1.29
				c-0.76-0.439-1.459-0.459-1.972-0.148l-0.001-0.009l-74.812,43.202l10.297,79.316l74.769-43.168v-0.001
				C463.24,398.703,463.497,398.109,463.45,397.26z"/>
		</g>
		<g>
			<path style="fill:#263238;" d="M374.946,435.414l11.291,6.519c1.466,0.846,2.578,0.162,2.485-1.528l-3.886-71.591
				c-0.093-1.69-1.358-3.746-2.823-4.593l-2.235-1.291c-1.466-0.846-2.722-0.162-2.805,1.529l-4.529,66.361
				C372.359,432.511,373.48,434.568,374.946,435.414z"/>
		</g>
		<g>
			<path style="fill:#BA68C8;" d="M414.319,420.383c-0.537,0-0.987-0.419-1.02-0.962l-1.981-33.544
				c-0.034-0.563,0.397-1.046,0.96-1.079c0.533-0.06,1.046,0.397,1.079,0.96l1.981,33.544c0.034,0.563-0.397,1.046-0.96,1.079
				C414.36,420.383,414.34,420.383,414.319,420.383z"/>
		</g>
		<g>
			<path style="fill:#BA68C8;" d="M442.972,403.921c-0.537,0-0.988-0.419-1.02-0.962l-1.979-33.543
				c-0.034-0.563,0.397-1.046,0.96-1.08c0.551-0.03,1.045,0.397,1.079,0.96l1.979,33.544c0.034,0.563-0.397,1.045-0.96,1.079
				C443.012,403.921,442.992,403.921,442.972,403.921z"/>
		</g>
		<g>
			<path style="fill:#455A64;" d="M394.504,401.856c-3.498,2.018-7.896-0.36-8.121-4.393l-1.539-28.659
				c-0.102-1.676-1.369-3.739-2.84-4.577l-2.227-1.287c-0.695-0.409-1.328-0.47-1.819-0.245l74.581-43.068v0.02
				c0.511-0.327,1.205-0.307,1.961,0.143l2.247,1.287c1.451,0.838,2.717,2.901,2.82,4.598l1.518,28.287
				c0.315,5.636-2.569,10.969-7.459,13.79L394.504,401.856z"/>
		</g>
		<g>
			<polygon style="fill:#BA68C8;" points="420.685,383.487 431.525,377.233 431.986,383.234 421.124,389.506 			"/>
		</g>
	</g>
	<g id="Briefcase">
		<g id="XMLID_518_">
			<g id="XMLID_543_">
				<path id="XMLID_550_" style="fill:#37474F;" d="M131.174,371.732V431.5c0,2.897-2.049,4.572-4.555,6.047l-6.287,3.633
					c-1.736,1.005-2.703,1.343-4.909,0.965c-0.966-0.157-2.586-0.944-3.356-1.375c-0.052-0.013-0.091-0.039-0.13-0.065l-0.339-0.196
					l-64.243-37.092c-4.694-2.71-7.586-7.719-7.586-13.139l-0.002-54.423c0-1.24,0.874-2.754,1.958-3.38l10.728-6.186
					c1.07-0.626,2.819-0.626,3.889,0l72.875,42.076c0.548,0.3,1.031,0.848,1.383,1.448
					C130.952,370.427,131.174,371.118,131.174,371.732z"/>
				<path id="XMLID_549_" style="fill:#263238;" d="M131.174,371.732V431.5c0,2.897-2.049,4.572-4.555,6.047l-6.287,3.633
					c-1.736,1.005-2.703,1.343-4.909,0.965c-0.966-0.157-2.586-0.944-3.356-1.375v-0.026c2.506,1.174,4.477-0.131,4.477-3.093
					v-56.314c0-0.939-0.326-1.984-0.862-2.91l14.917-8.614C130.952,370.427,131.174,371.118,131.174,371.732z"/>
			</g>
			<path id="XMLID_532_" style="fill:#455A64;" d="M116.547,381.337c0-1.873-1.327-4.172-2.949-5.108L44.72,336.462
				c-2.723-1.572-4.95-0.286-4.95,2.858l-0.005,50.953c0,5.421,2.891,10.43,7.586,13.141l64.247,37.096
				c2.723,1.572,4.95,0.286,4.95-2.858V381.337z"/>
			<g>
				<path style="fill:#BA68C8;" d="M48.974,328.294l73.003,42.567c2.09,1.219,3.389,3.478,3.389,5.897v61.512l-1.112,0.643v-62.155
					c0-2.025-1.087-3.916-2.837-4.937l-73.553-42.887L48.974,328.294z"/>
				<path style="opacity:0.2;" d="M124.456,373.36c0.586,1.02,0.911,2.189,0.911,3.399v61.512l-1.112,0.643v-62.155
					c0-1.011-0.271-1.989-0.761-2.842L124.456,373.36z"/>
				<path style="opacity:0.2;" d="M123.494,373.917c-0.491-0.855-1.2-1.584-2.076-2.095l-73.553-42.887l1.11-0.64l73.003,42.567
					c1.045,0.609,1.892,1.479,2.478,2.499"/>
			</g>
		</g>
		<g id="XMLID_487_">
			<path id="XMLID_504_" style="fill:#BA68C8;" d="M74.906,335.933v9.255l-3.619,2.091v-12.29c0-0.636,0.441-0.888,0.991-0.573
				L74.906,335.933z"/>
			<path id="XMLID_1256_" style="opacity:0.4;" d="M74.906,335.933v9.255l-3.619,2.091v-12.29c0-0.636,0.441-0.888,0.991-0.573
				L74.906,335.933z"/>
			<path id="XMLID_819_" style="fill:#BA68C8;" d="M100.342,345.078v14.984l-3.455,2l-2.326-1.347v-12.29
				c0-0.63-0.447-1.404-0.991-1.719L75.939,336.53l-3.661-2.115c-0.55-0.315-0.991-0.063-0.991,0.573v12.29l-2.332-1.346v-14.978
				c0-0.063,0.006-0.132,0.017-0.195c0.075-0.59,0.487-1.243,0.98-1.524l1.472-0.854c0.545-0.315,1.433-0.315,1.982,0l25.945,14.977
				C99.901,343.68,100.342,344.448,100.342,345.078z"/>
			<path id="XMLID_496_" style="opacity:0.2;" d="M96.887,347.078v14.984l-2.326-1.347v-12.29c0-0.63-0.447-1.404-0.991-1.719
				L75.939,336.53l-3.661-2.115c-0.55-0.315-0.991-0.063-0.991,0.573v12.29l-2.332-1.346v-14.978c0-0.063,0.006-0.132,0.017-0.195
				c0.086-0.487,0.493-0.659,0.98-0.378l25.945,14.978C96.44,345.68,96.887,346.448,96.887,347.078z"/>
		</g>
	</g>
</g>
<g id="Speech_Bubbles">
	<g id="Speech_Bubble_8_">
		<path id="Speech_Bubble_7_" style="fill:#BA68C8;" d="M340.181,98.985l-0.426-15.989c0,0,27.785-4.337,22.136-32.344
			c-3.222-15.975-20.443-28.622-62.673-26.472c-48.004,2.444-44.616,33.888-38.28,43.902c10.231,16.171,36.115,19.156,66.706,17.039
			L340.181,98.985z"/>
		<g>
			<g>
				<path style="fill:#FFFFFF;" d="M333.392,44.159h-48.387c-0.509,0-0.922-0.413-0.922-0.922c0-0.509,0.413-0.922,0.922-0.922
					h48.387c0.509,0,0.922,0.413,0.922,0.922C334.314,43.746,333.901,44.159,333.392,44.159z"/>
			</g>
			<g>
				<path style="fill:#FFFFFF;" d="M339.152,55.71h-59.906c-0.54,0-0.978-0.438-0.978-0.978c0-0.54,0.438-0.978,0.978-0.978h59.906
					c0.54,0,0.978,0.438,0.978,0.978C340.129,55.272,339.692,55.71,339.152,55.71z"/>
			</g>
			<g>
				<path style="fill:#FFFFFF;" d="M333.392,67.15h-48.387c-0.509,0-0.922-0.413-0.922-0.922c0-0.509,0.413-0.922,0.922-0.922
					h48.387c0.509,0,0.922,0.413,0.922,0.922C334.314,66.737,333.901,67.15,333.392,67.15z"/>
			</g>
		</g>
	</g>
	<g id="Speech_Bubble_9_">
		<path id="Speech_Bubble_2_" style="fill:#455A64;" d="M156.111,108.891L170.468,95.4c0,0,12.782,2.563,32.229,1.413
			c28.77-1.702,44.987-14.226,40.702-31.285c-5.056-20.131-24.112-27.603-58.402-26.264c-19.289,0.753-32.889,6.919-39.298,15.465
			c-7.845,10.462-7.171,26.749,11.551,36.522L156.111,108.891z"/>
		<g>
			<g>
				<path style="fill:#FFFFFF;" d="M215.6,56.833h-45.385c-0.509,0-0.922-0.413-0.922-0.922c0-0.509,0.413-0.922,0.922-0.922H215.6
					c0.509,0,0.922,0.413,0.922,0.922C216.522,56.421,216.109,56.833,215.6,56.833z"/>
			</g>
			<g>
				<path style="fill:#FFFFFF;" d="M221.36,68.385h-56.904c-0.54,0-0.978-0.438-0.978-0.978c0-0.54,0.438-0.978,0.978-0.978h56.904
					c0.54,0,0.977,0.438,0.977,0.978C222.337,67.947,221.9,68.385,221.36,68.385z"/>
			</g>
			<g>
				<path style="fill:#FFFFFF;" d="M215.6,79.825h-45.385c-0.509,0-0.922-0.413-0.922-0.922c0-0.509,0.413-0.922,0.922-0.922H215.6
					c0.509,0,0.922,0.413,0.922,0.922C216.522,79.412,216.109,79.825,215.6,79.825z"/>
			</g>
		</g>
	</g>
</g>
</svg>
