<?xml version="1.0" encoding="utf-8"?>
<!-- Generator: Adobe Illustrator 27.5.0, SVG Export Plug-In . SVG Version: 6.00 Build 0)  -->
<svg version="1.1" id="_x30_" xmlns="http://www.w3.org/2000/svg" xmlns:xlink="http://www.w3.org/1999/xlink" x="0px" y="0px"
	 viewBox="0 0 450 450" style="enable-background:new 0 0 450 450;" xml:space="preserve">
<g id="_x38_">
	<g>
		<g>
			<g>
				<g>
					<g style="enable-background:new    ;">
						<linearGradient id="SVGID_1_" gradientUnits="userSpaceOnUse" x1="195.5226" y1="343.3994" x2="211.9444" y2="343.3994">
							<stop  offset="0" style="stop-color:#B3AA9C"/>
							<stop  offset="1" style="stop-color:#E6DDCE"/>
						</linearGradient>
						<path style="fill:url(#SVGID_1_);" d="M150.173,329.126l-0.009,3.184l44.792,25.861c4.576,2.642,11.987,2.659,16.563,0
							l40.583-23.584c2.27-1.319,3.4-3.039,3.405-4.761l0.009-3.183L150.173,329.126z"/>
						<path style="fill:#FDF6ED;" d="M252.057,321.809c4.57,2.638,4.576,6.966,0.013,9.617l-40.502,23.537
							c-4.562,2.651-12.033,2.662-16.603,0.024l-43.918-25.357c-0.389-0.224-0.39-0.785-0.002-1.011l56.22-32.671L252.057,321.809z"
							/>
					</g>
					<g>
						<polygon style="fill:#BCB9B5;" points="170.363,292.503 227.576,259.375 209.919,297.471 152.706,330.599 						"/>
						<polygon style="fill:#8D3FCF;" points="168.272,290.048 170.363,292.503 152.706,330.599 151.486,330.436 150.173,329.137 
													"/>
					</g>
				</g>
				<g style="opacity:0.8;">
					<path style="fill:#B3AA9C;" d="M175.565,343.802l57.292-33.078l-22.947-13.248c0.009-0.005,17.665-38.101,17.665-38.101
						l-57.213,33.128l-2.091-2.454l-18.094,39.078c-0.005,0-0.014,3.184-0.014,3.184l25.401,14.666V343.802z"/>
				</g>
				<g>
					<g style="enable-background:new    ;">
						<path style="fill:#9B9282;" d="M305.833,51.874c-0.512-0.2-1.124-0.153-1.744,0.19L81.365,175.523
							c-1.438,0.796-2.395,2.848-2.144,4.558l26.584,181.467c0.14,0.957,0.63,1.616,1.287,1.873l1.419,0.554L307.252,52.428
							L305.833,51.874z"/>
						<g>
							<path style="fill:#BCB9B5;" d="M107.336,162.467l-24.552,13.609c-0.522,0.29-0.946,0.776-1.307,1.321L107.336,162.467z"/>
							<path style="fill:#E6DDCE;" d="M102.756,331.594l4.469,30.508c0.25,1.71,1.62,2.472,3.057,1.676l222.724-123.458
								c1.414-0.784,2.372-2.836,2.121-4.546l-4.612-31.479c-0.272-1.856-2.331-2.853-3.955-1.915L102.756,331.594z"/>
						</g>
					</g>
					<path style="fill:#201323;" d="M308.543,54.306c-0.251-1.71-1.62-2.472-3.034-1.688L82.784,176.077
						c-1.437,0.797-2.394,2.849-2.144,4.559l22.764,155.389l227.193-131.17L308.543,54.306z"/>
				</g>
				<path style="fill:#999693;" d="M226.338,279.517c-0.167-0.681-0.154-1.399-0.044-2.113c-0.393,0.082-0.792,0.205-1.191,0.422
					c-2.253,1.224-3.592,4.199-2.989,6.646c0.602,2.447,2.917,3.439,5.17,2.215c1.626-0.883,2.745-2.682,3.033-4.532
					C228.491,282.535,226.833,281.53,226.338,279.517z"/>
			</g>
		</g>
		<g>
			<g style="enable-background:new    ;">
				
					<linearGradient id="SVGID_00000067211388333032013320000012563170433057972627_" gradientUnits="userSpaceOnUse" x1="248.8735" y1="367.8426" x2="255.7044" y2="367.8426">
					<stop  offset="0" style="stop-color:#B3AA9C"/>
					<stop  offset="1" style="stop-color:#E6DDCE"/>
				</linearGradient>
				<path style="fill:url(#SVGID_00000067211388333032013320000012563170433057972627_);" d="M208.415,376.1l-0.009,3.194
					c-0.002,0.571,0.376,1.142,1.122,1.572l39.172,22.616c1.501,0.867,3.895,0.867,5.386,0l115.612-67.186
					c0.741-0.431,1.112-0.989,1.113-1.549l0.009-3.194L208.415,376.1z"/>
				<path style="fill:#FDF6ED;" d="M369.688,329.983l-39.172-22.616c-1.476-0.852-3.894-0.866-5.386,0l-115.612,67.186
					c-1.491,0.867-1.458,2.267,0.018,3.119l39.172,22.616c1.501,0.866,3.895,0.866,5.386,0l115.612-67.187
					C371.197,332.236,371.189,330.849,369.688,329.983z"/>
			</g>
			<path style="fill:#D7CEBF;" d="M248.091,382.856c-0.013-0.063-0.013-0.123,0-0.186c-0.013-0.063-0.013-0.123,0-0.185
				c-0.048-0.23,0.059-0.468,0.364-0.644l5.431-3.136c0.527-0.304,1.383-0.304,1.911,0l4.567,2.637
				c0.305,0.176,0.413,0.415,0.364,0.644c0.013,0.063,0.013,0.123,0,0.185c0.013,0.063,0.013,0.123,0,0.186
				c0.048,0.23-0.059,0.468-0.364,0.644l-5.431,3.136c-0.528,0.305-1.383,0.305-1.911,0l-4.567-2.637
				C248.15,383.324,248.043,383.086,248.091,382.856z M237.463,380.554l4.567,2.637c0.528,0.305,1.383,0.305,1.911,0l5.431-3.136
				c0.306-0.176,0.413-0.415,0.364-0.644c0.013-0.063,0.013-0.123,0-0.185c0.013-0.063,0.013-0.123,0-0.185
				c0.049-0.23-0.059-0.468-0.364-0.644l-4.567-2.637c-0.528-0.305-1.383-0.305-1.911,0l-5.431,3.136
				c-0.306,0.176-0.413,0.415-0.365,0.644c-0.013,0.063-0.013,0.123,0,0.185c-0.013,0.063-0.013,0.123,0,0.185
				C237.05,380.139,237.157,380.377,237.463,380.554z M250.058,362.517c-0.305,0.176-0.413,0.414-0.364,0.644
				c-0.013,0.063-0.013,0.123,0,0.185c-0.013,0.063-0.013,0.123,0,0.186c-0.048,0.23,0.059,0.468,0.364,0.644l4.568,2.637
				c0.527,0.305,1.383,0.305,1.911,0l5.431-3.136c0.306-0.176,0.413-0.415,0.364-0.644c0.013-0.063,0.013-0.123,0-0.185
				c0.013-0.063,0.013-0.123,0-0.185c0.049-0.23-0.059-0.468-0.364-0.644C255.248,358.139,257.518,358.21,250.058,362.517z
				 M325.078,345.639l5.431-3.136c0.306-0.176,0.413-0.414,0.365-0.644c0.013-0.063,0.013-0.123,0-0.185
				c0.013-0.063,0.013-0.123,0-0.186c0.048-0.23-0.059-0.468-0.365-0.644l-4.567-2.637c-0.528-0.305-1.383-0.305-1.91,0
				l-5.431,3.136c-0.306,0.176-0.413,0.414-0.365,0.644c-0.013,0.063-0.013,0.123,0,0.186c-0.013,0.063-0.013,0.123,0,0.185
				c-0.048,0.23,0.059,0.468,0.365,0.644l4.567,2.637C323.695,345.943,324.551,345.943,325.078,345.639z M263.702,381.075
				l5.431-3.136c0.305-0.176,0.413-0.414,0.364-0.644c0.013-0.063,0.013-0.123,0-0.186c0.013-0.063,0.013-0.123,0-0.185
				c0.048-0.23-0.059-0.468-0.364-0.644l-4.567-2.637c-0.528-0.305-1.383-0.305-1.911,0l-5.431,3.136
				c-0.305,0.176-0.413,0.415-0.364,0.644c-0.013,0.063-0.013,0.123,0,0.185c-0.013,0.063-0.013,0.123,0,0.186
				c-0.048,0.23,0.059,0.468,0.364,0.644l4.567,2.637C262.318,381.38,263.174,381.38,263.702,381.075z M246.721,364.444
				l-5.431,3.136c-0.306,0.176-0.413,0.415-0.365,0.644c-0.013,0.063-0.013,0.123,0,0.186c-0.013,0.062-0.013,0.122,0,0.185
				c-0.048,0.23,0.059,0.468,0.365,0.644l4.567,2.637c0.528,0.305,1.383,0.305,1.911,0l5.431-3.136
				c0.306-0.176,0.413-0.414,0.365-0.644c0.013-0.063,0.013-0.123,0-0.185c0.013-0.063,0.013-0.123,0-0.185
				c0.048-0.23-0.059-0.468-0.365-0.644l-4.567-2.637C248.104,364.139,247.249,364.139,246.721,364.444z M307.542,355.763
				l5.431-3.136c0.306-0.176,0.413-0.415,0.365-0.644c0.013-0.063,0.013-0.123,0-0.185c0.013-0.063,0.013-0.123,0-0.185
				c0.048-0.23-0.059-0.468-0.365-0.644l-4.567-2.637c-0.527-0.305-1.383-0.305-1.91,0l-5.431,3.136
				c-0.306,0.176-0.413,0.414-0.365,0.644c-0.013,0.063-0.013,0.123,0,0.185c-0.013,0.063-0.013,0.123,0,0.185
				c-0.048,0.23,0.059,0.468,0.365,0.644l4.567,2.637C306.159,356.068,307.015,356.068,307.542,355.763z M264.258,354.319
				l-5.431,3.136c-0.306,0.176-0.413,0.414-0.365,0.644c-0.013,0.063-0.013,0.123,0,0.185c-0.013,0.063-0.013,0.123,0,0.186
				c-0.048,0.23,0.059,0.468,0.365,0.644l4.567,2.637c0.528,0.305,1.383,0.305,1.911,0l5.431-3.136
				c0.305-0.176,0.413-0.415,0.364-0.644c0.013-0.063,0.013-0.123,0-0.185c0.013-0.063,0.013-0.123,0-0.185
				c0.048-0.23-0.059-0.468-0.364-0.644l-4.567-2.637C265.641,354.014,264.785,354.014,264.258,354.319z M298.774,360.826
				l5.431-3.136c0.306-0.176,0.413-0.415,0.365-0.644c0.013-0.063,0.013-0.123,0-0.185c0.013-0.063,0.013-0.123,0-0.185
				c0.048-0.23-0.059-0.468-0.365-0.644l-4.567-2.637c-0.527-0.305-1.383-0.305-1.91,0l-5.431,3.136
				c-0.305,0.176-0.413,0.415-0.364,0.644c-0.013,0.063-0.013,0.123,0,0.185c-0.013,0.063-0.013,0.123,0,0.185
				c-0.048,0.23,0.059,0.468,0.364,0.644l4.567,2.637C297.391,361.13,298.246,361.13,298.774,360.826z M272.469,376.013l5.431-3.136
				c0.305-0.176,0.413-0.414,0.364-0.644c0.013-0.063,0.013-0.123,0-0.185c0.013-0.063,0.013-0.123,0-0.185
				c0.048-0.23-0.059-0.468-0.364-0.644l-4.567-2.637c-0.528-0.305-1.383-0.305-1.911,0l-5.431,3.136
				c-0.305,0.176-0.413,0.415-0.364,0.644c-0.013,0.063-0.013,0.123,0,0.185c-0.013,0.063-0.013,0.123,0,0.186
				c-0.048,0.23,0.059,0.468,0.364,0.644l4.567,2.637C271.087,376.318,271.942,376.318,272.469,376.013z M316.31,350.701
				l5.431-3.136c0.306-0.176,0.413-0.415,0.365-0.644c0.013-0.063,0.013-0.123,0-0.185c0.013-0.063,0.013-0.123,0-0.185
				c0.048-0.23-0.059-0.468-0.365-0.644l-4.567-2.637c-0.527-0.305-1.383-0.305-1.911,0l-5.431,3.136
				c-0.306,0.176-0.413,0.414-0.365,0.644c-0.013,0.063-0.013,0.123,0,0.185c-0.013,0.063-0.013,0.123,0,0.185
				c-0.048,0.23,0.059,0.468,0.365,0.644l4.567,2.637C314.927,351.005,315.782,351.005,316.31,350.701z M281.238,370.95l5.431-3.136
				c0.305-0.176,0.413-0.414,0.364-0.644c0.013-0.063,0.013-0.123,0-0.185c0.013-0.063,0.013-0.123,0-0.185
				c0.048-0.23-0.059-0.468-0.364-0.644l-4.568-2.637c-0.527-0.305-1.383-0.305-1.911,0l-5.431,3.136
				c-0.305,0.176-0.412,0.415-0.364,0.644c-0.013,0.063-0.013,0.123,0,0.185c-0.013,0.063-0.013,0.123,0,0.185
				c-0.048,0.23,0.059,0.468,0.364,0.644l4.567,2.637C279.855,371.255,280.71,371.255,281.238,370.95z M290.006,365.888l5.431-3.136
				c0.305-0.176,0.412-0.414,0.364-0.644c0.013-0.063,0.013-0.123,0-0.185c0.013-0.063,0.013-0.123,0-0.185
				c0.048-0.23-0.059-0.468-0.364-0.644l-4.567-2.637c-0.528-0.304-1.383-0.304-1.911,0l-5.431,3.136
				c-0.306,0.176-0.413,0.415-0.365,0.644c-0.013,0.063-0.013,0.123,0,0.185c-0.013,0.063-0.013,0.123,0,0.185
				c-0.048,0.23,0.059,0.468,0.365,0.644l4.567,2.637C288.623,366.193,289.478,366.193,290.006,365.888z M237.953,369.506
				l-5.431,3.136c-0.306,0.176-0.413,0.415-0.365,0.644c-0.013,0.063-0.013,0.123,0,0.186c-0.013,0.062-0.013,0.123,0,0.185
				c-0.048,0.23,0.059,0.468,0.365,0.644l4.567,2.637c0.527,0.305,1.383,0.305,1.91,0l5.431-3.136
				c0.306-0.176,0.413-0.414,0.364-0.644c0.013-0.063,0.013-0.123,0-0.185c0.013-0.063,0.013-0.123,0-0.185
				c0.049-0.23-0.059-0.468-0.364-0.644l-4.567-2.637C239.336,369.201,238.481,369.201,237.953,369.506z M270.245,368.004
				l5.431-3.136c0.305-0.176,0.413-0.414,0.364-0.644c0.013-0.063,0.013-0.123,0-0.185c0.013-0.063,0.013-0.123,0-0.186
				c0.048-0.23-0.059-0.468-0.364-0.644l-4.567-2.637c-0.528-0.305-1.383-0.305-1.91,0l-5.431,3.136
				c-0.305,0.176-0.413,0.414-0.364,0.644c-0.013,0.063-0.013,0.123,0,0.186c-0.013,0.063-0.013,0.123,0,0.185
				c-0.048,0.23,0.059,0.468,0.364,0.644l4.567,2.637C268.862,368.308,269.717,368.308,270.245,368.004z M296.549,352.817
				l5.431-3.136c0.306-0.176,0.413-0.414,0.365-0.644c0.013-0.063,0.013-0.123,0-0.186c0.013-0.063,0.013-0.123,0-0.185
				c0.048-0.23-0.059-0.468-0.365-0.644l-4.567-2.637c-0.527-0.305-1.383-0.305-1.91,0l-5.431,3.136
				c-0.305,0.176-0.413,0.415-0.364,0.644c-0.013,0.063-0.013,0.123,0,0.185c-0.013,0.063-0.013,0.123,0,0.186
				c-0.048,0.23,0.059,0.468,0.364,0.644l4.567,2.637C295.166,353.121,296.022,353.121,296.549,352.817z M287.781,357.879
				l5.431-3.136c0.305-0.176,0.413-0.414,0.364-0.644c0.013-0.063,0.013-0.123,0-0.185c0.013-0.063,0.013-0.123,0-0.186
				c0.048-0.23-0.059-0.468-0.364-0.644l-4.567-2.637c-0.528-0.305-1.383-0.305-1.911,0l-5.431,3.136
				c-0.305,0.176-0.413,0.414-0.364,0.644c-0.013,0.063-0.013,0.123,0,0.186c-0.013,0.063-0.013,0.123,0,0.185
				c-0.048,0.23,0.059,0.468,0.364,0.644l4.567,2.637C286.398,358.184,287.253,358.184,287.781,357.879z M279.013,362.941
				l5.431-3.136c0.305-0.176,0.413-0.414,0.364-0.644c0.013-0.063,0.013-0.123,0-0.185c0.013-0.063,0.013-0.123,0-0.186
				c0.048-0.23-0.059-0.468-0.364-0.644l-4.567-2.637c-0.528-0.305-1.383-0.305-1.911,0l-5.431,3.136
				c-0.305,0.176-0.413,0.414-0.364,0.644c-0.013,0.063-0.013,0.123,0,0.186c-0.013,0.063-0.013,0.123,0,0.185
				c-0.048,0.23,0.059,0.468,0.364,0.644l4.567,2.637C277.63,363.246,278.485,363.246,279.013,362.941z M344.607,326.837
				c-0.013,0.063-0.013,0.123,0,0.185c-0.013,0.063-0.013,0.123,0,0.186c-0.048,0.23,0.059,0.468,0.364,0.644l4.567,2.637
				c0.528,0.305,1.383,0.305,1.911,0l5.431-3.136c0.305-0.176,0.412-0.415,0.364-0.644c0.013-0.063,0.013-0.123,0-0.185
				c0.013-0.063,0.013-0.123,0-0.185c0.048-0.23-0.059-0.468-0.364-0.644l-4.567-2.637c-0.528-0.305-1.383-0.305-1.91,0
				l-5.431,3.136C344.665,326.369,344.558,326.607,344.607,326.837z M261.477,373.066l5.431-3.136
				c0.305-0.176,0.413-0.415,0.364-0.644c0.013-0.063,0.013-0.123,0-0.185c0.013-0.063,0.013-0.123,0-0.185
				c0.048-0.23-0.059-0.468-0.364-0.644l-4.567-2.637c-0.528-0.305-1.383-0.305-1.911,0l-5.431,3.136
				c-0.306,0.176-0.413,0.414-0.365,0.644c-0.013,0.063-0.013,0.123,0,0.185c-0.013,0.063-0.013,0.123,0,0.185
				c-0.048,0.23,0.059,0.468,0.365,0.644l4.567,2.637C260.094,373.371,260.949,373.371,261.477,373.066z M253.572,370.696
				c-0.528-0.305-1.383-0.305-1.91,0l-5.431,3.136c-0.306,0.176-0.413,0.414-0.365,0.644c-0.013,0.063-0.013,0.123,0,0.185
				c-0.013,0.063-0.013,0.123,0,0.185c-0.048,0.23,0.059,0.468,0.365,0.644l4.567,2.637c0.528,0.305,1.383,0.305,1.911,0
				l5.431-3.136c0.306-0.176,0.413-0.415,0.365-0.644c0.013-0.063,0.013-0.123,0-0.185c0.013-0.063,0.013-0.123,0-0.185
				c0.048-0.23-0.059-0.468-0.365-0.644L253.572,370.696z M281.794,344.194l-5.431,3.136c-0.306,0.176-0.413,0.414-0.364,0.644
				c-0.013,0.063-0.013,0.123,0,0.186c-0.013,0.063-0.013,0.123,0,0.185c-0.048,0.23,0.059,0.468,0.364,0.644l4.567,2.637
				c0.528,0.305,1.383,0.305,1.911,0l5.431-3.136c0.305-0.176,0.413-0.415,0.364-0.644c0.013-0.063,0.013-0.123,0-0.185
				c0.013-0.063,0.013-0.123,0-0.186c0.048-0.23-0.059-0.468-0.364-0.644l-4.567-2.637
				C283.177,343.89,282.321,343.89,281.794,344.194z M290.562,339.132l-5.431,3.136c-0.305,0.176-0.413,0.414-0.364,0.644
				c-0.013,0.063-0.013,0.123,0,0.186c-0.013,0.063-0.013,0.123,0,0.185c-0.048,0.23,0.059,0.468,0.364,0.644l4.567,2.637
				c0.528,0.305,1.383,0.305,1.911,0l5.431-3.136c0.306-0.176,0.413-0.415,0.365-0.644c0.013-0.063,0.013-0.123,0-0.185
				c0.013-0.063,0.013-0.123,0-0.186c0.048-0.23-0.059-0.468-0.365-0.644l-4.567-2.637
				C291.945,338.828,291.09,338.828,290.562,339.132z M305.317,347.754l5.431-3.136c0.306-0.176,0.413-0.414,0.365-0.644
				c0.013-0.063,0.013-0.123,0-0.186c0.013-0.063,0.013-0.123,0-0.185c0.048-0.23-0.059-0.468-0.365-0.644l-4.567-2.637
				c-0.528-0.305-1.383-0.305-1.911,0l-5.431,3.136c-0.306,0.176-0.413,0.414-0.365,0.644c-0.013,0.063-0.013,0.123,0,0.185
				c-0.013,0.063-0.013,0.123,0,0.186c-0.048,0.23,0.059,0.468,0.365,0.644l4.567,2.637
				C303.934,348.059,304.79,348.059,305.317,347.754z M299.33,334.07l-5.431,3.136c-0.306,0.176-0.413,0.414-0.364,0.644
				c-0.013,0.063-0.013,0.123,0,0.185c-0.013,0.063-0.013,0.123,0,0.185c-0.049,0.23,0.059,0.468,0.364,0.644l4.567,2.637
				c0.528,0.305,1.383,0.305,1.91,0l5.431-3.136c0.305-0.177,0.413-0.415,0.364-0.644c0.013-0.063,0.013-0.123,0-0.186
				c0.013-0.063,0.013-0.123,0-0.185c0.048-0.23-0.059-0.468-0.364-0.644l-4.567-2.637
				C300.713,333.765,299.858,333.765,299.33,334.07z M273.025,349.257l-5.431,3.136c-0.305,0.176-0.413,0.414-0.364,0.644
				c-0.013,0.063-0.013,0.123,0,0.185c-0.013,0.063-0.013,0.123,0,0.186c-0.048,0.23,0.059,0.468,0.364,0.644
				c4.483,2.588,5.26,3.34,6.478,2.637l5.431-3.136c0.305-0.176,0.413-0.415,0.364-0.644c0.013-0.063,0.013-0.123,0-0.185
				c0.013-0.063,0.013-0.123,0-0.186c0.048-0.23-0.059-0.468-0.364-0.644l-4.567-2.637
				C274.409,348.952,273.553,348.952,273.025,349.257z M314.085,342.692l8.258-4.768c0.306-0.176,0.413-0.415,0.365-0.644
				c0.013-0.063,0.013-0.123,0-0.185c0.013-0.063,0.013-0.123,0-0.185c0.048-0.23-0.059-0.468-0.365-0.644l-4.567-2.637
				c-0.527-0.305-1.383-0.305-1.91,0l-8.258,4.768c-0.306,0.176-0.413,0.414-0.364,0.644c-0.013,0.063-0.013,0.123,0,0.185
				c-0.013,0.063-0.013,0.123,0,0.186c-0.049,0.23,0.059,0.468,0.364,0.644l4.567,2.637
				C312.703,342.997,313.558,342.997,314.085,342.692z M314.576,331.644l-4.567-2.637c-0.527-0.305-1.383-0.305-1.91,0l-5.431,3.136
				c-0.305,0.176-0.413,0.414-0.364,0.644c-0.013,0.062-0.013,0.123,0,0.185c-0.013,0.063-0.013,0.123,0,0.185
				c-0.048,0.23,0.059,0.468,0.364,0.644l4.567,2.637c0.527,0.305,1.383,0.305,1.91,0l5.431-3.136
				c0.306-0.177,0.413-0.415,0.365-0.644c0.013-0.063,0.013-0.123,0-0.186c0.013-0.063,0.013-0.123,0-0.185
				C314.989,332.059,314.882,331.82,314.576,331.644z M282.906,335.918l4.567,2.637c0.528,0.305,1.383,0.305,1.911,0l5.431-3.136
				c0.305-0.176,0.413-0.414,0.364-0.644c0.013-0.063,0.013-0.123,0-0.185c0.013-0.063,0.013-0.123,0-0.185
				c0.048-0.23-0.059-0.468-0.364-0.644l-4.567-2.637c-0.528-0.305-1.383-0.305-1.911,0l-5.431,3.136
				c-0.305,0.176-0.413,0.415-0.364,0.644c-0.013,0.063-0.013,0.123,0,0.186c-0.013,0.062-0.013,0.123,0,0.185
				C282.493,335.504,282.601,335.742,282.906,335.918z M256.504,392.638l-4.567-2.637c-0.528-0.305-1.383-0.305-1.911,0
				l-5.431,3.136c-0.305,0.176-0.412,0.414-0.364,0.644c-0.013,0.063-0.013,0.123,0,0.186c-0.013,0.063-0.013,0.123,0,0.185
				c-0.048,0.23,0.059,0.468,0.364,0.644l4.568,2.637c0.527,0.305,1.383,0.305,1.91,0l5.431-3.136
				c0.305-0.176,0.413-0.415,0.364-0.644c0.013-0.063,0.013-0.123,0-0.186c0.013-0.062,0.013-0.122,0-0.185
				C256.916,393.052,256.809,392.814,256.504,392.638z M265.272,387.576l-4.567-2.637c-0.527-0.305-1.383-0.305-1.91,0l-5.431,3.136
				c-0.305,0.176-0.413,0.414-0.364,0.644c-0.013,0.063-0.013,0.123,0,0.186c-0.013,0.063-0.013,0.123,0,0.185
				c-0.048,0.23,0.059,0.468,0.364,0.644l4.567,2.637c0.528,0.305,1.383,0.305,1.911,0l5.431-3.136
				c0.305-0.176,0.413-0.415,0.364-0.644c0.013-0.063,0.013-0.123,0-0.186c0.013-0.062,0.013-0.123,0-0.185
				C265.684,387.99,265.577,387.752,265.272,387.576z M251.96,387.42c0.013-0.063,0.013-0.123,0-0.185
				c0.013-0.063,0.013-0.123,0-0.186c0.049-0.23-0.059-0.468-0.364-0.644l-4.567-2.637c-0.528-0.305-1.383-0.305-1.911,0
				l-8.258,4.768c-0.305,0.176-0.413,0.415-0.364,0.644c-0.013,0.063-0.013,0.123,0,0.185c-0.013,0.063-0.013,0.123,0,0.185
				c-0.048,0.23,0.059,0.468,0.364,0.644l4.568,2.637c0.527,0.305,1.383,0.305,1.911,0l8.258-4.768
				C251.902,387.888,252.009,387.65,251.96,387.42z M274.04,382.513l-4.567-2.637c-0.528-0.305-1.383-0.305-1.911,0l-5.431,3.136
				c-0.305,0.176-0.413,0.414-0.364,0.644c-0.013,0.063-0.013,0.123,0,0.185c-0.013,0.063-0.013,0.123,0,0.185
				c-0.048,0.23,0.059,0.468,0.364,0.644l4.567,2.637c0.528,0.305,1.383,0.305,1.911,0l5.431-3.136
				c0.306-0.177,0.413-0.415,0.364-0.644c0.013-0.063,0.013-0.123,0-0.186c0.013-0.063,0.013-0.123,0-0.185
				C274.453,382.928,274.346,382.69,274.04,382.513z M225.035,375.274c0.013-0.063,0.013-0.123,0-0.185
				c0.013-0.063,0.013-0.123,0-0.185c0.048-0.23-0.059-0.468-0.365-0.644l-4.567-2.637c-0.528-0.305-1.383-0.305-1.911,0
				l-5.431,3.136c-0.306,0.176-0.413,0.414-0.364,0.644c-0.013,0.063-0.013,0.123,0,0.185c-0.013,0.063-0.013,0.123,0,0.186
				c-0.048,0.23,0.059,0.468,0.364,0.644l4.567,2.637c0.527,0.305,1.383,0.305,1.911,0l5.431-3.136
				C224.976,375.742,225.083,375.504,225.035,375.274z M240.968,384.473c0.013-0.063,0.013-0.123,0-0.185
				c0.013-0.063,0.013-0.123,0-0.185c0.048-0.23-0.059-0.468-0.365-0.644l-4.567-2.637c-0.527-0.305-1.383-0.305-1.91,0
				l-5.431,3.136c-0.306,0.176-0.413,0.415-0.365,0.644c-0.013,0.063-0.013,0.123,0,0.185c-0.013,0.063-0.013,0.123,0,0.185
				c-0.048,0.23,0.059,0.468,0.365,0.644l4.567,2.637c0.528,0.305,1.383,0.305,1.911,0l5.431-3.136
				C240.909,384.941,241.016,384.703,240.968,384.473z M236.028,378.22c0.013-0.063,0.013-0.123,0-0.185
				c0.013-0.063,0.013-0.123,0-0.185c0.048-0.23-0.059-0.468-0.365-0.644l-4.567-2.637c-0.527-0.305-1.383-0.305-1.911,0
				l-8.258,4.768c-0.306,0.176-0.413,0.414-0.365,0.644c-0.013,0.063-0.013,0.123,0,0.185c-0.013,0.063-0.013,0.123,0,0.185
				c-0.048,0.23,0.059,0.468,0.365,0.644l4.567,2.637c0.528,0.305,1.383,0.305,1.911,0l8.258-4.768
				C235.969,378.689,236.076,378.451,236.028,378.22z M364.895,330.321l-4.567-2.637c-0.528-0.305-1.383-0.305-1.911,0l-5.431,3.136
				c-0.306,0.176-0.413,0.414-0.364,0.644c-0.013,0.063-0.013,0.123,0,0.185c-0.013,0.063-0.013,0.123,0,0.186
				c-0.049,0.23,0.059,0.468,0.364,0.644l4.567,2.637c0.528,0.305,1.383,0.305,1.91,0l5.431-3.135
				c0.306-0.177,0.413-0.415,0.365-0.644c0.013-0.063,0.013-0.123,0-0.186c0.013-0.063,0.013-0.123,0-0.185
				C365.308,330.736,365.201,330.498,364.895,330.321z M347.359,340.446l-4.567-2.637c-0.528-0.305-1.383-0.305-1.911,0
				l-5.431,3.136c-0.305,0.176-0.413,0.415-0.364,0.644c-0.013,0.063-0.013,0.123,0,0.185c-0.013,0.063-0.013,0.123,0,0.186
				c-0.048,0.23,0.059,0.468,0.364,0.644l4.567,2.637c0.528,0.305,1.383,0.305,1.911,0l5.431-3.136
				c0.306-0.176,0.413-0.414,0.365-0.644c0.013-0.063,0.013-0.123,0-0.186c0.013-0.063,0.013-0.123,0-0.185
				C347.772,340.861,347.665,340.622,347.359,340.446z M356.128,335.384l-4.567-2.637c-0.528-0.305-1.383-0.305-1.911,0
				l-5.431,3.136c-0.306,0.176-0.413,0.414-0.365,0.644c-0.013,0.063-0.013,0.123,0,0.185c-0.013,0.063-0.013,0.123,0,0.186
				c-0.048,0.23,0.059,0.468,0.365,0.644l4.567,2.637c0.528,0.305,1.383,0.305,1.91,0l5.431-3.136
				c0.305-0.176,0.413-0.414,0.364-0.644c0.013-0.063,0.013-0.123,0-0.186c0.013-0.063,0.013-0.123,0-0.185
				C356.54,335.798,356.433,335.56,356.128,335.384z M282.808,377.451l-4.567-2.637c-0.528-0.305-1.383-0.305-1.911,0l-5.431,3.135
				c-0.305,0.176-0.413,0.415-0.364,0.644c-0.013,0.063-0.013,0.123,0,0.186c-0.013,0.063-0.013,0.123,0,0.185
				c-0.048,0.23,0.059,0.468,0.364,0.644l4.567,2.637c0.528,0.305,1.383,0.305,1.911,0l5.431-3.136
				c0.305-0.176,0.413-0.414,0.364-0.644c0.013-0.062,0.013-0.122,0-0.185c0.013-0.063,0.013-0.123,0-0.185
				C283.221,377.866,283.113,377.627,282.808,377.451z M221.529,371.354l4.567,2.637c0.527,0.305,1.383,0.305,1.911,0l5.431-3.136
				c0.306-0.176,0.413-0.415,0.365-0.644c0.013-0.063,0.013-0.123,0-0.185c0.013-0.063,0.013-0.123,0-0.186
				c0.048-0.23-0.059-0.468-0.365-0.644l-4.567-2.637c-0.527-0.305-1.383-0.305-1.91,0l-5.431,3.136
				c-0.306,0.176-0.413,0.414-0.364,0.644c-0.013,0.063-0.013,0.123,0,0.186c-0.013,0.063-0.013,0.123,0,0.185
				C221.116,370.94,221.224,371.178,221.529,371.354z M326.793,352.147l-4.567-2.637c-0.527-0.305-1.383-0.305-1.91,0
				l-40.608,23.445c-0.305,0.176-0.413,0.415-0.364,0.644c-0.013,0.063-0.013,0.123,0,0.185c-0.013,0.063-0.013,0.123,0,0.186
				c-0.048,0.23,0.059,0.468,0.364,0.644l4.567,2.637c0.528,0.305,1.383,0.305,1.911,0l40.608-23.445
				c0.306-0.176,0.413-0.414,0.364-0.644c0.013-0.063,0.013-0.123,0-0.185c0.013-0.063,0.013-0.123,0-0.185
				C327.206,352.561,327.098,352.323,326.793,352.147z M338.191,345.475l-4.567-2.637c-0.528-0.305-1.383-0.305-1.911,0
				l-8.258,4.768c-0.305,0.176-0.413,0.414-0.364,0.644c-0.013,0.063-0.013,0.123,0,0.185c-0.013,0.063-0.013,0.123,0,0.185
				c-0.048,0.23,0.059,0.468,0.364,0.644l4.567,2.637c0.528,0.305,1.383,0.305,1.911,0l8.258-4.768
				c0.306-0.177,0.413-0.415,0.364-0.644c0.013-0.063,0.013-0.123,0-0.186c0.013-0.063,0.013-0.123,0-0.185
				C338.604,345.89,338.497,345.651,338.191,345.475z M333.913,340.613l5.431-3.136c0.305-0.176,0.413-0.414,0.364-0.644
				c0.013-0.063,0.013-0.123,0-0.185c0.013-0.063,0.013-0.123,0-0.185c0.048-0.23-0.059-0.468-0.364-0.644l-4.567-2.637
				c-0.527-0.305-1.383-0.305-1.911,0l-5.431,3.136c-0.305,0.176-0.413,0.415-0.364,0.644c-0.013,0.063-0.013,0.123,0,0.186
				c-0.013,0.062-0.013,0.123,0,0.185c-0.048,0.23,0.059,0.468,0.364,0.644l4.567,2.637
				C332.53,340.918,333.385,340.918,333.913,340.613z M320.97,313.995l4.567,2.637c0.527,0.304,1.383,0.304,1.91,0l5.431-3.136
				c0.306-0.176,0.413-0.415,0.364-0.644c0.013-0.063,0.013-0.123,0-0.186c0.013-0.062,0.013-0.123,0-0.185
				c0.048-0.23-0.059-0.468-0.364-0.644l-4.567-2.637c-0.528-0.305-1.383-0.305-1.911,0l-5.431,3.136
				c-0.306,0.176-0.413,0.414-0.365,0.644c-0.013,0.063-0.013,0.123,0,0.185c-0.013,0.063-0.013,0.123,0,0.185
				C320.557,313.58,320.664,313.818,320.97,313.995z M312.201,319.057l4.567,2.637c0.528,0.305,1.383,0.305,1.911,0l5.431-3.136
				c0.306-0.176,0.413-0.415,0.365-0.644c0.013-0.063,0.013-0.123,0-0.186c0.013-0.062,0.013-0.123,0-0.185
				c0.048-0.23-0.059-0.468-0.365-0.644l-4.567-2.637c-0.527-0.305-1.383-0.305-1.911,0l-5.431,3.136
				c-0.305,0.176-0.413,0.414-0.364,0.644c-0.013,0.063-0.013,0.123,0,0.185c-0.013,0.063-0.013,0.123,0,0.185
				C311.789,318.642,311.896,318.881,312.201,319.057z M291.674,330.856l4.567,2.637c0.528,0.305,1.383,0.305,1.91,0l8.258-4.768
				c0.305-0.176,0.413-0.415,0.364-0.644c0.013-0.063,0.013-0.123,0-0.186c0.013-0.062,0.013-0.122,0-0.185
				c0.048-0.23-0.059-0.468-0.364-0.644l-4.567-2.637c-0.528-0.305-1.383-0.305-1.911,0l-8.258,4.768
				c-0.305,0.176-0.413,0.415-0.364,0.644c-0.013,0.063-0.013,0.123,0,0.185c-0.013,0.063-0.013,0.123,0,0.186
				C291.262,330.441,291.369,330.679,291.674,330.856z M303.434,324.119l4.567,2.637c0.527,0.305,1.383,0.305,1.91,0l5.431-3.136
				c0.306-0.176,0.413-0.415,0.365-0.644c0.013-0.063,0.013-0.123,0-0.185c0.013-0.063,0.013-0.123,0-0.186
				c0.048-0.23-0.059-0.468-0.365-0.644l-4.567-2.637c-0.527-0.305-1.383-0.305-1.91,0l-5.431,3.136
				c-0.306,0.176-0.413,0.415-0.365,0.644c-0.013,0.063-0.013,0.123,0,0.185c-0.013,0.063-0.013,0.123,0,0.185
				C303.021,323.705,303.128,323.943,303.434,324.119z M328.601,317.596c-0.013,0.063-0.013,0.123,0,0.186
				c-0.013,0.063-0.013,0.123,0,0.185c-0.048,0.23,0.059,0.468,0.365,0.644l4.567,2.637c0.528,0.305,1.383,0.305,1.911,0
				l5.431-3.136c0.306-0.176,0.413-0.414,0.365-0.644c0.013-0.062,0.013-0.122,0-0.185c0.013-0.063,0.013-0.123,0-0.185
				c0.048-0.23-0.059-0.468-0.365-0.644l-4.567-2.637c-0.527-0.305-1.383-0.305-1.911,0l-5.431,3.135
				C328.66,317.128,328.553,317.366,328.601,317.596z M342.681,335.551l5.431-3.136c0.306-0.176,0.413-0.415,0.364-0.644
				c0.013-0.063,0.013-0.123,0-0.185c0.013-0.063,0.013-0.123,0-0.185c0.048-0.23-0.059-0.468-0.364-0.644l-4.567-2.637
				c-0.528-0.305-1.383-0.305-1.91,0l-5.431,3.136c-0.305,0.176-0.413,0.415-0.364,0.644c-0.013,0.063-0.013,0.123,0,0.185
				c-0.013,0.063-0.013,0.123,0,0.186c-0.048,0.23,0.059,0.468,0.364,0.644l4.567,2.637
				C341.298,335.856,342.153,335.856,342.681,335.551z M239.066,361.23l4.567,2.637c0.528,0.305,1.383,0.305,1.911,0l5.431-3.136
				c0.306-0.177,0.413-0.415,0.365-0.644c0.013-0.063,0.013-0.123,0-0.186c0.013-0.063,0.013-0.123,0-0.185
				c0.048-0.23-0.059-0.468-0.365-0.644l-4.567-2.637c-0.527-0.305-1.383-0.305-1.91,0l-5.431,3.136
				c-0.306,0.176-0.413,0.415-0.365,0.644c-0.013,0.063-0.013,0.123,0,0.185c-0.013,0.063-0.013,0.123,0,0.185
				C238.653,360.815,238.76,361.053,239.066,361.23z M247.834,356.168c6.581,3.8,4.306,3.891,11.909-0.499
				c0.306-0.177,0.413-0.415,0.364-0.644c0.013-0.063,0.013-0.123,0-0.186c0.013-0.063,0.013-0.123,0-0.185
				c0.049-0.23-0.059-0.468-0.364-0.644l-4.567-2.637c-0.527-0.305-1.383-0.305-1.91,0l-5.431,3.136
				c-0.306,0.176-0.413,0.414-0.365,0.644c-0.013,0.063-0.013,0.123,0,0.185c-0.013,0.063-0.013,0.123,0,0.185
				C247.421,355.753,247.528,355.991,247.834,356.168z M230.298,366.292l4.567,2.637c0.527,0.305,1.383,0.305,1.911,0l5.431-3.136
				c0.306-0.176,0.413-0.415,0.365-0.644c0.013-0.063,0.013-0.123,0-0.185c0.013-0.063,0.013-0.123,0-0.186
				c0.048-0.23-0.059-0.468-0.365-0.644l-4.567-2.637c-0.527-0.305-1.383-0.305-1.911,0l-5.431,3.136
				c-0.306,0.176-0.413,0.414-0.365,0.644c-0.013,0.063-0.013,0.123,0,0.186c-0.013,0.063-0.013,0.123,0,0.185
				C229.885,365.878,229.992,366.116,230.298,366.292z M256.602,351.105l4.567,2.637c0.528,0.305,1.383,0.305,1.911,0l5.431-3.135
				c0.306-0.176,0.412-0.415,0.365-0.644c0.013-0.063,0.013-0.123,0-0.186c0.013-0.063,0.013-0.123,0-0.185
				c0.048-0.23-0.059-0.468-0.365-0.644l-4.567-2.637c-0.527-0.305-1.383-0.305-1.91,0l-5.431,3.136
				c-0.306,0.176-0.413,0.414-0.365,0.644c-0.013,0.062-0.013,0.123,0,0.185c-0.013,0.063-0.013,0.123,0,0.185
				C256.189,350.69,256.296,350.929,256.602,351.105z M274.138,340.98l4.567,2.637c0.528,0.305,1.383,0.305,1.911,0l5.431-3.136
				c0.305-0.176,0.413-0.414,0.364-0.644c0.013-0.063,0.013-0.123,0-0.185c0.013-0.063,0.013-0.123,0-0.185
				c0.048-0.23-0.059-0.468-0.364-0.644l-4.567-2.637c-0.528-0.305-1.383-0.305-1.911,0l-5.431,3.136
				c-0.305,0.176-0.412,0.415-0.364,0.644c-0.013,0.063-0.013,0.123,0,0.186c-0.013,0.063-0.013,0.123,0,0.185
				C273.725,340.566,273.833,340.804,274.138,340.98z M265.37,346.043l4.567,2.637c0.528,0.305,1.383,0.305,1.911,0l5.431-3.136
				c0.306-0.176,0.413-0.414,0.364-0.644c0.013-0.063,0.013-0.123,0-0.185c0.013-0.063,0.013-0.123,0-0.185
				c0.049-0.23-0.059-0.468-0.364-0.644l-4.567-2.637c-0.528-0.305-1.383-0.305-1.911,0l-5.431,3.136
				c-0.305,0.176-0.413,0.415-0.364,0.644c-0.013,0.063-0.013,0.123,0,0.186c-0.013,0.063-0.013,0.123,0,0.185
				C264.957,345.628,265.064,345.866,265.37,346.043z M333.594,322.495l-6.012-3.471c-0.656-0.379-1.719-0.379-2.376,0
				l-13.761,7.945c-0.37,0.213-0.508,0.5-0.46,0.778c-0.011,0.063-0.011,0.123,0,0.185c-0.011,0.063-0.011,0.123,0,0.186
				c-0.047,0.279,0.091,0.565,0.46,0.778l11.994,6.925c0.656,0.379,1.719,0.379,2.375,0l22.827-13.179
				c0.37-0.214,0.508-0.5,0.461-0.779c0.011-0.063,0.011-0.122,0-0.185c0.011-0.063,0.011-0.122,0-0.185
				c0.047-0.279-0.091-0.565-0.461-0.778l-4.464-2.578c-0.436-0.251-1.141-0.253-1.579-0.003l-7.669,4.364
				C334.559,322.709,333.962,322.707,333.594,322.495z"/>
			<path style="fill:#FDF6ED;" d="M224.67,375.121l-5.431,3.136c-0.527,0.305-1.383,0.305-1.911,0l-4.567-2.637
				c-0.528-0.305-0.528-0.799,0-1.103l5.431-3.136c0.528-0.305,1.383-0.305,1.911,0l4.567,2.637
				C225.198,374.322,225.198,374.816,224.67,375.121z M233.438,368.955l-4.567-2.637c-0.527-0.305-1.383-0.305-1.91,0l-5.431,3.136
				c-0.528,0.305-0.528,0.798,0,1.103l4.567,2.637c0.527,0.305,1.383,0.305,1.911,0l5.431-3.136
				C233.966,369.754,233.966,369.26,233.438,368.955z M242.206,363.893l-4.567-2.637c-0.527-0.305-1.383-0.305-1.911,0l-5.431,3.136
				c-0.528,0.305-0.528,0.799,0,1.103l4.567,2.637c0.527,0.305,1.383,0.305,1.911,0l5.431-3.136
				C242.734,364.691,242.734,364.197,242.206,363.893z M250.974,358.831l-4.567-2.637c-0.527-0.305-1.383-0.305-1.91,0l-5.431,3.136
				c-0.528,0.305-0.528,0.798,0,1.103l4.567,2.637c0.527,0.305,1.383,0.305,1.91,0l5.431-3.136
				C251.502,359.629,251.502,359.135,250.974,358.831z M259.743,353.768l-4.567-2.637c-0.527-0.305-1.383-0.305-1.91,0l-5.431,3.136
				c-0.528,0.304-0.528,0.798,0,1.103l4.567,2.637c0.527,0.305,1.383,0.305,1.911,0l5.431-3.136
				C260.27,354.567,260.27,354.073,259.743,353.768z M268.511,348.706l-4.567-2.637c-0.527-0.305-1.383-0.305-1.91,0l-5.431,3.136
				c-0.528,0.305-0.528,0.798,0,1.103l4.567,2.637c0.528,0.305,1.383,0.305,1.911,0l5.431-3.136
				C269.038,349.504,269.038,349.01,268.511,348.706z M277.279,343.643l-4.567-2.637c-0.528-0.305-1.383-0.305-1.91,0l-5.431,3.136
				c-0.528,0.305-0.528,0.799,0,1.103l4.567,2.637c0.528,0.305,1.383,0.305,1.911,0l5.431-3.136
				C277.807,344.442,277.807,343.948,277.279,343.643z M286.047,338.581l-4.567-2.637c-0.528-0.305-1.383-0.305-1.911,0
				l-5.431,3.136c-0.527,0.305-0.527,0.798,0,1.103l4.567,2.637c0.528,0.305,1.383,0.305,1.911,0l5.431-3.136
				C286.574,339.379,286.574,338.886,286.047,338.581z M294.815,333.518l-4.567-2.637c-0.528-0.305-1.383-0.305-1.911,0
				l-5.431,3.136c-0.527,0.305-0.527,0.799,0,1.103l4.567,2.637c0.528,0.305,1.383,0.305,1.911,0l5.431-3.136
				C295.343,334.317,295.343,333.823,294.815,333.518z M306.41,326.824l-4.567-2.637c-0.528-0.304-1.383-0.304-1.911,0l-8.258,4.768
				c-0.527,0.305-0.527,0.799,0,1.103l4.567,2.637c0.528,0.305,1.383,0.305,1.911,0l8.258-4.768
				C306.938,327.623,306.938,327.129,306.41,326.824z M339.344,335.577l-4.567-2.637c-0.528-0.305-1.383-0.305-1.911,0l-5.431,3.136
				c-0.528,0.305-0.528,0.799,0,1.103l4.567,2.637c0.528,0.305,1.383,0.305,1.911,0l5.431-3.136
				C339.871,336.375,339.871,335.882,339.344,335.577z M348.112,330.515l-4.567-2.637c-0.528-0.305-1.383-0.305-1.91,0l-5.431,3.136
				c-0.527,0.305-0.527,0.798,0,1.103l4.567,2.637c0.528,0.305,1.383,0.305,1.911,0l5.431-3.136
				C348.639,331.313,348.639,330.819,348.112,330.515z M356.88,325.452l-4.567-2.637c-0.528-0.305-1.383-0.305-1.911,0l-5.431,3.136
				c-0.527,0.305-0.527,0.799,0,1.103l4.567,2.637c0.528,0.305,1.383,0.305,1.911,0l5.431-3.136
				C357.407,326.251,357.407,325.757,356.88,325.452z M347.359,340.205l-4.567-2.637c-0.528-0.305-1.383-0.305-1.911,0l-5.431,3.136
				c-0.527,0.305-0.527,0.798,0,1.103l4.567,2.637c0.528,0.305,1.383,0.305,1.911,0l5.431-3.136
				C347.887,341.004,347.887,340.51,347.359,340.205z M356.128,335.142l-4.567-2.637c-0.528-0.305-1.383-0.305-1.911,0l-5.431,3.136
				c-0.528,0.305-0.528,0.798,0,1.103l4.567,2.637c0.528,0.305,1.383,0.305,1.91,0l5.431-3.136
				C356.655,335.941,356.655,335.447,356.128,335.142z M364.895,330.08l-4.567-2.637c-0.528-0.305-1.383-0.305-1.911,0l-5.431,3.136
				c-0.528,0.305-0.528,0.798,0,1.103l4.567,2.637c0.527,0.304,1.383,0.304,1.91,0l5.431-3.136
				C365.423,330.879,365.423,330.385,364.895,330.08z M235.663,376.964l-4.567-2.637c-0.527-0.305-1.383-0.305-1.911,0l-8.258,4.768
				c-0.528,0.305-0.528,0.798,0,1.103l4.567,2.637c0.527,0.305,1.383,0.305,1.911,0l8.258-4.767
				C236.191,377.763,236.191,377.269,235.663,376.964z M244.431,371.902l-4.567-2.637c-0.527-0.305-1.383-0.305-1.911,0
				l-5.431,3.136c-0.528,0.305-0.528,0.798,0,1.103l4.567,2.637c0.527,0.305,1.383,0.305,1.91,0l5.431-3.136
				C244.959,372.7,244.959,372.206,244.431,371.902z M253.199,366.839l-4.567-2.637c-0.527-0.305-1.383-0.305-1.911,0l-5.431,3.136
				c-0.528,0.305-0.528,0.799,0,1.103l4.567,2.637c0.527,0.305,1.383,0.305,1.911,0l5.431-3.136
				C253.727,367.638,253.727,367.144,253.199,366.839z M261.967,361.777l-4.567-2.637c-0.528-0.305-1.383-0.305-1.91,0l-5.431,3.136
				c-0.528,0.305-0.528,0.798,0,1.103l4.567,2.637c0.528,0.305,1.383,0.305,1.911,0l5.431-3.136
				C262.495,362.576,262.495,362.082,261.967,361.777z M270.736,356.715l-4.567-2.637c-0.528-0.305-1.383-0.305-1.91,0l-5.431,3.136
				c-0.527,0.305-0.527,0.798,0,1.103l4.567,2.637c0.528,0.305,1.383,0.305,1.911,0l5.431-3.136
				C271.263,357.513,271.263,357.019,270.736,356.715z M279.504,351.652l-4.567-2.637c-0.528-0.305-1.383-0.305-1.911,0
				l-5.431,3.136c-0.527,0.305-0.527,0.798,0,1.103l4.567,2.637c0.528,0.305,1.383,0.305,1.911,0l5.431-3.136
				C280.031,352.451,280.031,351.957,279.504,351.652z M288.272,346.59l-4.567-2.637c-0.528-0.305-1.383-0.305-1.911,0l-5.431,3.136
				c-0.527,0.305-0.527,0.798,0,1.103l4.567,2.637c0.528,0.305,1.383,0.305,1.911,0l5.431-3.136
				C288.799,347.389,288.799,346.895,288.272,346.59z M297.04,341.528l-4.567-2.637c-0.528-0.305-1.383-0.305-1.911,0l-5.431,3.136
				c-0.527,0.305-0.527,0.798,0,1.103l4.567,2.637c0.528,0.305,1.383,0.305,1.911,0l5.431-3.136
				C297.567,342.326,297.567,341.832,297.04,341.528z M305.808,336.466l-4.567-2.637c-0.528-0.305-1.383-0.305-1.911,0l-5.431,3.136
				c-0.527,0.305-0.527,0.798,0,1.103l4.567,2.637c0.528,0.305,1.383,0.305,1.91,0l5.431-3.136
				C306.336,337.264,306.336,336.77,305.808,336.466z M314.576,331.403l-4.567-2.637c-0.528-0.305-1.383-0.305-1.911,0l-5.431,3.136
				c-0.528,0.305-0.528,0.798,0,1.103l4.567,2.637c0.528,0.305,1.383,0.305,1.91,0l5.431-3.136
				C315.104,332.202,315.104,331.708,314.576,331.403z M240.603,383.216l-4.567-2.637c-0.527-0.305-1.383-0.305-1.91,0l-5.431,3.136
				c-0.528,0.305-0.528,0.799,0,1.103l4.567,2.637c0.527,0.305,1.383,0.305,1.911,0l5.431-3.136
				C241.131,384.015,241.131,383.521,240.603,383.216z M249.371,378.154l-4.567-2.637c-0.527-0.305-1.383-0.305-1.911,0
				l-5.431,3.136c-0.528,0.305-0.528,0.798,0,1.103l4.567,2.637c0.527,0.305,1.383,0.305,1.911,0l5.431-3.136
				C249.899,378.953,249.899,378.459,249.371,378.154z M258.139,373.092l-4.567-2.637c-0.528-0.305-1.383-0.305-1.91,0l-5.431,3.136
				c-0.528,0.305-0.528,0.798,0,1.103l4.567,2.637c0.528,0.305,1.383,0.305,1.911,0l5.431-3.136
				C258.667,373.89,258.667,373.397,258.139,373.092z M266.908,368.03l-4.567-2.637c-0.528-0.305-1.383-0.305-1.911,0l-5.431,3.136
				c-0.527,0.305-0.527,0.798,0,1.103l4.567,2.637c0.528,0.305,1.383,0.305,1.911,0l5.431-3.136
				C267.435,368.828,267.435,368.334,266.908,368.03z M256.504,392.397l-4.567-2.637c-0.528-0.305-1.383-0.305-1.911,0l-5.431,3.136
				c-0.528,0.305-0.528,0.798,0,1.103l4.567,2.637c0.528,0.305,1.383,0.305,1.911,0l5.431-3.136
				C257.031,393.195,257.031,392.702,256.504,392.397z M265.272,387.335l-4.567-2.637c-0.528-0.305-1.383-0.305-1.91,0l-5.431,3.136
				c-0.527,0.305-0.527,0.799,0,1.103l4.567,2.637c0.528,0.305,1.383,0.305,1.911,0l5.431-3.136
				C265.799,388.133,265.799,387.639,265.272,387.335z M274.04,382.272l-4.567-2.637c-0.528-0.305-1.383-0.305-1.911,0l-5.431,3.136
				c-0.527,0.305-0.527,0.798,0,1.103l4.567,2.637c0.528,0.305,1.383,0.305,1.911,0l5.431-3.136
				C274.567,383.071,274.567,382.577,274.04,382.272z M282.808,377.21l-4.567-2.637c-0.528-0.305-1.383-0.305-1.911,0l-5.431,3.136
				c-0.527,0.305-0.527,0.798,0,1.103l4.567,2.637c0.528,0.305,1.383,0.305,1.911,0l5.431-3.136
				C283.336,378.008,283.336,377.514,282.808,377.21z M338.191,345.234l-4.567-2.637c-0.528-0.305-1.383-0.305-1.911,0l-8.258,4.768
				c-0.527,0.305-0.527,0.798,0,1.103l4.567,2.637c0.528,0.305,1.383,0.305,1.911,0l8.258-4.767
				C338.719,346.033,338.719,345.539,338.191,345.234z M275.676,362.967l-4.567-2.637c-0.528-0.305-1.383-0.305-1.911,0
				l-5.431,3.136c-0.527,0.304-0.527,0.798,0,1.103l4.567,2.637c0.528,0.305,1.383,0.305,1.911,0l5.431-3.136
				C276.203,363.766,276.203,363.272,275.676,362.967z M284.444,357.905l-4.567-2.637c-0.528-0.305-1.383-0.305-1.911,0
				l-5.431,3.136c-0.527,0.305-0.527,0.798,0,1.103l4.567,2.637c0.528,0.305,1.383,0.305,1.911,0l5.431-3.136
				C284.971,358.703,284.971,358.21,284.444,357.905z M293.212,352.843l-4.567-2.637c-0.528-0.305-1.383-0.305-1.911,0l-5.431,3.136
				c-0.527,0.305-0.527,0.799,0,1.103l4.567,2.637c0.528,0.305,1.383,0.305,1.91,0l5.431-3.136
				C293.74,353.641,293.74,353.147,293.212,352.843z M301.98,347.78l-4.567-2.637c-0.528-0.305-1.383-0.305-1.911,0l-5.431,3.136
				c-0.527,0.305-0.527,0.798,0,1.103l4.567,2.637c0.528,0.305,1.383,0.305,1.911,0l5.431-3.136
				C302.508,348.579,302.508,348.085,301.98,347.78z M310.748,342.718l-4.567-2.637c-0.528-0.305-1.383-0.305-1.911,0l-5.431,3.136
				c-0.528,0.304-0.528,0.798,0,1.103l4.567,2.637c0.528,0.305,1.383,0.305,1.911,0l5.431-3.136
				C311.276,343.517,311.276,343.022,310.748,342.718z M322.343,336.023l-4.567-2.637c-0.528-0.305-1.383-0.305-1.911,0
				l-8.258,4.768c-0.528,0.305-0.528,0.798,0,1.103l4.567,2.637c0.527,0.305,1.383,0.305,1.91,0l8.258-4.768
				C322.871,336.822,322.871,336.328,322.343,336.023z M251.596,386.164l-4.567-2.637c-0.528-0.305-1.383-0.305-1.91,0l-8.258,4.768
				c-0.527,0.305-0.527,0.798,0,1.103l4.567,2.637c0.528,0.305,1.383,0.305,1.911,0l8.258-4.767
				C252.124,386.962,252.124,386.468,251.596,386.164z M260.364,381.101l-4.567-2.637c-0.528-0.305-1.383-0.305-1.911,0
				l-5.431,3.136c-0.527,0.305-0.527,0.798,0,1.103l4.567,2.637c0.528,0.305,1.383,0.305,1.911,0l5.431-3.136
				C260.892,381.9,260.892,381.406,260.364,381.101z M269.133,376.039l-4.567-2.637c-0.528-0.305-1.383-0.305-1.911,0l-5.431,3.136
				c-0.527,0.305-0.527,0.798,0,1.103l4.567,2.637c0.528,0.305,1.383,0.305,1.911,0l5.431-3.136
				C269.66,376.837,269.66,376.343,269.133,376.039z M277.901,370.976l-4.567-2.637c-0.528-0.305-1.383-0.305-1.911,0l-5.431,3.136
				c-0.527,0.305-0.527,0.799,0,1.103l4.567,2.637c0.528,0.305,1.383,0.305,1.911,0l5.431-3.136
				C278.428,371.775,278.428,371.281,277.901,370.976z M286.669,365.914l-4.567-2.637c-0.528-0.305-1.383-0.305-1.911,0
				l-5.431,3.136c-0.527,0.305-0.527,0.798,0,1.103l4.567,2.637c0.528,0.305,1.383,0.305,1.91,0l5.431-3.136
				C287.196,366.712,287.196,366.218,286.669,365.914z M326.793,351.905l-4.567-2.637c-0.527-0.305-1.383-0.305-1.91,0
				l-40.608,23.446c-0.527,0.305-0.527,0.798,0,1.103l4.567,2.637c0.528,0.305,1.383,0.305,1.911,0l40.608-23.446
				C327.32,352.704,327.32,352.21,326.793,351.905z M295.437,360.852l-4.567-2.637c-0.528-0.305-1.383-0.305-1.911,0l-5.431,3.136
				c-0.528,0.305-0.528,0.798,0,1.103l4.567,2.637c0.528,0.305,1.383,0.305,1.91,0l5.431-3.136
				C295.964,361.65,295.964,361.156,295.437,360.852z M304.205,355.789l-4.567-2.637c-0.527-0.305-1.383-0.305-1.91,0l-5.431,3.136
				c-0.528,0.305-0.528,0.798,0,1.103l4.567,2.637c0.527,0.305,1.383,0.305,1.911,0l5.431-3.136
				C304.732,356.588,304.732,356.094,304.205,355.789z M312.973,350.727l-4.567-2.637c-0.527-0.305-1.383-0.305-1.91,0l-5.431,3.136
				c-0.528,0.305-0.528,0.798,0,1.103l4.567,2.637c0.527,0.305,1.383,0.305,1.911,0l5.431-3.136
				C313.501,351.525,313.501,351.031,312.973,350.727z M321.741,345.665l-4.567-2.637c-0.527-0.305-1.383-0.305-1.911,0
				l-5.431,3.136c-0.528,0.305-0.528,0.798,0,1.103l4.567,2.637c0.527,0.305,1.383,0.305,1.91,0l5.431-3.136
				C322.269,346.463,322.269,345.969,321.741,345.665z M330.509,340.602l-4.567-2.637c-0.527-0.305-1.383-0.305-1.91,0l-5.431,3.136
				c-0.528,0.305-0.528,0.798,0,1.103l4.567,2.637c0.527,0.305,1.383,0.305,1.91,0l5.431-3.136
				C331.037,341.401,331.037,340.907,330.509,340.602z M315.342,321.72l-4.567-2.637c-0.527-0.305-1.383-0.305-1.91,0l-5.431,3.136
				c-0.528,0.305-0.528,0.798,0,1.103l4.567,2.637c0.527,0.305,1.383,0.305,1.91,0l5.431-3.136
				C315.87,322.518,315.87,322.025,315.342,321.72z M324.111,316.658l-4.567-2.637c-0.527-0.305-1.383-0.305-1.911,0l-5.431,3.136
				c-0.528,0.305-0.528,0.799,0,1.103l4.567,2.637c0.527,0.305,1.383,0.305,1.91,0l5.431-3.136
				C324.638,317.456,324.638,316.962,324.111,316.658z M332.879,311.595l-4.567-2.637c-0.527-0.305-1.383-0.305-1.911,0
				l-5.431,3.136c-0.528,0.305-0.528,0.798,0,1.103l4.567,2.637c0.528,0.305,1.383,0.305,1.911,0l5.431-3.136
				C333.406,312.394,333.406,311.9,332.879,311.595z M340.875,316.212l-4.567-2.637c-0.527-0.305-1.383-0.305-1.911,0l-5.431,3.136
				c-0.528,0.305-0.528,0.798,0,1.103l4.567,2.637c0.527,0.305,1.383,0.305,1.911,0l5.431-3.136
				C341.402,317.01,341.402,316.517,340.875,316.212z M348.642,320.473l-4.464-2.577c-0.436-0.252-1.141-0.253-1.579-0.003
				l-7.669,4.364c-0.371,0.211-0.967,0.21-1.335-0.003l-6.013-3.471c-0.656-0.379-1.719-0.379-2.375,0l-13.761,7.945
				c-0.656,0.379-0.656,0.992,0,1.371l11.994,6.925c0.656,0.379,1.719,0.379,2.375,0l22.827-13.179
				C349.298,321.466,349.298,320.852,348.642,320.473z"/>
		</g>
	</g>
	<g>
		<g>
			<polygon style="opacity:0.8;fill:#534456;" points="351.872,213.248 115.426,349.76 115.426,187.276 351.872,50.764 			"/>
			<polygon style="fill:#EF8199;" points="351.872,61.544 115.426,198.056 115.426,182.38 351.872,45.868 			"/>
		</g>
		<path style="fill:#F0F6FD;" d="M346.083,56.904c0,1.451-1.177,3.307-2.627,4.144c-1.451,0.838-2.627,0.34-2.627-1.111
			c0-1.451,1.176-3.306,2.627-4.144C344.907,54.956,346.083,55.453,346.083,56.904z M333.349,61.63
			c-1.451,0.838-2.627,2.693-2.627,4.144c0,1.451,1.176,1.948,2.627,1.11c1.451-0.838,2.627-2.693,2.627-4.144
			C335.976,61.289,334.799,60.792,333.349,61.63z M323.241,67.465c-1.451,0.838-2.627,2.693-2.627,4.144
			c0,1.451,1.177,1.948,2.627,1.111c1.451-0.838,2.627-2.693,2.627-4.144C325.868,67.124,324.692,66.627,323.241,67.465z"/>
	</g>
	<g>
		<g>
			<g>
				<g>
					<path style="fill:#8FAACC;" d="M345.666,140.939c0,11.093-8.993,25.279-20.086,31.684c-11.093,6.405-20.086,2.604-20.086-8.49
						s8.993-25.279,20.086-31.684C336.673,126.044,345.666,129.845,345.666,140.939z"/>
					<path style="fill:#416193;" d="M341.972,154.655l0.264-0.506l-6.379,1.951c-6.511,1.989-13.46,6.568-19.672,11.606
						l-6.853,5.986c3.651,2.92,9.559,2.791,16.248-1.07C332.355,168.71,338.334,161.894,341.972,154.655z"/>
					<g>
						<path style="fill:#FFC7AE;" d="M332.364,157.887c-1.24-0.628-8.317,4.193-10.142,5.34c-2.438,1.533-3.989,2.885-3.989,4.915
							c0,2.299,3.288,2.265,7.343-0.076c3.366-1.944,7.819-5.858,7.227-9.377C332.745,158.345,332.632,158.026,332.364,157.887z"/>
						<path style="fill:#F2A883;" d="M320.005,160.867c0.004,1.555,0.008,3.45,0.008,5.15c0,3.608,11.142-2.643,11.142-6.303
							c0-1.575-0.005-3.536-0.01-5.278L320.005,160.867z"/>
						<g>
							<path style="fill:#FFC7AE;" d="M334.533,145.637c-0.047-0.498-0.338-0.632-0.678-0.529c0.002-0.089,0.011-0.185,0.011-0.272
								c0-5.136-3.715-7.155-8.297-4.509c-4.583,2.646-8.297,8.954-8.297,14.09c0,0.081,0.009,0.161,0.011,0.242
								c-0.41,0.265-0.797,0.786-0.852,1.431c-0.226,2.636,1.556,3.617,2.351,3.83c1.501,2.428,3.979,3.517,6.788,1.896
								c2.886-1.666,5.425-5.803,6.912-10.077C333.351,150.378,334.733,147.743,334.533,145.637z"/>
							<path style="fill:#302628;" d="M332.478,145.754c0.662-0.6,1.38-0.641,1.38-0.641c0.045-0.584,0.083-1.023,0.118-1.54
								c0.534-7.894-0.998-10.811-8.734-6.344c-10.013,5.781-9.112,10.567-8.831,15.43c0.052,0.896,0.182,1.67,0.353,2.518
								c0.274-0.302,1.158-0.912,1.301-0.994c-0.063-1.175-0.059-2.377,0.083-3.452c0.313-2.372,3.594-4.848,7.017-6.931
								c3.55-2.16,6.696-3.535,7.051-1.68C332.442,143.3,332.494,144.477,332.478,145.754z"/>
						</g>
					</g>
				</g>
			</g>
			<g>
				<g>
					<path style="fill:#AD95BA;" d="M345.666,189.589c0,11.093-8.993,25.279-20.086,31.683c-11.093,6.405-20.086,2.604-20.086-8.489
						s8.993-25.279,20.086-31.683C336.673,174.695,345.666,178.495,345.666,189.589z"/>
					<path style="fill:#76548C;" d="M341.972,203.305l0.264-0.506l-6.379,1.951c-6.511,1.989-13.46,6.568-19.672,11.606
						l-6.853,5.986c3.651,2.92,9.559,2.791,16.248-1.071C332.355,217.361,338.334,210.544,341.972,203.305z"/>
					<g>
						<path style="fill:#FFC7AE;" d="M332.364,206.537c-1.24-0.628-8.317,4.193-10.142,5.34c-2.438,1.533-3.989,2.885-3.989,4.915
							c0,2.3,3.288,2.266,7.343-0.076c3.366-1.944,7.819-5.858,7.227-9.377C332.745,206.996,332.632,206.676,332.364,206.537z"/>
						<path style="fill:#F2A883;" d="M320.005,209.516c0.004,1.555,0.008,3.45,0.008,5.15c0,3.608,11.142-2.643,11.142-6.303
							c0-1.575-0.005-3.536-0.01-5.278L320.005,209.516z"/>
						<g>
							<path style="fill:#FFC7AE;" d="M334.533,194.287c-0.047-0.498-0.338-0.631-0.678-0.529c0.002-0.089,0.011-0.185,0.011-0.272
								c0-5.136-3.715-7.155-8.297-4.509c-4.583,2.646-8.297,8.954-8.297,14.09c0,0.081,0.009,0.161,0.011,0.242
								c-0.41,0.265-0.797,0.786-0.852,1.43c-0.226,2.636,1.556,3.617,2.351,3.83c1.501,2.428,3.979,3.517,6.788,1.895
								c2.886-1.666,5.425-5.803,6.912-10.077C333.351,199.029,334.733,196.394,334.533,194.287z"/>
							<path style="fill:#8E6751;" d="M332.478,194.404c0.662-0.6,1.38-0.642,1.38-0.642c0.695-2.514,1.718-10.626-1.929-11.004
								c-2.319-0.24-6.763,2.704-10.228,6.413c-6.004,2.546-6.626,9.671-4.936,14.657c0.274-0.302,1.158-0.913,1.301-0.994
								c-0.063-1.175-0.106-2.358,0.083-3.453c0.707-4.095,5.326-4.327,9.734-7.261
								C332.182,189.258,332.535,189.831,332.478,194.404z"/>
						</g>
					</g>
				</g>
			</g>
			<g>
				<g>
					<path style="fill:#607247;" d="M345.666,92.289c0,11.093-8.993,25.278-20.086,31.683c-11.093,6.405-20.086,2.604-20.086-8.49
						c0-11.093,8.993-25.278,20.086-31.683C336.673,77.394,345.666,81.195,345.666,92.289z"/>
					<path style="fill:#302628;" d="M334.536,103.959c-0.216-0.925-0.17-2.037-0.272-3.046c-0.102-1.008-0.384-1.953-1.125-2.299
						c-0.729-0.34-1.791-0.057-2.815,0.284c-3.952,1.315-8.086,3.485-12.118,6.361c-0.719,0.513-1.454,1.067-2.074,1.802
						c-0.619,0.735-1.103,1.697-1.044,2.386l2.22,1.684c-1.177,3.225-1.165,6.284,0.031,8.13c0.168,0.259,0.361,0.498,0.626,0.637
						c0.774,0.408,2.009-0.082,3.15-0.567c1.1-0.468,2.211-0.941,3.321-1.665c2.286-1.491,4.356-3.896,6.582-5.727
						c0.728-0.599,1.476-1.139,2.177-1.808c0.701-0.669,1.37-1.505,1.702-2.368C335.506,106.179,334.813,105.145,334.536,103.959z"
						/>
					<path style="fill:#F4CC5D;" d="M341.972,106.005l0.279-0.536l-6.394,1.982c-6.511,1.989-13.46,6.568-19.672,11.606
						l-6.853,5.986c3.651,2.92,9.559,2.791,16.248-1.071C332.355,120.061,338.334,113.244,341.972,106.005z"/>
					<g>
						<path style="fill:#724733;" d="M318.385,119.342c0,2.251,3.219,2.218,7.19-0.074c3.971-2.292,7.189-5.976,7.189-8.228
							c0-0.126,0-0.249-0.001-0.369c-0.012-1.203-0.924-1.697-2.128-1.122c-3.429,1.638-6.892,3.822-10.226,6.261
							c-1.157,0.847-2.022,2.338-2.023,3.509C318.385,119.327,318.385,119.334,318.385,119.342z"/>
						<path style="fill:#603A2B;" d="M320.005,112.216c0.004,1.554,0.008,3.45,0.008,5.15c0,3.607,11.142-2.643,11.142-6.303
							c0-1.575-0.005-3.536-0.01-5.278L320.005,112.216z"/>
						<g>
							<path style="fill:#724733;" d="M334.533,96.987c-0.047-0.498-0.338-0.631-0.678-0.529c0.002-0.089,0.011-0.186,0.011-0.272
								c0-5.136-3.715-7.155-8.297-4.509c-4.583,2.646-8.297,8.954-8.297,14.09c0,0.081,0.009,0.161,0.011,0.242
								c-0.41,0.265-0.797,0.786-0.852,1.431c-0.226,2.636,1.556,3.617,2.351,3.83c1.501,2.428,3.979,3.517,6.788,1.896
								c2.886-1.667,5.425-5.803,6.912-10.078C333.351,101.728,334.733,99.093,334.533,96.987z"/>
							<path style="fill:#302628;" d="M321.325,116.859c-0.451-1.579-3.649-9.881-0.981-15.38c1.566-3.228,4.353-3.666,6.719-5.453
								c1.35-1.02,2.788-1.621,3.87-1.366c1.575,0.372,0.65,6.668,0.65,6.668c0.301-0.596,1.256-3.709,1.912-4.571
								c0.112-0.146,0.234-0.286,0.327-0.443c0.126-0.214,0.183-0.435,0.235-0.647c0.538-2.18,1.555-4.486,1.221-6.264
								c-0.171-0.907-0.532-1.667-0.966-2.337c-0.142-0.219-1.056-1.823-1.375-1.639c-0.963-0.924-2.658-0.799-4.423,0.173
								c-1.56,0.859-3.31,1.919-4.596,2.715c-1.425,0.883-2.847,2.015-4.061,3.466c-2.69,3.217-4.046,6.853-4.708,10.232
								c-0.361,1.846-0.721,3.838-0.551,5.411c0.203,1.877,0.836,3.443,1.68,4.765C317.319,113.817,321.288,116.868,321.325,116.859
								z"/>
						</g>
					</g>
				</g>
			</g>
		</g>
		<g>
			<g>
				<g>
					
						<ellipse transform="matrix(0.6011 -0.7992 0.7992 0.6011 4.5006 273.6062)" style="fill:#A5AFB7;" cx="276.329" cy="132.295" rx="26.705" ry="15.108"/>
					<path style="fill:#50556D;" d="M292.72,134.414l0.231-0.479l-6.346,1.924c-6.511,1.989-13.46,6.568-19.672,11.606l-6.853,5.986
						c3.651,2.92,9.559,2.791,16.248-1.07C283.104,148.469,289.083,141.653,292.72,134.414z"/>
					<g>
						<path style="fill:#FFC7AE;" d="M281.604,137.846c-3.567,1.692-7.173,3.967-10.64,6.509c-1.237,0.907-2.008,2.691-1.516,3.557
							c2.15,3.779,12.01-1.431,13.838-8.649C283.615,137.963,282.755,137.3,281.604,137.846z"/>
						<path style="fill:#F2A883;" d="M270.754,140.626c0.004,1.554,0.011,3.448,0.008,5.15c-0.008,4.518,11.142-1.741,11.142-6.303
							c0-1.575-0.005-3.536-0.01-5.278L270.754,140.626z"/>
						<g>
							<path style="fill:#FFC7AE;" d="M285.282,125.396c-0.048-0.498-0.338-0.632-0.678-0.529c0.002-0.089,0.012-0.186,0.012-0.272
								c0-6.199-0.949-10.809-8.297-6.567c-6.127,3.538-8.795,9.347-8.297,16.147c0.005,0.077,0.009,0.161,0.011,0.242
								c-0.41,0.265-0.797,0.786-0.852,1.431c-0.226,2.636,1.556,3.617,2.351,3.83c1.501,2.428,3.979,3.517,6.788,1.896
								c2.886-1.666,5.426-5.803,6.912-10.077C284.1,130.137,285.482,127.502,285.282,125.396z"/>
						</g>
					</g>
				</g>
			</g>
			<g>
				<g>
					<path style="fill:#50556D;" d="M296.415,217.99c0,11.093-8.993,25.278-20.087,31.683c-11.093,6.405-20.086,2.604-20.086-8.49
						s8.993-25.278,20.086-31.683C287.422,203.096,296.415,206.896,296.415,217.99z"/>
					<path style="fill:#AF8468;" d="M285.285,229.66c-0.216-0.925-0.169-2.038-0.272-3.046c-0.103-1.008-0.384-1.953-1.125-2.299
						c-0.729-0.34-1.791-0.057-2.814,0.284c-3.952,1.315-8.086,3.485-12.118,6.361c-0.719,0.513-1.454,1.066-2.074,1.802
						c-0.62,0.735-1.103,1.697-1.044,2.386l2.22,1.683c-1.177,3.225-1.165,6.284,0.031,8.13c0.168,0.259,0.361,0.498,0.625,0.637
						c0.774,0.408,2.009-0.082,3.15-0.568c1.1-0.468,2.211-0.941,3.321-1.665c2.286-1.491,4.356-3.896,6.583-5.727
						c0.728-0.599,1.476-1.139,2.177-1.808c0.701-0.669,1.37-1.505,1.702-2.368C286.254,231.88,285.562,230.846,285.285,229.66z"/>
					<path style="fill:#FF85BC;" d="M292.72,231.706l0.279-0.537l-6.395,1.982c-6.511,1.989-13.46,6.568-19.672,11.606l-6.853,5.986
						c3.651,2.92,9.559,2.791,16.248-1.071C283.104,245.761,289.083,238.945,292.72,231.706z"/>
					<g>
						<path style="fill:#FFC7AE;" d="M268.981,245.193c0,2.3,3.287,2.266,7.342-0.076c4.055-2.341,7.343-6.104,7.343-8.403
							c0-0.99-0.036-1.768-0.089-2.453c-4.864,2.009-9.862,5.225-14.537,8.833C269.005,243.725,268.981,244.405,268.981,245.193z"/>
						<path style="fill:#F2A883;" d="M270.754,237.918c0.004,1.554,0.008,3.45,0.008,5.15c0,3.607,11.142-2.643,11.142-6.303
							c0-1.575-0.005-3.536-0.01-5.278L270.754,237.918z"/>
						<g>
							<path style="fill:#FFC7AE;" d="M285.282,222.688c-0.048-0.498-0.338-0.631-0.678-0.529c0.002-0.089,0.012-0.186,0.012-0.272
								c0-5.136-3.715-7.155-8.297-4.509c-4.582,2.646-8.297,8.954-8.297,14.09c0,0.081,0.009,0.161,0.011,0.242
								c-0.41,0.265-0.797,0.786-0.852,1.43c-0.226,2.636,1.556,3.618,2.351,3.83c1.501,2.428,3.979,3.517,6.788,1.895
								c2.886-1.666,5.426-5.803,6.912-10.078C284.1,227.429,285.482,224.795,285.282,222.688z"/>
							<path style="fill:#AF8468;" d="M283.666,240.333c0,1.551,5.491-4.96,5.647-7.579c0.183-3.081-1.683-17.84-5.629-21.627
								c-0.963-0.924-2.658-0.799-4.423,0.173c-1.56,0.859-3.31,1.919-4.597,2.716c-1.425,0.883-2.847,2.015-4.06,3.466
								c-7.106,8.498-4.59,18.258-6.728,30.017c-0.474,2.609,5.104,3.22,5.994,1.93c0,0-0.104-13.638-0.128-14.577
								c-0.267-10.506,4.992-10.801,8.068-13.125c1.431-1.081,3.54-2.276,4.092-0.999
								C283.859,225.239,283.666,239.121,283.666,240.333z"/>
						</g>
					</g>
				</g>
			</g>
			<g>
				<g>
					<path style="fill:#B6D1A6;" d="M296.415,169.344c0,11.093-8.993,25.279-20.087,31.683c-11.093,6.405-20.086,2.604-20.086-8.489
						c0-11.093,8.993-25.279,20.086-31.683C287.422,154.449,296.415,158.25,296.415,169.344z"/>
					<path style="fill:#AF8468;" d="M284.701,176.12c0.005-0.693,0.378-1.687,0.014-2.136c-0.312-0.385-1.113,0.086-1.753,0.54
						c-3.636,2.578-1.409,1.126-4.417,2.376c-1.884,0.783-10.231,4.801-10.534,6.86c-0.071,0.479,0.079,0.833,0.188,1.201
						c1.044,3.543-1.47,6.635-0.525,11.975c0.411,2.323,7.488-2.08,10.052-3.871c0.98-0.684,1.999-1.632,2.973-2.25
						c0.926-0.587,1.773-0.758,2.727-1.533C288.357,185.277,284.669,180.51,284.701,176.12z"/>
					<path style="fill:#A5AFB7;" d="M292.72,183.06l0.279-0.536l-6.395,1.982c-6.511,1.989-13.46,6.568-19.672,11.606l-6.853,5.986
						c3.651,2.92,9.559,2.791,16.248-1.071C283.104,197.116,289.083,190.299,292.72,183.06z"/>
					<g>
						<path style="fill:#FFC7AE;" d="M269.641,195.9c0,2.093,2.992,2.062,6.682-0.069c3.691-2.131,6.682-5.555,6.682-7.647
							c0-0.117,0-0.231-0.001-0.341c-0.011-1.143-0.9-1.562-2.044-1.013c-3.155,1.513-6.34,3.523-9.408,5.765
							c-1.087,0.794-1.911,2.185-1.911,3.284C269.641,195.886,269.641,195.893,269.641,195.9z"/>
						<path style="fill:#F2A883;" d="M270.754,189.272c0.004,1.554,0.008,3.45,0.008,5.15c0,3.607,11.142-2.643,11.142-6.303
							c0-1.575-0.005-3.536-0.01-5.278L270.754,189.272z"/>
						<g>
							<path style="fill:#FFC7AE;" d="M285.282,174.042c-0.048-0.498-0.338-0.631-0.678-0.529c0.002-0.089,0.012-0.186,0.012-0.272
								c0-5.136-3.715-7.155-8.297-4.509c-4.582,2.646-8.297,8.954-8.297,14.09c0,0.081,0.009,0.161,0.011,0.242
								c-0.41,0.265-0.797,0.786-0.852,1.431c-0.226,2.636,1.556,3.617,2.351,3.83c1.501,2.428,3.979,3.517,6.788,1.895
								c2.886-1.666,5.426-5.803,6.912-10.077C284.1,178.783,285.482,176.148,285.282,174.042z"/>
							<path style="fill:#AF8468;" d="M285.638,165.373c-0.432-1.185-1.036-2.22-1.953-2.892c-2.696-1.974-7.356,1.116-10.454,3.655
								c-1.348,1.105-3.42,2.503-5.106,6.346c-1.014,2.314-1.378,4.558-1.283,6.505c0.108,2.203,0.434,4.366,0.625,4.659
								c0.234-0.268,0.365-0.446,0.629-0.482c0.47-0.064,0.653,0.469,0.853,0.829c0.246,0.444,0.115,1.823,0.622,1.444
								c0.511-0.383-0.054-2.361-0.136-3.51c-0.077-1.075,0.773-2.657,1.382-3.891c0.798-1.615,2.566-4.778,5.51-5.577
								c2.214-1.869,4.549-1.385,5.347-0.691c0.609,0.53,1.46,1.131,1.382,2.295c-0.083,1.245-0.647,3.875-0.136,3.668
								c0.507-0.205,0.376-1.433,0.622-2.162c0.2-0.591,0.383-1.336,0.853-1.814c0.264-0.269,0.395-0.242,0.629-0.244
								C285.301,172.768,286.458,167.621,285.638,165.373z"/>
						</g>
					</g>
				</g>
			</g>
		</g>
	</g>
	<g>
		<polygon style="fill:#332A35;" points="244.272,258.368 127.752,325.641 127.752,206.479 244.272,139.206 		"/>
		<polygon style="fill:#FFFFFF;" points="230.053,263.045 142.052,313.852 142.052,201.568 230.053,150.761 		"/>
		<g>
			<path style="fill:#50556D;" d="M218.427,228.984c-0.04-1.975-1.337-2.862-3.454-2.282l-12.595,3.848
				c-11.106,3.393-22.96,11.203-33.555,19.797l-12.878,11.25c-2.521,2.202-4.264,5.509-4.3,8.159l-0.446,38.867l67.727-39.188
				L218.427,228.984z"/>
			<path style="fill:#FBBD9E;" d="M172.317,251.09c0,3.923,5.608,3.865,12.525-0.129c6.917-3.994,12.524-10.411,12.524-14.333
				c0-1.688-0.062-3.015-0.152-4.185c-8.296,3.428-16.821,8.913-24.796,15.067C172.358,248.584,172.317,249.745,172.317,251.09z"/>
			<path style="fill:#F2A883;" d="M175.325,233.465c0,0,0.029,7.845,0.029,13.999c0,6.153,19.005-3.57,19.005-9.814
				c0-6.243-0.044-17.143-0.044-17.143L175.325,233.465z"/>
			<g>
				<path style="fill:#FBBD9E;" d="M200.122,212.702c-0.081-0.849-0.577-1.077-1.157-0.902c0.004-0.152,0.02-0.316,0.02-0.464
					c0-8.761-6.337-12.204-14.153-7.691c-7.816,4.513-14.152,15.273-14.152,24.033c0,0.137,0.015,0.274,0.018,0.412
					c-0.699,0.451-1.359,1.34-1.453,2.44c-0.385,4.496,2.655,6.17,4.01,6.533c2.561,4.142,6.787,5.999,11.578,3.233
					c4.923-2.842,9.255-9.898,11.79-17.189C198.106,220.79,200.464,216.295,200.122,212.702z"/>
				<path style="fill:#2B2119;" d="M196.615,212.902c1.13-1.023,2.354-1.094,2.354-1.094c0.076-0.996,0.142-1.746,0.202-2.627
					c0.911-13.464-1.701-18.439-14.898-10.821c-17.079,9.861-15.542,18.024-15.062,26.32c0.088,1.529,0.31,2.848,0.602,4.296
					c0.468-0.516,1.975-1.556,2.219-1.695c-0.107-2.005-0.101-4.054,0.141-5.889c0.534-4.046,6.433-4.813,12.271-8.366
					c6.055-3.684,11.119-9.486,11.725-6.322C196.555,208.715,196.643,210.724,196.615,212.902z"/>
			</g>
		</g>
		<g>
			<polygon style="opacity:0.9;fill:#332A35;" points="232.736,262.487 139.369,316.393 139.369,296.616 232.736,242.711 			"/>
			<g>
				<path style="fill:#7DC628;" d="M173.209,288.165l-8.245,4.761c-0.653,0.377-1.183,0.153-1.183-0.5v-5.393
					c0-0.653,0.53-1.489,1.183-1.866l8.245-4.761c0.653-0.377,1.183-0.153,1.183,0.5v5.393
					C174.392,286.953,173.862,287.788,173.209,288.165z"/>
				<path style="fill:#181019;" d="M193.755,276.303l-16.433,9.487c-0.653,0.377-1.183,0.153-1.183-0.5v-5.393
					c0-0.653,0.529-1.489,1.183-1.866l16.433-9.487c0.653-0.377,1.183-0.153,1.183,0.5v5.393
					C194.938,275.09,194.408,275.926,193.755,276.303z"/>
				<path style="fill:#EA4E4E;" d="M206.113,269.168l-8.245,4.761c-0.653,0.377-1.183,0.153-1.183-0.5v-5.393
					c0-0.653,0.53-1.489,1.183-1.866l8.245-4.761c0.653-0.377,1.183-0.153,1.183,0.5v5.394
					C207.296,267.955,206.767,268.79,206.113,269.168z"/>
				<path style="fill:#383C4C;" d="M183.472,276.801c-0.747,0.431-1.352,1.386-1.352,2.133c0,0.747,0.605,1.003,1.352,0.571
					c0.747-0.431,1.352-1.386,1.352-2.133C184.824,276.625,184.218,276.37,183.472,276.801z M188.081,274.139
					c-0.747,0.431-1.352,1.386-1.352,2.133c0,0.747,0.606,1.003,1.352,0.572c0.747-0.431,1.352-1.386,1.352-2.133
					C189.433,273.964,188.828,273.708,188.081,274.139z"/>
			</g>
		</g>
		<polygon style="fill:#EF8199;" points="244.272,144.547 127.752,211.819 127.752,206.339 244.272,139.067 		"/>
	</g>
	<g>
		<g>
			<g id="Axonometric_Cube_42_">
				<polygon id="Cube_face_-_left_261_" style="fill:#352C2C;" points="192.911,122.696 192.374,122.386 191.213,113.021 
					192.911,114.002 				"/>
				<polygon id="Cube_face_-_right_270_" style="fill:#423636;" points="206.832,114.66 192.911,122.696 192.911,114.002 
					206.832,105.965 				"/>
			</g>
			<g style="enable-background:new    ;">
				<path style="fill:#352C2C;" d="M203.845,87.602c-2.289,1.321-18.409,10.628-20.687,11.944
					c-5.292,3.337-9.823,13.007-1.264,18.28l31.127-29.945C209.919,86.097,206.832,86.003,203.845,87.602z"/>
				<path style="fill:#423636;" d="M213.021,87.881c-1.342-0.78-3.2-0.672-5.248,0.51l-20.686,11.943
					c-4.068,2.349-7.367,8.063-7.354,12.738c0.007,2.339,0.832,3.983,2.16,4.755l1.127,0.655l31.128-29.945L213.021,87.881z"/>
				<path style="fill:#534444;" d="M214.149,88.536c-1.342-0.78-3.2-0.672-5.247,0.51l-20.687,11.943
					c-4.068,2.349-7.367,8.063-7.354,12.737c0.007,2.339,0.832,3.983,2.16,4.755c4.749,2.647,8.078,0.864,9.173,0.278l1.034-0.597
					l1.034-0.597l2.069-1.194l2.069-1.194l2.068-1.194l2.069-1.195l2.068-1.194l2.069-1.194l2.069-1.195l2.068-1.194l1.034-0.597
					l1.035-0.597C218.172,103.479,222.706,93.809,214.149,88.536z"/>
				<path style="fill:#756363;" d="M211.846,91.467L191.16,103.41c0.566,0.645,1.009,1.309,1.28,1.927l20.686-11.943
					C212.856,92.775,212.412,92.112,211.846,91.467z"/>
				<path style="fill:#201323;" d="M213.42,94.602c2.654-1.535,4.834-0.293,4.84,2.758c0.009,3.079-2.156,6.827-4.809,8.355
					c-6.895,3.981-13.791,7.962-20.686,11.943c-2.652,1.535-4.832,0.296-4.84-2.785c-0.011-3.048,2.154-6.8,4.808-8.329
					C199.629,102.564,206.524,98.583,213.42,94.602z"/>
			</g>
		</g>
		<g>
			<path style="fill:#201223;" d="M211.849,98.453c-1.353,0.699-2.507,2.499-2.578,4.021c-0.071,1.521,0.968,2.188,2.321,1.489
				c1.353-0.699,2.507-2.499,2.578-4.021C214.241,98.421,213.201,97.754,211.849,98.453z"/>
			
				<linearGradient id="SVGID_00000041988622746891908640000005723904868345287050_" gradientUnits="userSpaceOnUse" x1="410.0373" y1="346.8182" x2="406.8549" y2="351.9279" gradientTransform="matrix(0.5398 -0.8418 0.8418 0.5398 -303.0401 256.1784)">
				<stop  offset="0" style="stop-color:#A794B3"/>
				<stop  offset="1" style="stop-color:#937D97"/>
			</linearGradient>
			<path style="opacity:0.3;fill:url(#SVGID_00000041988622746891908640000005723904868345287050_);" d="M211.815,97.28
				c1.895-0.979,3.35-0.046,3.251,2.084c-0.099,2.13-1.716,4.651-3.61,5.63c-1.894,0.979-3.35,0.046-3.251-2.084
				C208.304,100.78,209.92,98.259,211.815,97.28z"/>
			<path style="opacity:0.6;fill:#47384C;" d="M208.476,101.547l4.104,2.632c0.816-0.738,1.514-1.72,1.957-2.765l-4.366-2.8
				C209.408,99.453,208.806,100.497,208.476,101.547z"/>
			<path style="opacity:0.6;fill:#7A6582;" d="M210.765,99.926c-0.319,0.165-0.592,0.59-0.608,0.949
				c-0.017,0.359,0.229,0.517,0.548,0.351c0.319-0.165,0.592-0.59,0.609-0.949C211.33,99.918,211.085,99.761,210.765,99.926z"/>
		</g>
		<g>
			<path style="fill:#201223;" d="M194.882,108.249c-1.353,0.699-2.507,2.499-2.578,4.021c-0.071,1.521,0.969,2.188,2.322,1.489
				c1.353-0.699,2.507-2.499,2.578-4.021C197.274,108.216,196.235,107.549,194.882,108.249z"/>
			
				<linearGradient id="SVGID_00000088125666054540637670000012823171007798468743_" gradientUnits="userSpaceOnUse" x1="392.633" y1="337.8236" x2="389.4507" y2="342.9332" gradientTransform="matrix(0.5398 -0.8418 0.8418 0.5398 -303.0401 256.1784)">
				<stop  offset="0" style="stop-color:#A794B3"/>
				<stop  offset="1" style="stop-color:#937D97"/>
			</linearGradient>
			<path style="opacity:0.3;fill:url(#SVGID_00000088125666054540637670000012823171007798468743_);" d="M194.848,107.076
				c1.895-0.979,3.35-0.046,3.251,2.084c-0.099,2.13-1.716,4.651-3.61,5.63c-1.894,0.979-3.35,0.046-3.25-2.084
				C191.338,110.576,192.954,108.055,194.848,107.076z"/>
			<path style="opacity:0.6;fill:#47384C;" d="M191.51,111.342l4.104,2.632c0.816-0.738,1.514-1.72,1.957-2.765l-4.366-2.8
				C192.441,109.248,191.839,110.293,191.51,111.342z"/>
			<path style="opacity:0.6;fill:#7A6582;" d="M193.799,109.721c-0.319,0.165-0.592,0.59-0.608,0.949
				c-0.017,0.359,0.229,0.517,0.548,0.351c0.319-0.165,0.592-0.59,0.609-0.949C194.364,109.714,194.118,109.556,193.799,109.721z"/>
		</g>
	</g>
</g>
</svg>
